<?xml version="1.0" encoding="UTF-8" standalone="no"?>
<!-- Created with Inkscape (http://www.inkscape.org/) -->

<svg
    xmlns:dc="http://purl.org/dc/elements/1.1/"
    xmlns:cc="http://creativecommons.org/ns#"
    xmlns:rdf="http://www.w3.org/1999/02/22-rdf-syntax-ns#"
    xmlns:svg="http://www.w3.org/2000/svg"
    xmlns="http://www.w3.org/2000/svg"
    xmlns:sodipodi="http://sodipodi.sourceforge.net/DTD/sodipodi-0.dtd"
    xmlns:inkscape="http://www.inkscape.org/namespaces/inkscape"
    id="svg2"
    version="1.1"
    inkscape:version="0.91 r13725"
    xml:space="preserve"
    viewBox="0 0 1889.7 426.68799"
    sodipodi:docname="logo_wilap.svg">
    <metadata id="metadata8">
        <rdf:RDF>
            <cc:Work rdf:about="">
                <dc:format>image/svg+xml</dc:format><dc:type rdf:resource="http://purl.org/dc/dcmitype/StillImage"/>
                <dc:title></dc:title>
            </cc:Work>
        </rdf:RDF>
    </metadata><defs id="defs6"/>
    <sodipodi:namedview
        pagecolor="#ffffff"
        bordercolor="#666666"
        borderopacity="1"
        objecttolerance="10"
        gridtolerance="10"
        guidetolerance="10"
        inkscape:pageopacity="0"
        inkscape:pageshadow="2"
        inkscape:window-width="1598"
        inkscape:window-height="861"
        id="namedview4"
        showgrid="false"
        inkscape:zoom="0.18203948"
        inkscape:cx="955.8366"
        inkscape:cy="365.00626"
        inkscape:window-x="0"
        inkscape:window-y="27"
        inkscape:window-maximized="0"
        inkscape:current-layer="g10"
        showguides="true"
        inkscape:guide-bbox="true"
        inkscape:snap-bbox="true"
        inkscape:bbox-nodes="true"><sodipodi:guide position="0,0" orientation="1,0" id="guide4807" inkscape:label="" inkscape:color="rgb(0,0,255)"/><sodipodi:guide position="0,0" orientation="0,1" id="guide4809" inkscape:label="" inkscape:color="rgb(0,0,255)"/></sodipodi:namedview>
    <g id="g10" inkscape:groupmode="layer" inkscape:label="ink_ext_XXXXXX" transform="matrix(1.25,0,0,-1.25,0,426.68799)">
        <g id="g12" transform="matrix(0.103067,0,0,0.103067,1.3864865e-4,-67.214627)"><path
            d="m 725.934,2971.26 c 0,91.24 -73.969,165.2 -165.204,165.2 -91.246,0 -165.207,-73.96 -165.207,-165.2 0,-2.51 0.075,-4.99 0.192,-7.47 l 63.348,-122.7 c 28.027,-21.95 63.312,-35.04 101.667,-35.04 91.235,0 165.204,73.97 165.204,165.21 z m -330.219,-7.47 63.348,-122.7 c -36.84,28.81 -61.141,72.87 -63.348,122.7"
            style="fill:#f58014;fill-opacity:1;fill-rule:nonzero;stroke:none"
            id="path14"
            inkscape:connector-curvature="0"/><path
            d="m 2356.41,2485.08 213.08,-811.88 240.05,811.88 102.5,0 231.96,-814.57 215.78,814.57 106.54,0 -268.37,-984.51 -103.85,0 -234.66,840.21 -242.76,-840.21 -102.48,0 -264.33,984.51 106.54,0"
            style="fill:#393536;fill-opacity:1;fill-rule:nonzero;stroke:none"
            id="path16"
            inkscape:connector-curvature="0"/><path d="m 3653.75,2197.81 0,-697.24 -98.44,0 0,697.24 98.44,0 z m 0,296.7 0,-156.44 -98.44,0 0,156.44 98.44,0" style="fill:#393536;fill-opacity:1;fill-rule:nonzero;stroke:none" id="path18" inkscape:connector-curvature="0"/><path
            d="m 4368.53,2204.57 0,-84.98 -399.2,0 c -60.24,0 -90.36,-27.87 -90.36,-83.6 l 0,-55.31 c 0,-51.23 27.86,-76.87 83.62,-76.87 l 283.21,0 c 102.5,0 153.75,-48.1 153.75,-144.3 l 0,-102.5 c 0,-104.31 -55.3,-156.44 -165.89,-156.44 l -443.69,0 0,84.97 418.07,0 c 63.83,0 95.75,27.86 95.75,83.61 l 0,79.58 c 0,51.23 -27.43,76.86 -82.26,76.86 l -283.22,0 c -103.4,0 -155.09,48.09 -155.09,144.3 l 0,79.58 c 0,103.37 53.94,155.1 161.83,155.1 l 423.48,0"
            style="fill:#393536;fill-opacity:1;fill-rule:nonzero;stroke:none"
            id="path20"
            inkscape:connector-curvature="0"/><path
            d="m 5084.62,2204.57 0,-84.98 -399.19,0 c -60.25,0 -90.35,-27.87 -90.35,-83.6 l 0,-55.31 c 0,-51.23 27.85,-76.87 83.6,-76.87 l 283.21,0 c 102.5,0 153.75,-48.1 153.75,-144.3 l 0,-102.5 c 0,-104.31 -55.3,-156.44 -165.88,-156.44 l -443.69,0 0,84.97 418.06,0 c 63.83,0 95.76,27.86 95.76,83.61 l 0,79.58 c 0,51.23 -27.44,76.86 -82.27,76.86 l -283.21,0 c -103.4,0 -155.09,48.09 -155.09,144.3 l 0,79.58 c 0,103.37 53.94,155.1 161.84,155.1 l 423.46,0"
            style="fill:#393536;fill-opacity:1;fill-rule:nonzero;stroke:none"
            id="path22"
            inkscape:connector-curvature="0"/><path
            d="m 5698.22,2204.57 c 125.87,0 188.81,-62.05 188.81,-186.12 l 0,-56.65 c 0,-103.4 -59.34,-155.08 -178.02,-155.08 l -326.37,0 0,79.56 299.4,0 c 72.82,0 109.23,31.03 109.23,93.06 l 0,32.37 c 0,71.92 -36.88,107.88 -110.58,107.88 l -213.08,0 c -92.62,0 -138.91,-47.66 -138.91,-142.95 l 0,-241.41 c 0,-92.6 44.94,-138.9 134.87,-138.9 l 400.53,0 0,-95.76 -412.67,0 c -146.57,0 -219.83,75.07 -219.83,225.22 l 0,253.55 c 0,150.14 73.26,225.23 219.83,225.23 l 246.79,0"
            style="fill:#393536;fill-opacity:1;fill-rule:nonzero;stroke:none"
            id="path24"
            inkscape:connector-curvature="0"/><path
            d="m 6479.05,2204.57 c 146.53,0 219.83,-75.09 219.83,-225.23 l 0,-478.77 -98.45,0 0,462.58 c 0,95.29 -46.76,142.97 -140.27,142.97 l -334.45,0 0,-605.55 -98.44,0 0,704 451.78,0"
            style="fill:#393536;fill-opacity:1;fill-rule:nonzero;stroke:none"
            id="path26"
            inkscape:connector-curvature="0"/><path
            d="m 7409.59,2204.57 0,-84.98 -399.19,0 c -60.24,0 -90.36,-27.87 -90.36,-83.6 l 0,-55.31 c 0,-51.23 27.87,-76.87 83.62,-76.87 l 283.21,0 c 102.49,0 153.74,-48.1 153.74,-144.3 l 0,-102.5 c 0,-104.31 -55.29,-156.44 -165.88,-156.44 l -443.69,0 0,84.97 418.07,0 c 63.83,0 95.75,27.86 95.75,83.61 l 0,79.58 c 0,51.23 -27.44,76.86 -82.27,76.86 l -283.21,0 c -103.4,0 -155.09,48.09 -155.09,144.3 l 0,79.58 c 0,103.37 53.94,155.1 161.83,155.1 l 423.47,0"
            style="fill:#393536;fill-opacity:1;fill-rule:nonzero;stroke:none"
            id="path28"
            inkscape:connector-curvature="0"/><path
            d="m 8090.62,2204.57 0,-98.45 -295.35,0 c -93.51,0 -140.25,-47.68 -140.25,-142.97 l 0,-221.17 c 0,-96.21 46.74,-144.31 140.25,-144.31 l 295.35,0 0,-97.1 -314.22,0 c -146.56,0 -219.84,75.07 -219.84,225.22 l 0,253.55 c 0,150.14 73.28,225.23 219.84,225.23 l 314.22,0"
            style="fill:#393536;fill-opacity:1;fill-rule:nonzero;stroke:none"
            id="path30"
            inkscape:connector-curvature="0"/><path
            d="m 8323.93,2494.51 0,-289.94 353.33,0 c 146.53,0 219.83,-75.09 219.83,-225.23 l 0,-478.77 -98.45,0 0,462.58 c 0,95.29 -46.76,142.97 -140.26,142.97 l -334.45,0 0,-605.55 -98.45,0 0,993.94 98.45,0"
            style="fill:#393536;fill-opacity:1;fill-rule:nonzero;stroke:none"
            id="path32"
            inkscape:connector-curvature="0"/><path
            d="m 9468.89,2204.57 c 146.54,0 219.83,-75.09 219.83,-225.23 l 0,-253.55 c 0,-150.15 -73.29,-225.22 -219.83,-225.22 l -248.14,0 c -124.98,0 -187.45,62.04 -187.45,186.12 l 0,55.29 c 0,104.29 59.33,156.44 178,156.44 l 325.02,0 0,-79.56 -299.39,0 c -72.83,0 -109.23,-31.03 -109.23,-93.07 l 0,-32.36 c 0,-71.94 36.85,-107.89 110.59,-107.89 l 214.42,0 c 91.71,0 137.56,47.64 137.56,142.96 l 0,241.39 c 0,92.59 -44.5,138.91 -133.51,138.91 l -401.88,0 0,95.77 414.01,0"
            style="fill:#393536;fill-opacity:1;fill-rule:nonzero;stroke:none"
            id="path34"
            inkscape:connector-curvature="0"/><path
            d="m 10087.9,2494.51 0,-82.26 -67.5,0 c -62.85,0 -94.38,-32.37 -94.38,-97.11 l 0,-110.57 156.48,0 0,-87.68 -156.48,0 0,-616.32 -97.02,0 0,817.27 c 0,117.78 57.05,176.67 171.2,176.67 l 87.7,0"
            style="fill:#393536;fill-opacity:1;fill-rule:nonzero;stroke:none"
            id="path36"
            inkscape:connector-curvature="0"/><path d="m 10377.9,2433.82 0,-229.25 152.3,0 0,-87.68 -152.3,0 0,-616.32 -98.5,0 0,616.32 -132.2,0 0,87.68 132.2,0 0,229.25 98.5,0" style="fill:#393536;fill-opacity:1;fill-rule:nonzero;stroke:none" id="path38" inkscape:connector-curvature="0"/><path
            d="m 11200.5,2204.57 0,-84.98 -399.2,0 c -60.3,0 -90.4,-27.87 -90.4,-83.6 l 0,-55.31 c 0,-51.23 27.9,-76.87 83.7,-76.87 l 283.2,0 c 102.4,0 153.7,-48.1 153.7,-144.3 l 0,-102.5 c 0,-104.31 -55.3,-156.44 -165.9,-156.44 l -443.7,0 0,84.97 418.1,0 c 63.8,0 95.7,27.86 95.7,83.61 l 0,79.58 c 0,51.23 -27.3,76.86 -82.3,76.86 l -283.2,0 c -103.3,0 -155,48.09 -155,144.3 l 0,79.58 c 0,103.37 53.9,155.1 161.8,155.1 l 423.5,0"
            style="fill:#393536;fill-opacity:1;fill-rule:nonzero;stroke:none"
            id="path40"
            inkscape:connector-curvature="0"/><path d="m 11356.9,1500.57 98.383,0 0,993.941 -98.383,0 0,-993.941 z" style="fill:#393536;fill-opacity:1;fill-rule:nonzero;stroke:none" id="path42" inkscape:connector-curvature="0"/><path
            d="m 12031.1,2204.57 c 146.7,0 219.9,-75.09 219.9,-225.23 l 0,-253.55 c 0,-150.15 -73.2,-225.22 -219.9,-225.22 l -248,0 c -125,0 -187.5,62.04 -187.5,186.12 l 0,55.29 c 0,104.29 59.3,156.44 178,156.44 l 325,0 0,-79.56 -299.3,0 c -72.9,0 -109.3,-31.03 -109.3,-93.07 l 0,-32.36 c 0,-71.94 36.9,-107.89 110.6,-107.89 l 214.4,0 c 91.7,0 137.6,47.64 137.6,142.96 l 0,241.39 c 0,92.59 -44.5,138.91 -133.6,138.91 l -401.9,0 0,95.77 414,0"
            style="fill:#393536;fill-opacity:1;fill-rule:nonzero;stroke:none"
            id="path44"
            inkscape:connector-curvature="0"/><path
            d="m 13058.8,2494.51 0,-768.72 c 0,-150.15 -73.2,-225.22 -219.8,-225.22 l -231.9,0 c -146.6,0 -219.9,75.07 -219.9,225.22 l 0,253.55 c 0,150.14 73.3,225.23 219.9,225.23 l 299.3,0 0,-98.45 -280.5,0 c -93.5,0 -140.2,-47.68 -140.2,-142.97 l 0,-221.17 c 0,-96.21 46.7,-144.31 140.2,-144.31 l 194.2,0 c 93.5,0 140.2,48.1 140.2,144.31 l 0,752.53 98.5,0"
            style="fill:#393536;fill-opacity:1;fill-rule:nonzero;stroke:none"
            id="path46"
            inkscape:connector-curvature="0"/><path
            d="m 13667.1,2204.57 c 125.8,0 188.8,-62.05 188.8,-186.12 l 0,-56.65 c 0,-103.4 -59.4,-155.08 -178.1,-155.08 l -326.4,0 0,79.56 299.5,0 c 72.8,0 109.2,31.03 109.2,93.06 l 0,32.37 c 0,71.92 -36.9,107.88 -110.6,107.88 l -213.1,0 c -92.6,0 -138.9,-47.66 -138.9,-142.95 l 0,-241.41 c 0,-92.6 44.9,-138.9 134.9,-138.9 l 400.5,0 0,-95.76 -412.7,0 c -146.5,0 -219.8,75.07 -219.8,225.22 l 0,253.55 c 0,150.14 73.3,225.23 219.8,225.23 l 246.9,0"
            style="fill:#393536;fill-opacity:1;fill-rule:nonzero;stroke:none"
            id="path48"
            inkscape:connector-curvature="0"/><path
            d="m 14447.9,2204.57 c 146.5,0 219.8,-75.09 219.8,-225.23 l 0,-478.77 -98.4,0 0,462.58 c 0,95.29 -46.8,142.97 -140.3,142.97 l -334.4,0 0,-605.55 -98.5,0 0,704 451.8,0"
            style="fill:#393536;fill-opacity:1;fill-rule:nonzero;stroke:none"
            id="path50"
            inkscape:connector-curvature="0"/><path
            d="m 2927.2,1208.47 c 81.07,0 121.62,-41.54 121.62,-124.61 l 0,-52.98 c 0,-83.083 -40.55,-124.61 -121.62,-124.61 l -194.01,0 0,52.976 188.78,0 c 46.76,0 70.14,24.121 70.14,72.384 l 0,48.5 c 0,48.25 -23.38,72.38 -70.14,72.38 l -218.63,0 0,-488.752 -56.7,0 0,544.712 280.56,0"
            style="fill:#918f90;fill-opacity:1;fill-rule:nonzero;stroke:none"
            id="path52"
            inkscape:connector-curvature="0"/><path
            d="m 3155.54,797.324 c 0,-53.23 25.85,-79.844 77.59,-79.844 l 111.18,0 c 51.73,0 77.6,26.614 77.6,79.844 l 0,122.375 c 0,52.723 -25.87,79.094 -77.6,79.094 l -111.18,0 c -51.74,0 -77.59,-26.371 -77.59,-79.094 l 0,-122.375 z m 199.22,255.936 c 81.08,0 121.62,-41.53 121.62,-124.608 l 0,-140.277 c 0,-83.078 -40.54,-124.617 -121.62,-124.617 l -132.08,0 c -81.08,0 -121.61,41.539 -121.61,124.617 l 0,140.277 c 0,83.078 40.53,124.608 121.61,124.608 l 132.08,0"
            style="fill:#918f90;fill-opacity:1;fill-rule:nonzero;stroke:none"
            id="path54"
            inkscape:connector-curvature="0"/><path d="m 3659.94,1180.12 0,-126.86 84.31,0 0,-48.5 -84.31,0 0,-341.002 -54.48,0 0,341.002 -73.11,0 0,48.5 73.11,0 0,126.86 54.48,0" style="fill:#918f90;fill-opacity:1;fill-rule:nonzero;stroke:none" id="path56" inkscape:connector-curvature="0"/><path
            d="m 4122.55,1053.26 0,-47.01 -220.86,0 c -33.33,0 -50,-15.422 -50,-46.258 l 0,-30.59 c 0,-28.363 15.42,-42.535 46.26,-42.535 l 156.69,0 c 56.72,0 85.07,-26.613 85.07,-79.844 l 0,-56.71 c 0,-57.7 -30.58,-86.555 -91.78,-86.555 l -245.48,0 0,47.019 231.3,0 c 35.32,0 52.98,15.407 52.98,46.262 l 0,44.02 c 0,28.359 -15.18,42.535 -45.52,42.535 l -156.69,0 c -57.2,0 -85.81,26.601 -85.81,79.84 l 0,44.019 c 0,57.207 29.85,85.807 89.54,85.807 l 234.3,0"
            style="fill:#918f90;fill-opacity:1;fill-rule:nonzero;stroke:none"
            id="path58"
            inkscape:connector-curvature="0"/><path
            d="m 4582.92,1213.69 0,-425.315 c 0,-83.078 -40.54,-124.617 -121.63,-124.617 l -128.33,0 c -81.1,0 -121.63,41.539 -121.63,124.617 l 0,140.277 c 0,83.078 40.53,124.608 121.63,124.608 l 165.65,0 0,-54.467 -155.2,0 c -51.75,0 -77.6,-26.371 -77.6,-79.094 l 0,-122.375 c 0,-53.23 25.85,-79.844 77.6,-79.844 l 107.44,0 c 51.74,0 77.6,26.614 77.6,79.844 l 0,416.366 54.47,0"
            style="fill:#918f90;fill-opacity:1;fill-rule:nonzero;stroke:none"
            id="path60"
            inkscape:connector-curvature="0"/><path
            d="m 4906.76,1053.26 c 81.07,0 121.62,-41.53 121.62,-124.608 l 0,-140.277 c 0,-83.078 -40.55,-124.617 -121.62,-124.617 l -137.3,0 c -69.15,0 -103.72,34.328 -103.72,102.984 l 0,30.582 c 0,57.707 32.83,86.563 98.5,86.563 l 179.82,0 0,-44.028 -165.65,0 c -40.29,0 -60.43,-17.164 -60.43,-51.484 l 0,-17.91 c 0,-39.809 20.39,-59.688 61.18,-59.688 l 118.64,0 c 50.74,0 76.11,26.352 76.11,79.086 l 0,133.571 c 0,51.23 -24.63,76.856 -73.87,76.856 l -222.36,0 0,52.97 229.08,0"
            style="fill:#918f90;fill-opacity:1;fill-rule:nonzero;stroke:none"
            id="path62"
            inkscape:connector-curvature="0"/><path
            d="m 5567.85,1053.26 c 80.08,0 120.13,-41.53 120.13,-124.608 l 0,-264.894 -54.47,0 0,255.941 c 0,53.227 -25.37,79.84 -76.1,79.84 l -129.09,0 0,-335.781 -52.24,0 0,335.781 -205.93,0 0,-335.781 -53.74,0 0,389.502 451.44,0"
            style="fill:#918f90;fill-opacity:1;fill-rule:nonzero;stroke:none"
            id="path64"
            inkscape:connector-curvature="0"/><path
            d="m 6207.3,1053.26 c 69.64,0 104.47,-34.31 104.47,-102.959 l 0,-31.348 c 0,-57.207 -32.84,-85.808 -98.5,-85.808 l -180.57,0 0,44.019 165.65,0 c 40.29,0 60.44,17.172 60.44,51.488 l 0,17.914 c 0,39.789 -20.4,59.684 -61.19,59.684 l -117.89,0 c -51.24,0 -76.86,-26.367 -76.86,-79.09 l 0,-133.562 c 0,-51.239 24.87,-76.852 74.63,-76.852 l 221.6,0 0,-52.988 -228.33,0 c -81.08,0 -121.62,41.539 -121.62,124.617 l 0,140.277 c 0,83.078 40.54,124.608 121.62,124.608 l 136.55,0"
            style="fill:#918f90;fill-opacity:1;fill-rule:nonzero;stroke:none"
            id="path66"
            inkscape:connector-curvature="0"/><path d="m 6422.19,1208.47 190.27,-476.802 189.52,476.802 60.45,0 -218.63,-544.712 -61.94,0 -223.09,544.712 63.42,0" style="fill:#918f90;fill-opacity:1;fill-rule:nonzero;stroke:none" id="path68" inkscape:connector-curvature="0"/><path d="m 6832.58,663.758 54.4688,0 0,86.5547 -54.4688,0 0,-86.5547 z" style="fill:#918f90;fill-opacity:1;fill-rule:nonzero;stroke:none" id="path70" inkscape:connector-curvature="0"/><path
            d="m 368.168,2971.26 c 0,13.15 1.336,26 3.848,38.43 17.812,87.92 95.539,154.12 188.714,154.12 106.348,0 192.551,-86.2 192.551,-192.55 0,-106.35 -86.203,-192.56 -192.551,-192.56 -27.761,0 -54.152,5.92 -77.98,16.51 -67.48,29.92 -114.582,97.46 -114.582,176.05 z M 1881.72,1202.45 c -143.19,-130.86 -333.78,-210.72 -543.05,-210.72 -444.752,0 -805.315,360.54 -805.315,805.3 0,237.08 36.747,763.56 36.747,763.56 30.945,48.87 53.816,70.84 53.816,70.84 l 31.352,28.71 88.035,-155.71 22.086,13.94 49.382,-77.68 210.097,119.46 c 0,-0.01 -46.483,81.15 -46.483,81.15 l 47.223,31.78 c 0,0 -459.301,858.25 -499.321,878.41 -13.762,6.93 -47.809,2.2 -60.707,10.62 -75.488,49.3 -178.012,267.57 -175.078,315.31 0.73,11.87 22.738,25.29 31.605,33.19 25.293,22.55 -0.582,64.6 -28.839,50.71 C 212.457,3921.59 60.2813,3837.4 7.77734,3799 c -17.75,-12.98 -3.19531,-51.79 24.19926,-50.96 12.3984,0.38 34.6601,19.78 51.7812,16.59 21.3712,-3.98 166.3792,-230.89 171.7462,-321.95 0.766,-13.15 -17.25,-36.79 -16.774,-49.94 0.504,-13.94 27.563,-48.47 27.563,-48.47 l -58.488,-30.88 80.672,-141.85 48.851,-94.65 c 0,0 -105.547,41.27 -145.234,0 -43.309,-45.05 -27.824,-211.39 4.312,-249.92 34.016,-40.77 205.973,-62.93 193.301,-116.37 C 356.168,2569.18 303.738,2447.09 206.715,2049.29 70.5313,1490.96 109.691,739.469 827.668,652.145 l 514.232,0 879.79,0.468 -339.97,549.837"
            style="fill:#f9a70d;fill-opacity:1;fill-rule:nonzero;stroke:none"
            id="path72"
            inkscape:connector-curvature="0"/><path
            d="m 1868.46,1809.5 c -2.09,30.4 -62.59,126.1 -108.49,161.56 -45.92,35.46 -12.53,62.59 4.19,93.89 16.67,31.28 -12.54,45.89 -29.23,90.65 -16.69,44.74 -114.75,36.61 -135.6,26.19 -20.87,-10.43 -54.26,4.17 -114.77,45.9 -60.51,41.73 29.21,91.79 29.21,91.79 394.32,-146.04 356.77,-540.37 354.69,-509.98 z m -306.7,-78.37 c -10.43,-6.26 -102.22,-29.22 -64.68,-158.57 37.56,-129.36 33.39,-258.71 -47.98,-271.23 -81.37,-12.53 -62.59,58.42 -68.85,62.59 -6.27,4.19 -133.54,160.65 -204.48,198.21 -70.92,37.55 -56.33,66.76 -29.2,60.51 27.12,-6.27 125.17,22.94 37.54,70.93 -87.61,47.99 -52.14,-37.56 -66.75,-43.82 -14.62,-6.25 -118.938,-54.23 -118.938,-54.23 0,0 -31.301,-29.22 -20.859,-70.95 10.441,-41.73 -20.864,-22.95 -31.297,-16.69 -10.422,6.26 -52.426,8.89 -65.618,13.6 -11.457,4.1 -190.726,291.43 0.829,585.33 12.375,18.99 79.39,43.67 89.828,29.07 10.449,-14.6 52.155,-55.75 70.935,-16.4 18.78,39.35 70.92,37.26 91.8,35.18 20.86,-2.09 77.21,-25.03 79.29,-37.56 2.09,-12.51 -77.2,-54.25 -22.96,-68.85 54.26,-14.6 75.12,30.25 75.12,30.25 l 22.96,21.97 c 0,0 50.06,-31.35 83.44,-21.97 33.4,9.38 31.31,-7.3 27.13,-23.99 -4.17,-16.69 0,-20.85 12.52,-22.96 12.51,-2.07 18.78,-31.29 0,-35.46 -18.77,-4.17 -75.11,54.25 -93.89,31.3 -18.77,-22.94 -31.29,-56.33 -31.29,-83.46 0,-27.13 -31.31,-56.33 -41.73,-64.68 0,0 -18.79,-12.51 -29.21,29.22 -10.44,41.73 -56.33,50.08 -75.11,29.21 -18.78,-20.88 -11.1,-49.43 15.31,-60.18 26.41,-10.76 28.49,-31.64 22.24,-35.8 -6.26,-4.16 89.72,-8.34 110.59,-10.43 20.86,-2.09 58.4,33.38 62.58,52.17 4.18,18.77 131.66,232.13 271.24,33.37 68.86,-98.06 -50.07,-179.42 -60.51,-185.68 z m -229.02,633.85 c -306.76,0 -555.467,-248.69 -555.467,-555.48 0,-306.78 248.707,-555.46 555.467,-555.46 306.8,0 555.48,248.68 555.48,555.46 0,306.79 -248.68,555.48 -555.48,555.48"
            style="fill:#5995d6;fill-opacity:1;fill-rule:nonzero;stroke:none"
            id="path74"
            inkscape:connector-curvature="0"/></g>
    </g>
</svg>