<?xml version="1.0" standalone="no"?>
<!DOCTYPE svg PUBLIC "-//W3C//DTD SVG 20010904//EN"
 "http://www.w3.org/TR/2001/REC-SVG-20010904/DTD/svg10.dtd">
<svg version="1.0" xmlns="http://www.w3.org/2000/svg"
 width="700.000000pt" height="700.000000pt" viewBox="0 0 700.000000 700.000000"
 preserveAspectRatio="xMidYMid meet">
<metadata>
Created by potrace 1.11, written by Peter Selinger 2001-2013
</metadata>
<g transform="translate(0.000000,700.000000) scale(0.100000,-0.100000)"
fill="#000000" stroke="none">
<path d="M1435 6110 c3 -5 8 -10 11 -10 2 0 4 5 4 10 0 6 -5 10 -11 10 -5 0
-7 -4 -4 -10z"/>
<path d="M1475 6110 c-4 -6 1 -7 11 -3 13 5 15 3 9 -7 -5 -9 -4 -11 4 -6 6 4
9 12 6 17 -8 12 -22 12 -30 -1z"/>
<path d="M1330 6099 c0 -5 5 -7 10 -4 6 3 10 8 10 11 0 2 -4 4 -10 4 -5 0 -10
-5 -10 -11z"/>
<path d="M1512 6088 c-7 -7 -17 -14 -22 -14 -6 -1 -14 -2 -20 -3 -5 0 -10 -5
-10 -10 0 -6 9 -8 20 -6 12 2 20 -2 20 -10 0 -8 8 -19 18 -24 9 -6 11 -11 5
-11 -9 0 -8 -6 4 -19 9 -11 23 -17 32 -13 14 5 14 4 1 -13 -12 -15 -12 -17 -1
-10 11 6 13 4 8 -8 -4 -11 -2 -14 8 -11 15 6 14 -12 -1 -50 -6 -15 -4 -18 8
-13 25 9 28 -3 7 -24 -27 -27 -15 -42 20 -24 16 8 31 11 35 8 3 -4 6 -1 6 6 0
8 -6 11 -17 7 -14 -6 -14 -4 2 14 11 12 15 21 10 20 -21 -5 -27 1 -16 14 9 11
6 17 -14 30 -14 9 -23 22 -19 28 5 7 2 8 -6 3 -9 -6 -11 -4 -5 5 5 9 4 11 -3
6 -8 -5 -10 -1 -5 10 5 14 2 16 -15 12 -12 -4 -22 -3 -23 0 0 4 -2 15 -4 25
-2 9 1 17 6 17 5 0 9 -6 9 -14 0 -12 43 -32 62 -28 4 1 5 -7 3 -17 -2 -11 7
-24 26 -35 16 -9 29 -23 28 -29 0 -9 -2 -9 -6 1 -7 17 -20 15 -20 -3 0 -8 4
-15 9 -15 5 0 6 -10 2 -22 -6 -19 -4 -21 7 -11 10 8 19 9 29 1 12 -8 12 -9 -2
-4 -20 6 -36 -18 -33 -51 1 -13 -3 -19 -11 -16 -7 2 -11 14 -8 26 3 20 3 20
-14 4 -14 -15 -15 -19 -3 -26 8 -6 9 -11 3 -15 -6 -4 -15 2 -21 11 -6 10 -11
14 -11 9 0 -6 10 -20 21 -33 17 -17 19 -26 11 -36 -15 -18 0 -38 31 -41 15 -2
24 0 22 4 -2 4 8 6 23 5 22 -1 27 -6 29 -30 1 -15 8 -32 15 -38 10 -6 8 -7 -4
-3 -10 3 -20 1 -23 -4 -4 -6 -3 -10 2 -11 4 0 20 -2 36 -4 19 -3 25 0 21 8 -4
7 -3 8 1 4 5 -4 10 -14 11 -22 2 -11 -2 -12 -16 -5 -27 14 -38 12 -17 -4 17
-13 16 -14 -2 -19 -19 -4 -23 -28 -8 -43 7 -7 11 11 8 30 -1 5 4 4 13 -3 12
-10 15 -9 19 6 2 10 4 3 4 -14 0 -30 -1 -31 -14 -15 -13 16 -14 15 -8 -4 3
-13 0 -24 -7 -27 -18 -6 -34 -4 -30 6 1 4 -2 7 -8 7 -5 0 -10 5 -10 11 0 5 4
8 8 5 4 -2 8 6 8 20 0 13 -2 24 -5 25 -4 0 -15 2 -25 4 -11 2 -27 0 -35 -4
-11 -7 -10 -10 7 -15 27 -9 28 -21 5 -35 -10 -6 -13 -11 -8 -11 6 0 16 5 23
12 9 9 12 9 12 0 0 -6 -8 -16 -17 -21 -10 -6 -13 -11 -8 -11 6 0 17 6 23 12
10 10 12 8 9 -7 -6 -33 -19 -55 -27 -50 -5 3 -11 1 -15 -4 -3 -6 3 -8 13 -6
21 4 82 -31 82 -47 0 -6 -8 -4 -17 3 -9 8 -14 9 -10 2 4 -7 0 -13 -10 -16 -17
-4 -17 -5 0 -6 10 0 15 -5 12 -11 -3 -5 -1 -10 5 -10 6 0 8 -5 4 -12 -5 -9 -2
-9 9 1 24 19 21 -2 -3 -24 -21 -19 -27 -45 -10 -45 5 0 6 8 3 18 -6 15 -5 15
11 3 17 -14 17 -15 0 -28 -10 -8 -13 -13 -5 -13 7 0 9 -4 6 -10 -4 -6 1 -7 12
-3 16 6 17 5 3 -13 -14 -18 -14 -18 3 -5 20 15 23 2 5 -18 -9 -9 -9 -12 -1 -7
6 3 13 0 16 -6 3 -10 8 -10 18 1 8 8 9 11 2 7 -8 -4 -11 0 -8 14 2 11 -2 20
-8 20 -8 0 -7 4 2 9 17 11 25 48 11 56 -5 3 -7 13 -4 23 5 16 5 16 -9 0 -13
-17 -27 -15 -27 4 0 5 5 6 11 2 8 -4 8 -1 1 12 -5 11 -8 31 -6 47 2 18 -1 25
-8 21 -7 -5 -8 -2 -3 6 6 9 4 11 -6 5 -12 -7 -11 -5 1 11 11 15 11 16 0 7 -8
-7 -18 -13 -24 -13 -5 0 -1 7 10 15 10 8 15 15 9 15 -5 0 -3 5 5 10 11 7 11
10 2 10 -7 0 -10 5 -7 11 5 6 13 3 22 -10 8 -12 18 -19 23 -16 10 6 7 -21 -3
-31 -4 -4 -7 -14 -7 -23 1 -13 3 -12 15 3 8 11 15 15 15 9 0 -6 -6 -16 -14
-22 -13 -11 -20 -61 -7 -59 18 2 33 -3 27 -9 -3 -4 4 -13 16 -20 l23 -14 -25
6 c-24 6 -24 5 -6 -9 16 -13 17 -16 4 -16 -19 0 -18 -32 2 -38 7 -3 10 0 7 6
-8 11 20 38 30 28 3 -3 1 -6 -7 -6 -10 0 -10 -3 0 -15 7 -9 10 -18 6 -22 -3
-3 -6 -1 -6 5 0 9 -5 9 -19 0 -25 -15 -19 -26 14 -23 14 2 23 -1 20 -5 -3 -5
-13 -6 -23 -3 -15 6 -15 4 2 -15 10 -11 16 -27 13 -34 -4 -9 -6 -7 -6 4 -2 33
-18 27 -18 -6 0 -30 2 -33 18 -23 27 17 48 -5 28 -29 -13 -16 -12 -17 6 -11
14 5 10 0 -10 -17 -16 -14 -25 -25 -18 -26 6 0 15 5 18 10 3 6 14 10 23 10 10
0 3 -7 -15 -16 -18 -9 -35 -25 -38 -35 -4 -11 -11 -17 -16 -13 -6 3 -5 12 3
21 16 20 21 54 7 50 -6 -1 -13 6 -14 16 -2 10 1 15 8 11 7 -4 7 -1 -1 7 -11
12 -14 12 -22 -1 -5 -8 -6 -18 -4 -22 3 -4 -1 -8 -8 -8 -10 0 -9 -3 2 -9 8 -6
18 -7 22 -5 4 3 8 1 8 -5 0 -5 -6 -12 -12 -14 -10 -4 -10 -6 0 -6 7 -1 10 -6
7 -11 -5 -8 -11 -8 -20 0 -10 8 -15 8 -21 -1 -4 -7 -3 -9 4 -5 6 3 22 -8 35
-26 21 -26 24 -36 15 -52 -11 -20 -11 -20 17 -2 26 17 27 17 22 1 -4 -9 -7
-19 -7 -21 0 -3 -4 -3 -8 0 -4 2 -9 -5 -9 -17 -1 -12 -7 -23 -13 -25 -5 -2
-10 -8 -10 -13 0 -17 21 2 31 28 5 14 14 21 21 17 6 -4 8 -3 4 4 -11 17 12 24
36 10 13 -7 26 -11 29 -10 4 1 4 -8 1 -20 l-5 -22 -8 22 c-5 12 -13 22 -18 22
-5 0 -4 -12 4 -26 7 -15 11 -33 8 -40 -3 -8 0 -14 6 -14 6 0 11 6 11 14 0 20
13 27 30 14 12 -8 12 -9 -2 -4 -12 3 -18 0 -18 -9 0 -8 8 -19 18 -24 9 -6 12
-11 5 -11 -6 0 -14 4 -17 9 -3 4 -22 7 -43 5 -22 -1 -32 1 -24 5 7 5 9 11 5
13 -5 3 -4 3 3 2 7 -2 10 3 7 11 -3 8 -9 13 -12 12 -4 -1 -8 1 -10 6 -5 16 -1
19 13 7 9 -8 15 -9 15 -2 0 31 -44 22 -55 -11 -13 -40 -13 -47 -4 -47 6 0 9 7
7 16 -2 10 2 19 9 21 12 4 11 -26 -1 -46 -11 -16 5 -40 22 -35 13 5 13 2 -2
-10 -11 -9 -15 -16 -10 -16 6 0 15 5 21 11 9 9 12 7 10 -10 -1 -14 -8 -21 -22
-22 -18 0 -18 -1 4 -10 22 -9 23 -10 4 -27 -10 -9 -14 -14 -9 -9 16 11 28 8
20 -5 -5 -9 -2 -8 9 1 11 8 14 18 8 25 -13 17 -9 45 6 39 8 -3 13 2 13 13 0
16 -2 17 -11 4 -9 -13 -10 -13 -7 0 1 8 -3 26 -10 40 -12 22 -11 23 1 8 15
-19 32 -25 22 -8 -3 6 -2 10 3 10 6 0 10 -10 10 -22 0 -13 2 -32 4 -43 2 -14
-2 -19 -14 -17 -12 2 -16 -2 -12 -12 5 -14 9 -14 36 0 16 9 32 13 35 11 2 -3
-5 -8 -18 -12 -17 -6 -19 -9 -8 -16 12 -7 11 -9 -2 -9 -8 0 -20 -5 -27 -12
-11 -11 -26 -16 -64 -20 -9 -1 -14 -6 -12 -10 3 -5 9 -6 14 -3 5 3 11 2 14 -3
7 -11 -26 -12 -40 -1 -6 5 -11 3 -11 -5 0 -8 11 -12 31 -11 18 1 30 6 29 13
-2 7 1 12 5 12 17 0 21 -13 10 -33 -11 -21 -11 -21 16 -4 19 13 26 14 26 5 0
-8 3 -9 8 -3 6 9 18 14 47 19 21 3 35 18 29 28 -4 7 -2 8 5 4 6 -4 8 -12 5
-18 -5 -7 -1 -9 9 -5 9 3 34 11 56 17 23 6 41 15 41 21 0 9 -265 918 -345
1185 -24 79 -26 82 -67 100 -24 10 -49 18 -55 17 -7 0 -10 3 -8 8 3 4 -8 15
-24 23 -23 12 -31 13 -34 3 -4 -8 -6 -6 -6 4 -1 13 -37 38 -61 44 -3 0 -15 6
-26 13 -21 11 -34 7 -34 -10 0 -5 10 -7 23 -3 21 6 21 5 2 -6 -11 -7 -23 -17
-27 -23 -4 -6 -10 -7 -15 -3 -4 5 -1 12 6 16 10 6 10 10 2 16 -9 5 -9 10 0 21
14 17 8 19 -9 2z m108 -51 c13 -9 19 -17 12 -17 -8 0 -10 -5 -6 -12 4 -8 3
-10 -2 -5 -5 5 -10 13 -10 18 -1 5 -2 12 -3 16 0 4 -8 -2 -16 -13 -13 -16 -14
-17 -9 -1 4 10 3 17 -2 16 -17 -3 -25 1 -20 10 8 13 27 9 56 -12z m-4 -143
c-3 -7 -1 -16 4 -19 6 -4 5 -14 -2 -25 -15 -23 -39 -35 -32 -15 3 7 12 16 21
19 12 5 13 9 3 21 -7 8 -17 12 -22 9 -6 -4 -6 2 1 13 6 11 7 24 3 29 -4 5 1 2
11 -5 10 -8 16 -20 13 -27z m89 27 c3 -5 2 -12 -3 -15 -5 -3 -9 1 -9 9 0 17 3
19 12 6z m-10 -41 c3 -6 -1 -7 -9 -4 -18 7 -21 14 -7 14 6 0 13 -4 16 -10z
m-13 -82 c-6 -6 -9 0 -9 18 0 23 1 24 9 10 7 -12 7 -21 0 -28z m46 -3 c-3 -3
-9 2 -12 12 -6 14 -5 15 5 6 7 -7 10 -15 7 -18z m33 -2 c13 -16 12 -17 -3 -4
-10 7 -18 15 -18 17 0 8 8 3 21 -13z m-56 -13 c-3 -5 -13 -10 -22 -10 -11 0
-8 -6 11 -21 27 -21 34 -39 15 -39 -5 0 -8 4 -4 9 3 5 1 12 -5 16 -5 3 -10 -1
-10 -9 0 -15 -10 -19 -27 -13 -5 1 -7 6 -5 10 1 5 -2 6 -7 2 -6 -3 -7 -13 -4
-23 6 -15 5 -15 -11 -3 -17 14 -17 16 1 29 17 13 17 14 0 23 -21 12 -12 32 11
25 10 -3 24 -1 32 4 20 13 33 13 25 0z m19 -26 c3 -8 2 -12 -4 -9 -6 3 -10 10
-10 16 0 14 7 11 14 -7z m39 1 c4 -8 3 -16 -1 -19 -4 -3 -9 4 -9 15 -2 23 3
25 10 4z m-10 -56 c-8 -8 -13 -7 -18 2 -5 8 -4 10 3 5 7 -4 12 -2 12 5 0 7 3
9 7 6 4 -4 2 -12 -4 -18z m27 -43 c-4 -4 -16 -4 -26 2 -16 9 -14 10 8 9 15 -1
23 -6 18 -11z m-66 -103 c8 -20 -8 -21 -26 -2 -16 17 -16 18 2 16 11 -1 22 -7
24 -14z m110 -43 c-6 -6 -10 -3 -10 10 0 13 4 16 10 10 7 -7 7 -13 0 -20z
m-19 -20 c4 -6 11 -8 16 -5 5 4 9 2 9 -4 0 -5 -9 -9 -19 -8 -11 0 -18 4 -15 8
2 4 -2 10 -8 12 -9 4 -10 6 -1 6 6 1 15 -4 18 -9z m-58 -36 c0 -10 -4 -11 -14
-2 -11 8 -12 7 -7 -6 5 -12 2 -15 -10 -10 -11 4 -13 11 -6 24 5 9 6 21 2 25
-4 4 2 2 14 -5 11 -7 21 -19 21 -26z m81 -81 c-2 -11 2 -17 10 -15 8 1 11 -2
7 -7 -7 -13 -35 -2 -35 13 0 12 9 26 17 26 2 0 3 -8 1 -17z m-58 -8 c0 -12
-19 -12 -23 0 -4 9 -1 12 9 8 7 -3 14 -7 14 -8z m97 -35 c-1 -11 -5 -20 -9
-20 -10 0 -10 4 -2 24 8 22 13 20 11 -4z m-92 -30 c4 -6 11 -8 16 -5 5 4 10 1
10 -4 1 -6 2 -17 3 -23 2 -17 -14 -27 -31 -21 -10 4 -11 9 -3 18 8 9 6 17 -5
29 -9 9 -12 16 -6 16 5 0 13 -5 16 -10z m120 -20 c3 -6 -1 -7 -9 -4 -18 7 -21
14 -7 14 6 0 13 -4 16 -10z m31 -115 c1 -8 -2 -15 -6 -15 -5 0 -8 9 -7 20 1
21 10 18 13 -5z m44 -99 c0 -2 -7 -7 -16 -10 -8 -3 -12 -2 -9 4 6 10 25 14 25
6z m-57 -43 c-4 -11 -3 -14 5 -9 7 4 12 2 12 -4 0 -7 -6 -10 -14 -7 -10 4 -14
0 -13 -14 1 -22 8 -24 25 -7 9 9 13 7 18 -6 4 -9 4 -20 0 -23 -3 -4 -6 1 -6
11 0 9 -4 15 -10 11 -5 -3 -7 -12 -3 -20 3 -8 0 -15 -6 -15 -7 0 -14 7 -17 15
-5 13 -9 13 -18 3 -6 -7 -10 -11 -9 -9 2 2 -2 10 -8 17 -12 15 6 58 20 49 5
-3 11 2 15 10 3 8 8 15 10 15 3 0 2 -7 -1 -17z m57 -23 c0 -5 -5 -10 -11 -10
-5 0 -7 5 -4 10 3 6 8 10 11 10 2 0 4 -4 4 -10z m-5 -70 c3 -6 -1 -7 -9 -4
-18 7 -21 14 -7 14 6 0 13 -4 16 -10z m36 -17 c13 -16 12 -17 -3 -4 -10 7 -18
15 -18 17 0 8 8 3 21 -13z m-64 -122 c11 -17 10 -18 -13 -7 -26 12 -32 26 -11
26 7 0 17 -8 24 -19z m66 -6 c-3 -9 -8 -14 -10 -11 -3 3 -2 9 2 15 9 16 15 13
8 -4z m8 -32 c-12 -20 -14 -14 -5 12 4 9 9 14 11 11 3 -2 0 -13 -6 -23z m39
-38 c-7 -8 -17 -15 -23 -15 -6 0 -2 7 9 15 25 19 30 19 14 0z m-19 -69 c-7 -8
-20 -13 -29 -11 -9 1 -23 -2 -30 -8 -9 -7 -11 -6 -6 7 4 10 14 15 30 12 13 -3
26 0 29 5 4 5 9 9 12 9 3 0 0 -6 -6 -14z"/>
<path d="M1660 5740 c5 -9 6 -21 2 -25 -4 -5 -1 -5 6 -1 7 4 10 11 7 16 -3 4
0 10 7 12 7 3 3 7 -10 10 -18 5 -20 3 -12 -12z"/>
<path d="M1876 4994 c-8 -20 0 -32 14 -18 5 5 5 15 1 22 -6 11 -10 10 -15 -4z"/>
<path d="M1333 6045 c0 -8 4 -15 9 -15 4 0 8 4 8 9 0 6 -4 12 -8 15 -5 3 -9
-1 -9 -9z"/>
<path d="M1304 6035 c4 -10 -1 -14 -17 -12 -17 2 -22 -3 -23 -24 -1 -14 -4
-31 -8 -37 -3 -6 -2 -13 4 -17 6 -4 8 -11 5 -16 -4 -5 0 -11 7 -14 16 -7 21
-45 6 -45 -6 0 -5 -6 3 -16 10 -13 10 -17 -1 -24 -7 -4 -20 -5 -29 -2 -9 3
-11 7 -4 9 7 3 9 11 6 19 -3 8 -1 14 5 14 16 0 8 45 -8 46 -8 1 -22 2 -30 3
-13 1 -13 3 -1 10 8 5 21 7 29 3 11 -4 13 -2 6 9 -4 8 -7 25 -6 39 2 19 1 22
-7 10 -5 -8 -7 -18 -5 -22 3 -4 0 -8 -7 -8 -7 0 -9 -3 -6 -7 4 -3 -1 -12 -11
-19 -14 -12 -15 -15 -3 -23 16 -10 25 -45 10 -35 -5 3 -7 10 -4 15 4 5 3 9 -2
9 -15 0 -30 -15 -44 -42 -8 -14 -27 -51 -42 -80 l-29 -53 157 -535 c229 -784
212 -732 238 -724 12 3 33 13 46 21 13 8 21 11 17 5 -4 -6 2 -8 14 -5 11 3 20
9 20 14 0 4 8 8 18 8 38 1 52 5 52 13 0 5 4 7 9 3 5 -3 12 -1 16 5 4 6 11 8
16 5 5 -4 9 -1 9 4 0 12 -27 10 -47 -2 -7 -5 -13 -5 -13 0 0 4 -5 1 -10 -7 -7
-10 -10 -11 -10 -2 0 13 14 21 47 27 10 2 20 4 22 4 2 1 -3 9 -12 19 -10 10
-14 22 -10 25 3 4 2 7 -3 7 -5 0 -10 9 -11 20 -1 11 2 18 6 16 4 -3 13 0 21 6
13 8 12 9 -2 5 -9 -3 -22 2 -30 10 -11 15 -10 16 7 10 19 -7 19 -7 1 8 -10 8
-23 12 -29 8 -5 -3 -7 0 -5 8 3 8 11 13 17 11 7 -1 10 2 6 8 -3 5 -1 10 4 10
6 0 11 5 11 12 0 6 -9 3 -20 -7 -23 -21 -26 -14 -7 16 10 17 9 23 -1 26 -6 3
-10 9 -7 13 3 5 12 7 20 3 8 -3 15 -1 15 5 0 11 -25 10 -36 -1 -16 -16 -26 -5
-10 12 15 16 15 19 1 31 -8 7 -14 20 -13 29 2 9 -4 17 -12 17 -32 3 -34 5 -17
15 13 8 22 7 32 -1 9 -8 15 -8 20 0 4 6 3 9 -2 8 -5 -2 -22 9 -38 25 -16 15
-34 27 -40 27 -5 0 -3 5 5 10 12 8 10 9 -7 7 -12 -2 -26 -7 -30 -12 -5 -4 -2
-5 6 0 10 6 12 4 6 -5 -5 -8 -4 -11 2 -7 5 3 10 0 10 -8 0 -8 -4 -15 -9 -15
-5 0 -6 -5 -2 -11 4 -8 9 -7 16 2 7 11 8 10 4 -4 -3 -10 -2 -16 3 -12 5 3 8
-3 6 -12 -1 -10 1 -25 6 -34 6 -11 3 -15 -9 -14 -9 0 -17 5 -17 10 0 6 4 9 8
7 5 -1 6 2 2 8 -4 6 -12 10 -18 9 -7 -1 -19 -1 -27 0 -13 1 -13 3 -1 10 8 5
21 6 30 3 14 -5 14 -3 3 11 -8 9 -21 13 -30 10 -14 -5 -13 -3 2 9 18 14 18 16
-4 46 -17 23 -30 31 -44 27 -20 -5 -20 -5 0 6 28 14 30 59 3 54 -10 -2 -22 1
-25 7 -5 7 -2 8 5 3 9 -5 12 -2 9 11 -2 11 -10 18 -16 17 -7 -2 -12 2 -12 7 0
13 13 13 27 -1 8 -8 11 -4 10 15 -1 14 -7 24 -13 22 -6 -2 -10 5 -9 16 2 25
31 44 33 23 1 -8 3 -22 4 -30 1 -8 6 -12 11 -8 5 3 4 -4 -2 -16 -9 -17 -9 -21
1 -19 12 3 17 -58 7 -91 -2 -7 1 -15 7 -18 7 -2 11 7 9 27 -2 19 2 30 11 30 7
0 11 -8 9 -20 -2 -11 1 -20 7 -20 6 0 7 8 3 18 -5 14 -4 15 7 4 11 -11 9 -17
-12 -33 -14 -12 -19 -17 -11 -13 7 4 23 7 34 8 11 1 22 7 23 14 1 7 0 8 -3 2
-2 -5 -8 -10 -13 -10 -11 0 -7 33 5 43 6 5 3 7 -7 3 -10 -3 -21 1 -26 10 -5 9
-13 15 -18 14 -5 -1 -10 4 -12 12 -2 9 0 8 7 -2 6 -8 11 -11 11 -6 0 5 7 3 15
-4 9 -7 18 -10 22 -6 3 3 0 6 -8 6 -12 0 -11 2 1 11 13 9 13 10 0 8 -30 -3
-38 1 -35 19 6 28 6 28 16 7 l9 -20 -3 20 c-1 11 4 26 13 34 8 7 2 6 -13 -4
-16 -9 -32 -13 -35 -9 -4 4 -1 9 6 11 6 3 12 9 12 14 0 6 -4 8 -9 5 -5 -3 -15
2 -22 11 -12 15 -12 16 5 10 17 -7 17 -6 5 9 -12 15 -12 16 8 10 12 -4 24 -2
28 3 4 7 -1 8 -11 4 -13 -5 -15 -3 -9 7 5 8 4 11 -3 6 -6 -3 -16 3 -22 14 -6
11 -15 18 -21 15 -5 -4 -9 -2 -9 3 0 5 9 12 20 15 11 3 20 11 19 19 0 10 -2
10 -6 1 -6 -17 -28 -16 -43 2 -15 18 1 20 18 3 9 -9 12 -9 12 0 0 7 -5 12 -12
12 -6 0 -8 3 -5 7 4 3 -1 15 -10 26 -17 20 -17 20 1 14 20 -8 46 8 46 27 0 6
-5 4 -10 -5 -11 -19 -71 -20 -77 -3 -2 7 10 10 34 8 27 -2 32 -1 18 5 -11 5
-26 6 -32 4 -7 -3 -13 0 -13 6 0 6 6 11 14 11 8 0 17 4 21 10 3 5 -7 8 -25 5
-21 -2 -30 1 -30 11 0 9 8 13 23 11 12 -2 16 -2 9 0 -7 3 -10 9 -7 14 3 5 -1
6 -9 3 -11 -4 -14 0 -11 15 2 12 7 26 10 31 3 5 0 7 -9 4 -10 -4 -13 0 -11 13
2 10 4 22 4 26 1 5 7 5 14 2 6 -4 4 0 -6 9 -11 8 -26 12 -34 9 -13 -5 -13 -3
-2 15 7 11 17 19 23 18 6 -2 8 -1 3 1 -4 3 -4 10 -1 16 5 8 2 8 -7 0 -20 -20
-34 -15 -16 5 18 20 7 42 -22 42 -14 0 -14 1 -1 10 8 5 10 10 4 10 -13 0 -13
54 -1 66 12 13 8 24 -10 24 -14 0 -15 -2 -4 -9 8 -5 9 -11 3 -15 -5 -3 -15 1
-22 9 -10 12 -9 16 4 21 9 3 16 11 16 17 0 6 -3 8 -6 4 -7 -7 -44 24 -44 36 0
5 6 5 13 -1 9 -8 17 -8 27 0 12 8 12 9 -2 4 -13 -4 -22 3 -33 24 -9 18 -11 30
-5 30 6 0 15 -10 21 -22 10 -23 10 -23 5 -1 -2 12 -1 24 3 26 3 2 1 2 -6 1 -7
-2 -19 4 -28 12 -17 17 -5 51 21 61 12 4 12 8 -3 20 -10 8 -13 12 -6 9 15 -8
27 10 13 19 -6 4 -8 11 -5 16 4 5 1 9 -5 9 -7 0 -10 -7 -6 -15z m-6 -36 c8
-12 9 -18 3 -14 -6 3 -11 1 -11 -4 0 -23 -16 -10 -18 14 -2 31 9 32 26 4z m21
-210 c-9 -5 -6 -15 9 -34 14 -17 20 -37 17 -56 -3 -23 2 -32 21 -42 23 -12 24
-15 10 -26 -12 -10 -13 -17 -6 -26 8 -9 8 -15 0 -20 -7 -4 -7 -13 1 -27 6 -11
7 -18 2 -15 -5 4 -10 0 -10 -8 0 -11 4 -12 14 -4 7 6 11 15 8 19 -3 5 0 12 6
15 7 5 9 -3 6 -23 -3 -17 -2 -33 1 -37 11 -11 10 -35 -1 -35 -7 0 -5 -5 3 -10
8 -5 10 -10 5 -10 -6 0 -11 -9 -11 -21 0 -14 5 -19 18 -16 15 4 16 2 7 -14 -5
-11 -15 -17 -21 -13 -6 4 -9 1 -6 -7 3 -8 10 -13 15 -12 5 1 22 -9 37 -22 26
-22 26 -24 7 -30 -12 -3 -21 -11 -21 -17 0 -6 3 -8 7 -5 3 4 12 2 20 -4 10 -9
10 -15 2 -25 -9 -11 -8 -14 0 -14 7 0 9 -4 6 -10 -3 -5 -1 -10 6 -10 18 0 1
-13 -21 -17 -11 -2 -20 2 -20 8 0 5 -5 7 -12 3 -6 -4 -8 -3 -5 4 12 18 -4 44
-24 39 -28 -7 -23 2 6 13 22 8 36 32 18 29 -22 -4 -33 3 -32 19 0 11 2 12 6 4
4 -9 8 -10 18 -2 9 8 15 8 20 0 3 -5 10 -10 15 -10 6 0 2 9 -7 19 -9 11 -20
18 -25 15 -4 -3 -15 1 -23 10 -9 9 -11 17 -5 21 5 3 10 11 10 16 0 6 -6 7 -12
2 -20 -12 -48 -14 -48 -4 0 6 9 8 19 6 23 -4 41 14 37 38 -2 19 -16 36 -16 20
0 -5 -6 -10 -14 -10 -7 0 -13 7 -11 16 1 9 -3 20 -9 24 -7 6 -5 7 6 4 9 -3 19
-3 22 0 8 8 -33 42 -47 39 -7 -1 -9 -1 -5 1 4 2 5 10 2 18 -3 7 0 16 5 20 6 3
9 11 5 16 -3 6 -11 4 -17 -5 -9 -12 -16 -13 -27 -5 -12 9 -12 10 3 5 12 -4 17
-2 14 6 -2 7 0 21 5 31 8 16 7 18 -11 12 -12 -4 -21 -2 -21 4 0 6 3 10 8 10
20 -3 32 2 26 12 -4 8 0 8 15 0 24 -13 28 -6 7 14 -7 8 -17 11 -21 7 -5 -4 -5
-1 0 7 5 9 3 12 -6 9 -8 -3 -13 -14 -12 -24 1 -10 0 -13 -3 -6 -3 6 -10 12
-15 12 -6 0 -7 -6 -3 -12 4 -7 3 -9 -1 -5 -13 12 -15 36 -3 44 7 3 8 1 4 -5
-4 -7 -3 -12 3 -12 15 0 23 18 11 25 -8 5 -8 11 0 20 7 8 8 20 4 26 -5 9 -10
5 -16 -11 -5 -12 -11 -20 -14 -17 -3 3 -1 15 6 26 11 22 6 41 -10 41 -5 0 -7
-7 -4 -15 7 -17 -21 -21 -31 -5 -3 5 0 7 9 4 11 -4 14 0 11 15 -3 18 -1 20 15
11 13 -7 21 -6 30 5 11 14 15 14 32 -2 13 -12 15 -19 7 -24z m-74 -69 c3 -5 1
-10 -4 -10 -6 0 -11 5 -11 10 0 6 2 10 4 10 3 0 8 -4 11 -10z m45 -194 c0 -3
-4 -8 -10 -11 -5 -3 -10 -1 -10 4 0 6 5 11 10 11 6 0 10 -2 10 -4z m50 -10 c0
-2 -7 -7 -16 -10 -8 -3 -12 -2 -9 4 6 10 25 14 25 6z m-14 -72 c-2 -13 -5 -27
-9 -30 -3 -3 -4 7 -2 23 2 15 -2 35 -9 43 -9 13 -9 13 6 2 9 -7 15 -24 14 -38z
m44 -12 c0 -5 -7 -9 -15 -9 -8 0 -12 4 -9 9 3 4 9 8 15 8 5 0 9 -4 9 -8z m7
-78 c-3 -3 -12 -4 -19 -1 -8 3 -5 6 6 6 11 1 17 -2 13 -5z m118 -146 c-3 -7
-19 -14 -36 -14 -29 -2 -35 5 -7 10 25 3 37 17 32 34 -5 16 -5 16 5 0 6 -9 9
-22 6 -30z m-80 -6 c-3 -3 -11 0 -18 7 -9 10 -8 11 6 5 10 -3 15 -9 12 -12z
m12 -48 c-4 -16 -5 -15 -6 3 -1 17 -6 21 -18 17 -15 -5 -16 -4 -3 5 19 13 33
-1 27 -25z m73 11 c7 -9 8 -15 2 -15 -5 0 -12 7 -16 15 -3 8 -4 15 -2 15 2 0
9 -7 16 -15z m-110 -25 c0 -5 -2 -10 -4 -10 -3 0 -8 5 -11 10 -3 6 -1 10 4 10
6 0 11 -4 11 -10z m124 -26 c3 -8 2 -12 -4 -9 -6 3 -10 10 -10 16 0 14 7 11
14 -7z m-68 -76 c3 -4 -1 -5 -10 -4 -8 1 -18 5 -22 8 -3 4 1 5 10 4 8 -1 18
-5 22 -8z m19 -18 c-3 -5 -12 -10 -18 -10 -7 0 -6 4 3 10 19 12 23 12 15 0z
m33 -61 c19 -30 8 -34 -12 -4 -9 14 -13 25 -9 25 5 0 14 -9 21 -21z m-50 -29
c-7 -10 -14 -17 -17 -15 -4 4 18 35 25 35 2 0 -1 -9 -8 -20z m128 6 c15 -16
18 -26 6 -26 -4 0 -13 9 -20 20 -14 23 -7 26 14 6z m-86 -14 c0 -5 -7 -9 -15
-9 -8 0 -12 4 -9 9 3 4 9 8 15 8 5 0 9 -4 9 -8z m112 -55 c-8 -10 -6 -16 9
-25 16 -10 17 -15 7 -26 -7 -8 -16 -12 -20 -9 -5 2 -8 0 -8 -5 0 -5 11 -14 25
-20 27 -12 32 -27 13 -38 -6 -4 -8 -3 -5 3 10 17 -19 36 -38 26 -15 -9 -15
-11 1 -24 16 -12 17 -12 11 4 -5 13 -3 17 5 15 7 -3 13 -11 14 -19 0 -8 2 -18
4 -24 1 -5 3 -17 4 -25 0 -8 7 -14 14 -12 6 1 11 -1 11 -5 -1 -5 -1 -10 1 -13
9 -25 6 -80 -6 -84 -15 -6 -47 45 -50 76 -2 25 -24 49 -38 41 -8 -4 -8 -2 1 7
18 19 -15 54 -36 37 -11 -7 -10 -4 2 10 12 13 14 23 7 26 -6 3 -5 4 2 3 7 -2
13 -9 13 -16 0 -7 5 -15 11 -17 14 -5 14 30 0 40 -7 6 -6 7 4 5 8 -3 23 4 33
14 21 22 19 22 -27 3 -27 -12 -35 -12 -34 -3 2 8 -5 12 -17 11 -11 -1 -14 0
-7 3 6 3 9 11 5 17 -3 6 4 3 18 -6 26 -19 43 -22 34 -7 -4 6 -1 9 6 8 7 -2 14
3 15 10 1 6 2 17 3 22 0 6 6 10 12 10 8 0 8 -4 1 -13z m-91 -70 c-6 -8 -7 -18
-3 -22 4 -5 1 -5 -6 -1 -10 6 -10 11 -1 22 6 8 14 14 16 14 3 0 0 -6 -6 -13z
m39 -117 c0 -4 -7 -7 -15 -6 -23 3 -26 12 -5 13 11 1 20 -2 20 -7z m25 -40
c-3 -5 -12 -10 -18 -10 -7 0 -6 4 3 10 19 12 23 12 15 0z m10 -20 c-3 -5 -2
-10 4 -10 6 0 15 -9 21 -19 7 -14 6 -19 -3 -17 -23 3 -35 16 -32 34 5 23 4 22
11 22 3 0 2 -4 -1 -10z"/>
<path d="M1280 5805 c-10 -12 -10 -15 0 -15 8 0 10 -3 7 -7 -4 -3 0 -14 8 -23
14 -16 14 -18 0 -24 -9 -3 -13 -11 -9 -17 4 -8 9 -7 15 2 7 11 9 11 9 -2 0 -9
6 -21 13 -27 9 -8 12 -4 14 15 0 16 -2 21 -7 14 -5 -10 -9 -9 -13 3 -4 9 -1
16 5 16 6 0 2 8 -10 18 -16 14 -18 22 -10 30 8 8 9 15 2 22 -8 8 -15 6 -24 -5z"/>
<path d="M1313 5644 c3 -4 2 -16 -4 -27 -7 -11 -7 -17 -1 -13 5 3 15 -1 21 -8
8 -10 9 -16 1 -21 -15 -9 -12 -23 9 -34 15 -9 18 -7 17 12 -1 12 2 28 7 35 7
9 5 11 -7 6 -13 -5 -15 -2 -10 12 4 11 11 24 15 30 5 6 3 11 -6 11 -8 0 -12
-4 -9 -9 3 -4 0 -8 -6 -8 -6 0 -8 -5 -4 -12 4 -7 3 -8 -4 -4 -6 4 -9 13 -5 21
3 8 -1 15 -8 15 -7 0 -9 -3 -6 -6z"/>
<path d="M1375 5520 c-3 -5 -3 -10 1 -10 4 0 -1 -9 -11 -20 -10 -11 -13 -20
-7 -20 7 0 12 6 12 13 0 9 2 9 9 -1 7 -11 9 -11 14 2 3 8 2 18 -4 21 -5 4 -7
11 -4 16 4 5 4 9 1 9 -3 0 -8 -4 -11 -10z"/>
<path d="M1406 5322 c-3 -5 1 -9 9 -9 8 0 12 4 9 9 -3 4 -7 8 -9 8 -2 0 -6 -4
-9 -8z"/>
<path d="M1418 5284 c-4 -3 0 -21 9 -38 11 -21 18 -26 21 -16 3 7 0 16 -7 18
-8 3 -7 8 5 16 13 10 14 15 4 21 -9 5 -11 4 -6 -3 4 -7 3 -12 -3 -12 -5 0 -11
5 -13 11 -2 5 -7 7 -10 3z"/>
<path d="M1573 4730 c1 -15 6 -19 22 -14 16 4 17 3 5 -5 -10 -8 -12 -13 -4
-18 6 -5 10 -16 8 -26 -3 -24 31 -82 40 -68 4 6 2 11 -3 11 -6 0 -11 5 -11 11
0 5 4 8 8 5 16 -10 6 33 -12 53 -10 11 -15 24 -12 29 3 6 -5 17 -18 26 -23 15
-25 15 -23 -4z m60 -86 c-7 -18 -12 -13 -18 16 -3 18 -2 20 10 10 8 -6 11 -18
8 -26z"/>
<path d="M1585 4590 c3 -5 8 -10 11 -10 2 0 4 5 4 10 0 6 -5 10 -11 10 -5 0
-7 -4 -4 -10z"/>
<path d="M1470 5960 c0 -5 5 -10 11 -10 5 0 7 5 4 10 -3 6 -8 10 -11 10 -2 0
-4 -4 -4 -10z"/>
<path d="M1349 5943 c-13 -16 -12 -17 4 -4 16 13 21 21 13 21 -2 0 -10 -8 -17
-17z"/>
<path d="M1295 5941 c-9 -15 15 -25 28 -12 9 9 7 10 -7 5 -13 -5 -17 -4 -12 4
4 7 5 12 2 12 -3 0 -7 -4 -11 -9z"/>
<path d="M1516 5939 c3 -5 9 -7 14 -4 4 3 11 0 13 -5 3 -6 4 -5 3 1 -1 7 -10
13 -19 15 -9 1 -15 -2 -11 -7z"/>
<path d="M1600 5946 c0 -3 9 -10 20 -16 11 -6 20 -8 20 -6 0 3 -9 10 -20 16
-11 6 -20 8 -20 6z"/>
<path d="M3658 5804 c-66 -152 -475 -1111 -495 -1160 -4 -10 84 -52 120 -58 8
-1 22 -8 31 -15 21 -18 20 -3 -1 23 -18 21 -18 21 3 3 11 -9 24 -14 28 -10 4
5 6 -1 4 -12 -2 -12 3 -21 15 -23 9 -2 17 1 17 7 0 6 -8 7 -17 4 -16 -6 -16
-5 -4 11 10 12 16 14 21 5 4 -6 13 -8 19 -5 6 4 14 0 17 -8 7 -18 40 -21 50
-5 4 8 0 9 -15 4 -11 -3 -21 -2 -21 3 0 11 30 26 45 23 6 -1 4 4 -4 11 -11 10
-14 10 -18 1 -6 -16 -43 -17 -43 -2 0 6 -9 9 -20 6 -11 -3 -18 0 -17 7 1 6 -8
11 -20 10 -12 0 -21 3 -20 7 1 4 -7 14 -17 22 -19 14 -19 14 0 12 10 0 20 -5
22 -10 3 -10 42 -28 48 -22 2 2 -6 14 -18 26 l-21 23 24 -7 c21 -7 22 -6 11 8
-8 9 -21 13 -30 11 -12 -4 -11 -2 2 7 15 9 21 9 24 1 2 -7 8 -9 13 -6 6 3 4
16 -6 30 -8 13 -11 24 -5 24 5 0 10 -4 10 -10 0 -5 7 -10 16 -10 14 0 14 3 4
15 -17 21 -13 25 40 34 3 1 -2 5 -10 11 -9 5 -19 5 -26 -1 -17 -14 -30 9 -15
24 9 9 11 7 6 -8 -5 -15 0 -12 19 10 17 20 22 32 14 36 -9 6 -8 12 2 24 10 13
15 13 21 3 7 -10 9 -9 9 5 0 9 4 17 10 17 5 0 7 -8 3 -17 -7 -19 -5 -18 17 11
9 12 10 17 3 12 -9 -5 -11 -2 -7 7 3 8 1 18 -5 22 -7 3 -8 0 -5 -9 4 -10 1
-16 -7 -16 -7 0 -9 3 -6 7 4 3 -1 12 -11 20 -16 13 -16 14 0 9 11 -3 19 2 23
15 5 15 12 18 28 13 22 -6 22 -6 -1 16 -17 15 -20 26 -13 33 7 7 14 7 24 -1 8
-7 17 -8 22 -4 4 4 3 -2 -2 -13 -6 -11 -9 -28 -8 -37 3 -14 0 -16 -15 -8 -17
9 -30 4 -30 -11 0 -4 8 -6 18 -4 9 1 25 -2 34 -7 14 -7 16 -5 11 8 -5 13 -3
15 8 9 11 -7 11 -5 -1 10 -14 17 -13 18 3 12 16 -6 22 3 18 27 -1 5 5 6 14 3
8 -4 15 -2 15 2 0 5 -7 11 -15 15 -8 3 -15 10 -15 16 0 12 22 9 32 -5 4 -5 10
-6 15 -2 8 9 -17 28 -28 21 -4 -2 -10 0 -14 6 -6 9 7 14 28 11 4 0 7 4 7 10 0
6 -7 8 -16 5 -8 -3 -12 -2 -9 4 3 5 -1 7 -9 4 -8 -3 -13 -14 -11 -26 4 -16 2
-18 -10 -8 -8 7 -13 16 -10 20 3 5 2 11 -3 13 -4 3 -13 -6 -19 -19 -9 -19 -9
-24 0 -23 22 3 37 -1 37 -9 0 -13 -33 -10 -55 4 -11 8 -14 14 -8 14 7 0 18 12
25 28 9 16 20 26 31 24 20 -3 23 14 5 21 -8 2 -2 10 14 17 15 7 25 17 22 22
-3 4 -9 6 -14 3 -19 -12 -19 29 0 42 11 8 18 19 15 24 -4 5 -1 10 4 10 26 3
30 4 37 12 4 4 2 7 -5 7 -7 0 -9 5 -6 11 9 14 34 -21 27 -39 -4 -11 -6 -11
-14 0 -7 10 -8 8 -4 -5 3 -10 2 -16 -2 -13 -5 3 -9 -1 -10 -9 -1 -8 -3 -22 -4
-30 -1 -8 -5 -12 -10 -9 -5 3 -7 1 -6 -5 2 -5 -6 -16 -17 -24 -18 -14 -18 -15
8 -12 26 3 34 -4 20 -18 -3 -4 -12 -2 -18 3 -9 7 -14 7 -18 -2 -9 -25 40 -17
52 8 6 13 15 24 21 24 18 0 11 18 -9 25 -13 4 -18 12 -14 21 5 13 7 13 15 2 7
-10 8 -8 6 6 -2 10 3 21 11 24 8 3 11 0 7 -7 -5 -7 -1 -9 10 -4 11 4 15 3 10
-5 -3 -6 -2 -13 3 -16 18 -11 5 24 -15 40 -19 15 -19 16 1 9 39 -14 64 -13 77
3 11 13 11 14 -2 7 -24 -15 -42 -15 -72 1 -33 17 -36 24 -7 19 12 -3 19 -2 15
2 -3 4 1 15 10 25 16 17 18 17 31 0 13 -16 13 -15 4 3 -9 21 9 62 22 48 4 -3
7 -2 7 4 0 6 -12 10 -27 10 -16 0 -22 -2 -15 -4 6 -3 12 -9 12 -14 0 -21 -30
6 -42 36 -6 19 -15 32 -20 29 -4 -3 -8 0 -8 6 0 7 8 9 19 5 20 -6 21 3 6 37
-4 10 -11 15 -16 12 -5 -3 -9 0 -9 5 0 18 18 12 34 -11 9 -12 16 -20 17 -18 8
57 8 61 -6 50 -12 -10 -16 -9 -21 4 -4 9 -4 20 0 23 3 4 6 -2 6 -12 0 -13 3
-15 13 -6 8 6 17 8 20 4 4 -3 7 -1 7 5 0 7 -8 12 -17 12 -15 0 -14 2 3 15 22
17 12 20 -19 4 -21 -10 -21 -10 -2 6 23 19 41 14 37 -10 -2 -11 1 -14 8 -10 9
6 9 2 0 -15 -6 -12 -9 -24 -7 -27 9 -8 29 38 23 52 -3 8 0 17 6 21 6 4 9 3 6
-2 -10 -17 11 -56 28 -50 9 3 12 2 9 -5 -4 -5 -16 -7 -27 -3 -15 4 -18 3 -13
-6 6 -9 4 -11 -5 -5 -8 5 -11 4 -6 -3 4 -7 -1 -10 -14 -7 -23 4 -27 -10 -5
-19 8 -3 15 -11 15 -17 0 -8 -5 -7 -17 2 -14 12 -16 12 -8 0 6 -10 4 -12 -6
-6 -11 7 -11 5 1 -10 9 -12 10 -16 2 -11 -7 4 -12 4 -11 -1 1 -4 1 -15 0 -23
-1 -13 -2 -13 -12 0 -8 12 -10 12 -7 1 2 -8 13 -16 25 -17 24 -4 38 17 42 64
1 8 6 10 14 6 9 -6 9 -5 0 8 -13 15 -8 28 9 28 5 0 6 -6 2 -12 -4 -7 -4 -10 1
-6 14 13 35 -12 26 -31 -8 -14 -5 -17 17 -18 15 0 19 1 10 4 -21 5 -24 23 -5
23 8 0 7 4 -3 10 -8 5 -11 10 -5 10 5 0 4 5 -3 12 -14 14 -16 32 -3 23 5 -3
13 0 17 6 4 7 3 9 -3 6 -6 -4 -16 0 -23 8 -7 8 -16 12 -21 9 -5 -3 -9 0 -9 6
0 7 6 10 13 7 8 -3 20 -1 28 4 9 5 10 9 2 9 -7 0 -10 10 -7 25 2 14 0 25 -5
25 -6 0 -8 -9 -6 -20 2 -12 0 -18 -6 -15 -5 4 -7 11 -4 16 4 5 -2 9 -12 10
-15 0 -14 2 4 9 22 9 23 40 1 40 -6 0 -6 -6 1 -14 11 -14 6 -15 -27 -7 -2 1 3
10 11 22 15 21 12 59 -5 59 -6 0 -8 6 -5 14 3 7 -2 24 -11 37 -8 12 -17 33
-18 45 -1 12 -11 41 -21 64 l-18 43 -47 -109z m82 -159 c0 -2 -6 -8 -13 -14
-10 -8 -14 -7 -14 2 0 8 6 14 14 14 7 0 13 -1 13 -2z m17 -57 c2 -17 0 -19 -7
-8 -5 8 -6 18 -4 22 8 12 10 10 11 -14z m-129 -133 c-3 -3 -9 2 -12 12 -6 14
-5 15 5 6 7 -7 10 -15 7 -18z m32 -14 c0 -5 -7 -12 -16 -15 -14 -5 -15 -4 -4
9 14 17 20 19 20 6z m87 -38 c-11 -11 -17 -13 -17 -5 0 7 5 12 11 12 6 0 8 7
4 18 -5 14 -4 15 6 4 11 -10 10 -15 -4 -29z m-99 -13 c-7 -10 -14 -18 -15 -16
-6 6 9 36 18 36 5 0 4 -9 -3 -20z m29 4 c-3 -3 7 -19 23 -34 l28 -28 -26 -25
c-20 -19 -31 -24 -42 -17 -8 5 -23 7 -34 4 -12 -4 -16 -2 -12 5 4 6 16 11 27
11 10 0 18 3 17 8 -3 14 14 42 23 36 5 -3 9 -1 9 5 0 19 -25 17 -35 -2 -5 -11
-17 -22 -25 -24 -10 -3 -9 -1 3 7 9 6 17 17 17 23 0 13 19 37 29 37 2 0 2 -3
-2 -6z m-68 -78 c-3 -3 -11 5 -18 17 -13 21 -12 21 5 5 10 -10 16 -20 13 -22z
m-26 -11 c-7 -21 -12 -19 -10 4 0 11 5 18 9 15 4 -3 5 -11 1 -19z m37 -31 c0
-2 -7 -4 -15 -4 -8 0 -15 4 -15 10 0 5 7 7 15 4 8 -4 15 -8 15 -10z m-66 -12
c3 -5 -1 -9 -9 -9 -8 0 -12 4 -9 9 3 4 7 8 9 8 2 0 6 -4 9 -8z m11 -31 c3 -5
2 -12 -3 -15 -5 -3 -9 1 -9 9 0 17 3 19 12 6z m-61 -49 c3 -5 -1 -9 -9 -9 -8
0 -12 4 -9 9 3 4 7 8 9 8 2 0 6 -4 9 -8z m62 -21 c-4 -6 -13 -11 -19 -10 -9 0
-9 2 1 6 6 2 12 9 12 14 0 6 -5 7 -12 3 -7 -5 -8 -3 -3 5 5 9 11 9 17 3 6 -6
7 -15 4 -21z m82 -3 c-2 -6 -12 -12 -22 -14 -14 -2 -15 0 -5 12 14 17 32 19
27 2z m-123 -46 c-3 -3 -11 0 -18 7 -9 10 -8 11 6 5 10 -3 15 -9 12 -12z m-18
-27 c0 -8 -4 -15 -9 -15 -10 0 -11 14 -1 23 9 10 10 9 10 -8z m-17 -49 c0 -6
-5 -3 -11 7 -6 9 -15 14 -21 11 -7 -4 -8 -2 -4 5 9 14 36 -3 36 -23z m87 -27
c-1 -10 -9 -20 -19 -22 -14 -4 -16 -2 -8 13 5 9 7 19 5 22 -3 3 1 5 9 5 8 0
14 -8 13 -18z m-92 -9 c3 -5 1 -10 -4 -10 -6 0 -11 5 -11 10 0 6 2 10 4 10 3
0 8 -4 11 -10z m-65 -93 c0 -2 -9 -12 -19 -21 -14 -13 -21 -14 -27 -5 -4 7 -3
10 3 6 6 -4 16 0 23 8 12 14 20 19 20 12z m37 -3 c-3 -3 -12 -4 -19 -1 -8 3
-5 6 6 6 11 1 17 -2 13 -5z m-37 -59 c0 -8 -4 -15 -10 -15 -5 0 -7 7 -4 15 4
8 8 15 10 15 2 0 4 -7 4 -15z m-34 -67 c4 -6 3 -8 -4 -4 -6 3 -15 -2 -21 -11
-6 -10 -11 -13 -11 -7 0 9 19 34 26 34 2 0 6 -5 10 -12z"/>
<path d="M3680 5340 c-17 -11 -22 -38 -8 -47 7 -3 8 -1 4 5 -4 7 -1 12 7 12
16 0 31 27 19 34 -5 3 -14 1 -22 -4z m15 -10 c-3 -5 -12 -10 -18 -10 -7 0 -6
4 3 10 19 12 23 12 15 0z"/>
<path d="M1536 5878 c3 -5 10 -6 15 -3 13 9 11 12 -6 12 -8 0 -12 -4 -9 -9z"/>
<path d="M1263 5845 c0 -8 4 -12 9 -9 5 3 6 10 3 15 -9 13 -12 11 -12 -6z"/>
<path d="M1555 5850 c3 -5 8 -10 11 -10 2 0 4 5 4 10 0 6 -5 10 -11 10 -5 0
-7 -4 -4 -10z"/>
<path d="M1357 5836 c-17 -13 -17 -14 1 -18 12 -4 18 1 18 13 0 11 0 19 -1 19
0 0 -8 -7 -18 -14z"/>
<path d="M1550 5816 c0 -2 8 -10 18 -17 15 -13 16 -12 3 4 -13 16 -21 21 -21
13z"/>
<path d="M1570 5759 c0 -5 4 -8 9 -4 6 3 14 -3 20 -12 6 -10 11 -13 11 -7 0
12 -20 34 -32 34 -4 0 -8 -5 -8 -11z"/>
<path d="M1575 5729 c-4 -6 -5 -12 -2 -15 2 -3 7 2 10 11 7 17 1 20 -8 4z"/>
<path d="M1381 5716 c-9 -10 -9 -16 -1 -21 6 -4 14 -4 17 -1 4 3 1 6 -7 6 -10
0 -10 3 0 15 7 8 10 15 7 15 -2 0 -10 -6 -16 -14z"/>
<path d="M1414 5703 c3 -6 -2 -16 -11 -22 -16 -9 -16 -10 3 -8 21 1 26 19 9
34 -4 4 -5 3 -1 -4z"/>
<path d="M1590 5701 c0 -10 29 -36 34 -30 1 2 -6 12 -16 22 -10 9 -18 13 -18
8z"/>
<path d="M1690 5680 c0 -6 -7 -10 -16 -8 -10 2 -19 -3 -22 -11 -3 -10 0 -12
12 -8 9 4 14 3 11 -2 -3 -5 -1 -12 5 -16 15 -9 12 -25 -5 -25 -8 0 -15 -5 -15
-11 0 -5 4 -7 10 -4 5 3 24 -1 41 -10 19 -10 30 -12 27 -5 -2 6 -7 11 -12 10
-13 -2 -26 22 -18 35 4 5 7 23 8 38 2 25 1 26 -12 10 -13 -17 -14 -17 -8 0 3
9 3 17 0 17 -3 0 -6 -5 -6 -10z m10 -40 c0 -5 -2 -10 -4 -10 -3 0 -8 5 -11 10
-3 6 -1 10 4 10 6 0 11 -4 11 -10z"/>
<path d="M1576 5658 c3 -5 10 -6 15 -3 13 9 11 12 -6 12 -8 0 -12 -4 -9 -9z"/>
<path d="M1626 5645 c-9 -26 -7 -32 5 -12 6 10 9 21 6 23 -2 3 -7 -2 -11 -11z"/>
<path d="M1647 5626 c-4 -10 -1 -13 8 -9 8 3 12 9 9 14 -7 12 -11 11 -17 -5z"/>
<path d="M4350 5598 c-74 -33 -94 -41 -105 -43 -5 0 -9 -6 -8 -12 1 -6 -6 -9
-17 -6 -12 3 -20 0 -20 -6 0 -7 5 -9 12 -5 7 4 8 3 4 -5 -6 -9 -11 -9 -23 0
-12 10 -16 10 -24 -2 -5 -8 -9 -10 -9 -6 0 4 -10 2 -22 -5 -13 -7 -26 -11 -30
-10 -3 1 -12 -5 -18 -13 -7 -8 -9 -15 -6 -15 4 0 0 -7 -9 -16 -20 -21 -32 -10
-14 13 12 17 11 16 -7 0 -19 -18 -19 -18 0 -33 23 -17 17 -18 -19 -4 -33 13
-50 4 -33 -17 11 -14 10 -15 -9 -9 -12 4 -24 2 -28 -4 -3 -5 -1 -10 5 -10 6 0
8 -5 4 -12 -5 -9 -2 -9 9 1 13 10 20 11 30 2 9 -7 17 -7 24 0 7 7 14 1 23 -21
10 -24 15 -28 27 -19 7 7 16 9 19 6 3 -3 -5 -11 -17 -18 -23 -12 -23 -12 -4
-20 20 -9 20 -9 0 -8 -38 2 -39 -1 -4 -27 19 -15 26 -24 15 -20 -14 5 -17 2
-12 -9 3 -10 2 -13 -4 -10 -6 4 -9 14 -8 22 2 9 -2 18 -8 20 -11 4 -12 -25 -1
-43 12 -20 -6 -25 -30 -9 -25 17 -30 9 -10 -16 7 -9 17 -14 24 -12 6 2 14 -1
18 -6 4 -7 0 -8 -11 -4 -13 5 -15 3 -9 -8 6 -11 5 -12 -6 -1 -23 21 -33 13
-13 -10 19 -23 19 -23 -2 -5 -11 9 -23 14 -27 11 -3 -4 3 -14 13 -23 15 -12
17 -20 10 -31 -5 -8 -10 -10 -10 -4 0 6 -7 11 -15 11 -23 0 -18 -16 8 -27 l22
-9 -22 0 c-13 -1 -23 4 -23 10 0 5 -5 7 -12 3 -8 -5 -2 -15 18 -32 28 -24 28
-24 2 -9 -15 9 -29 13 -33 8 -3 -5 4 -12 14 -16 14 -4 18 -11 14 -23 -6 -15
-5 -16 13 -2 18 14 18 14 5 -2 -15 -19 -31 -15 -31 8 0 15 -12 19 -24 7 -11
-11 -47 -10 -43 1 2 6 10 11 18 11 8 1 13 7 11 14 -1 8 2 10 10 5 7 -4 4 3 -7
17 -19 22 -19 23 -1 9 16 -12 18 -12 11 -1 -6 10 -4 12 4 6 10 -6 11 -3 2 13
-17 31 -13 41 5 12 8 -14 13 -17 10 -8 -3 10 -1 20 5 23 5 4 7 11 4 16 -4 5
-1 9 5 9 6 0 9 4 6 9 -3 5 1 14 9 21 7 6 11 18 8 26 -3 8 2 23 11 33 9 10 13
21 9 25 -4 4 1 4 12 1 15 -5 16 -4 6 3 -10 7 -11 14 -2 28 6 11 11 13 11 6 0
-7 5 -10 11 -6 8 5 8 9 -1 14 -6 4 -11 10 -11 14 3 24 0 28 -13 17 -10 -8 -16
-9 -21 -1 -8 13 -25 13 -25 -1 0 -5 5 -7 10 -4 6 3 10 1 10 -5 0 -7 9 -9 23
-5 21 6 21 5 3 -9 -14 -11 -24 -13 -38 -5 -17 9 -18 8 -9 -10 15 -28 14 -36
-4 -21 -9 7 -15 8 -15 2 0 -5 7 -13 16 -16 8 -3 12 -10 9 -16 -9 -15 -27 -12
-20 3 4 6 -2 2 -13 -10 -11 -12 -22 -20 -25 -17 -3 3 -4 -2 -2 -13 3 -18 22
-19 40 -2 7 7 4 8 -8 3 -13 -5 -16 -2 -11 9 3 9 12 13 20 10 16 -6 19 -29 4
-38 -6 -4 -7 -11 -4 -17 5 -7 1 -9 -9 -5 -22 8 -37 -14 -32 -50 3 -26 1 -31
-12 -26 -12 5 -15 2 -10 -10 4 -10 0 -20 -11 -26 -11 -7 -12 -11 -4 -11 7 0
10 -5 7 -10 -5 -8 -12 -7 -23 2 -14 10 -15 10 -4 -2 16 -19 16 -35 -1 -21 -8
6 -18 7 -22 3 -5 -4 -5 2 -1 13 5 15 4 17 -5 8 -12 -12 -3 -37 11 -28 10 6 20
-7 25 -37 5 -23 35 -60 35 -42 0 6 -3 14 -7 18 -11 10 -13 37 -2 31 5 -4 6 0
3 8 -4 11 1 15 19 13 17 -1 23 -6 19 -15 -3 -8 -1 -12 5 -8 5 3 10 0 10 -8 0
-9 -10 -12 -30 -9 -24 3 -27 1 -17 -11 9 -10 8 -19 -5 -38 -11 -17 -13 -27 -6
-32 6 -3 11 0 11 8 0 8 7 20 15 27 10 9 15 9 15 1 0 -6 -4 -11 -9 -11 -5 0
-11 -9 -14 -20 -4 -15 -10 -18 -24 -13 -15 6 -16 4 -6 -9 7 -8 9 -18 5 -23 -4
-4 4 -5 18 -1 14 3 19 3 12 0 -6 -3 -9 -11 -5 -17 4 -7 -4 -4 -17 5 -14 9 -24
21 -23 27 4 15 -14 14 -19 -1 -3 -7 -7 -5 -11 6 -5 12 -3 15 6 10 9 -6 9 -4
-1 8 -9 11 -10 18 -2 23 5 3 10 -1 10 -9 0 -9 5 -16 10 -16 13 0 13 17 0 25
-16 10 -1 25 17 18 11 -4 14 -3 9 6 -5 7 -16 9 -29 5 -19 -6 -20 -5 -9 9 8 10
9 17 3 21 -6 4 -8 14 -5 24 5 14 4 14 -4 2 -8 -10 -7 -19 1 -29 10 -12 9 -14
-6 -8 -15 5 -16 4 -7 -13 13 -25 13 -33 -2 -24 -7 4 -9 3 -5 -1 4 -5 -1 -14
-12 -19 -17 -10 -18 -13 -5 -30 10 -14 14 -16 15 -5 0 8 4 6 8 -6 5 -11 14
-20 21 -20 7 0 15 -6 18 -12 2 -7 -1 -13 -7 -13 -6 0 -11 -5 -11 -11 0 -5 4
-7 10 -4 6 3 7 -1 3 -10 -5 -13 -7 -14 -14 -3 -7 10 -9 10 -9 1 0 -7 -8 -13
-17 -13 -15 0 -16 -2 -3 -10 11 -7 11 -10 2 -10 -7 0 -10 -5 -6 -12 5 -8 11
-6 20 7 12 16 13 16 11 -3 0 -11 -4 -19 -8 -16 -4 2 -12 -4 -18 -13 -6 -10
-11 -12 -11 -5 0 22 -2 27 -11 39 -7 7 -6 14 1 18 8 5 8 11 -1 21 -9 11 -9 14
0 14 7 0 10 4 6 9 -3 5 0 13 6 17 8 4 9 3 5 -4 -4 -7 -3 -12 3 -12 15 0 24 20
9 21 -7 1 -16 1 -20 0 -4 0 -9 8 -13 18 -3 10 -16 21 -28 24 -22 6 -22 6 -2
-9 24 -18 29 -58 10 -74 -10 -8 -17 -7 -29 5 -9 9 -16 11 -16 5 0 -6 6 -13 14
-16 8 -3 12 -12 10 -19 -3 -8 -13 -11 -22 -7 -14 5 -15 4 -2 -10 11 -11 17
-12 22 -4 4 6 8 9 9 6 0 -3 2 -13 4 -22 2 -10 -1 -20 -6 -24 -5 -3 -9 -1 -9 5
0 5 -9 9 -19 8 -15 -1 -18 -5 -10 -19 7 -12 5 -27 -6 -49 -14 -25 -19 -28 -31
-18 -8 7 -13 17 -10 24 2 6 -2 12 -9 12 -8 0 -11 -7 -7 -15 4 -11 1 -14 -12
-9 -11 4 -15 3 -11 -4 4 -6 13 -8 20 -5 15 5 39 -17 29 -27 -3 -3 -13 -4 -22
-1 -10 3 -7 -1 6 -7 12 -7 22 -16 22 -21 0 -5 -4 -6 -10 -3 -5 3 -10 1 -10 -5
0 -6 -4 -8 -10 -5 -5 3 -10 2 -10 -4 0 -7 30 -8 58 -2 1 1 -2 10 -8 22 -9 15
-8 24 1 35 15 18 36 19 22 2 -11 -14 -13 -48 -4 -48 4 0 12 10 20 21 12 20 11
21 -6 15 -16 -6 -16 -5 1 9 11 8 15 15 10 15 -5 0 -10 9 -11 20 -1 11 2 18 8
15 5 -4 9 -14 9 -23 0 -15 2 -15 10 -2 7 11 5 19 -7 28 -9 6 -14 13 -10 13 4
1 12 3 17 4 6 1 15 3 20 4 6 0 10 6 10 12 0 5 -4 8 -9 4 -6 -3 -8 3 -6 15 2
11 0 22 -6 25 -5 4 -9 11 -9 17 0 6 6 6 15 -2 9 -7 14 -19 11 -26 -3 -7 -1
-16 5 -20 6 -3 8 -13 5 -21 -4 -9 -2 -21 4 -28 12 -14 -15 -49 -30 -40 -5 3
-11 1 -15 -5 -6 -10 6 -14 35 -11 13 2 13 0 1 -8 -8 -5 -21 -6 -30 -3 -14 5
-14 3 -3 -11 18 -21 6 -43 -14 -26 -17 14 -19 -2 -2 -19 10 -10 10 -15 -2 -22
-8 -5 -22 -7 -30 -5 -10 3 -15 -3 -16 -20 -1 -14 1 -23 5 -21 11 7 36 -12 28
-21 -5 -4 -11 -3 -15 3 -4 6 -17 10 -30 9 -13 -1 -25 2 -28 7 -3 5 -15 2 -25
-8 -11 -10 -19 -12 -19 -6 0 7 6 12 13 12 6 0 4 5 -6 11 -9 6 -15 14 -12 20 4
5 1 9 -4 9 -6 0 -11 -5 -11 -11 0 -5 -6 -7 -12 -3 -10 6 -10 5 -1 -7 10 -12
10 -18 0 -28 -6 -7 -7 -12 -2 -11 23 5 36 -1 29 -12 -4 -7 -3 -8 5 -4 17 11
69 18 53 8 -20 -13 -10 -48 12 -44 10 2 15 -1 12 -6 -5 -9 39 -27 57 -24 4 1
7 -2 7 -7 0 -8 80 -45 85 -39 4 4 67 153 280 653 102 242 195 460 206 484 24
51 60 141 56 140 -1 0 -22 -10 -47 -21z m-200 -108 c-6 -11 -16 -19 -23 -17
-7 1 -11 -4 -9 -12 3 -12 0 -12 -12 -2 -9 7 -13 18 -10 23 3 5 8 7 11 4 3 -3
15 1 27 9 27 19 29 19 16 -5z m33 5 c-3 -9 -8 -14 -10 -11 -3 3 -2 9 2 15 9
16 15 13 8 -4z m-6 -67 c-3 -8 -6 -5 -6 6 -1 11 2 17 5 13 3 -3 4 -12 1 -19z
m-143 -13 c17 -13 23 -13 44 1 15 10 21 11 17 3 -6 -8 -4 -11 7 -7 8 4 21 2
29 -3 11 -7 11 -9 1 -9 -7 0 -10 -5 -7 -11 4 -5 8 -22 10 -36 l3 -26 -18 23
c-15 21 -20 22 -34 11 -15 -12 -18 -9 -15 15 2 15 -26 22 -40 11 -11 -10 -13
-9 -9 3 3 8 -2 20 -11 27 -9 7 -11 12 -6 12 6 0 19 -6 29 -14z m-14 -115 c-5
-10 -7 -20 -4 -22 2 -3 -4 -11 -13 -19 -16 -12 -17 -12 -7 1 6 8 10 24 9 36
-1 11 4 21 11 21 9 0 10 -5 4 -17z m90 -20 c0 -5 -2 -10 -4 -10 -3 0 -8 5 -11
10 -3 6 -1 10 4 10 6 0 11 -4 11 -10z m-144 -115 c3 -17 -12 -20 -21 -5 -7 12
4 34 13 25 3 -3 7 -12 8 -20z m108 -3 c3 -5 -1 -9 -9 -9 -8 0 -12 4 -9 9 3 4
7 8 9 8 2 0 6 -4 9 -8z m-6 -47 c-3 -3 -9 2 -12 12 -6 14 -5 15 5 6 7 -7 10
-15 7 -18z m-23 -4 c3 -5 2 -12 -3 -15 -5 -3 -9 1 -9 9 0 17 3 19 12 6z m-118
-36 c0 -8 -4 -12 -9 -9 -5 3 -6 10 -3 15 9 13 12 11 12 -6z m118 -43 c-3 -3
-11 0 -18 7 -9 10 -8 11 6 5 10 -3 15 -9 12 -12z m-38 -66 c0 -14 -51 -15 -65
-2 -3 4 6 5 21 2 14 -2 29 0 32 5 8 13 12 11 12 -5z m-17 -40 c0 -3 -4 -8 -10
-11 -5 -3 -10 -1 -10 4 0 6 5 11 10 11 6 0 10 -2 10 -4z m-140 -20 c0 -3 -4
-8 -10 -11 -5 -3 -10 -1 -10 4 0 6 5 11 10 11 6 0 10 -2 10 -4z m-36 -117 c-3
-5 -10 -7 -15 -3 -5 3 -7 10 -3 15 3 5 10 7 15 3 5 -3 7 -10 3 -15z m-49 -69
c3 -5 1 -10 -4 -10 -6 0 -11 5 -11 10 0 6 2 10 4 10 3 0 8 -4 11 -10z m119 -1
c3 -3 -4 -5 -14 -6 -11 -1 -20 2 -20 7 0 8 25 8 34 -1z m-39 -19 c3 -5 1 -10
-4 -10 -6 0 -11 5 -11 10 0 6 2 10 4 10 3 0 8 -4 11 -10z m18 -75 c-3 -9 -8
-14 -10 -11 -3 3 -2 9 2 15 9 16 15 13 8 -4z m-33 -25 c0 -5 -2 -10 -4 -10 -3
0 -8 5 -11 10 -3 6 -1 10 4 10 6 0 11 -4 11 -10z m-15 -40 c3 -6 -1 -7 -9 -4
-18 7 -21 14 -7 14 6 0 13 -4 16 -10z m-8 -47 c0 -9 -4 -10 -12 -3 -7 5 -15 7
-18 3 -4 -3 -7 -1 -7 5 0 6 8 10 18 9 10 0 19 -7 19 -14z m-43 -9 c3 -8 2 -12
-4 -9 -6 3 -10 10 -10 16 0 14 7 11 14 -7z m-139 -3 c3 -5 2 -12 -3 -15 -5 -3
-9 1 -9 9 0 17 3 19 12 6z m100 -61 c-3 -5 -12 -10 -18 -10 -7 0 -6 4 3 10 19
12 23 12 15 0z"/>
<path d="M4079 5408 c-8 -28 -6 -39 8 -34 9 4 22 1 31 -6 13 -11 14 -10 4 8
-6 12 -9 24 -7 28 3 3 -1 2 -7 -4 -15 -13 -31 -13 -23 0 3 6 4 10 1 10 -3 0
-6 -1 -7 -2z"/>
<path d="M1570 5599 c0 -5 5 -7 10 -4 6 3 10 8 10 11 0 2 -4 4 -10 4 -5 0 -10
-5 -10 -11z"/>
<path d="M1635 5590 c-3 -5 -1 -10 4 -10 6 0 11 5 11 10 0 6 -2 10 -4 10 -3 0
-8 -4 -11 -10z"/>
<path d="M1630 5546 c0 -2 9 -6 20 -9 11 -3 18 -1 14 4 -5 9 -34 13 -34 5z"/>
<path d="M1420 5536 c0 -2 7 -7 16 -10 8 -3 12 -2 9 4 -6 10 -25 14 -25 6z"/>
<path d="M1733 5503 c0 -9 4 -10 14 -2 7 6 13 12 13 14 0 1 -6 2 -13 2 -8 0
-14 -6 -14 -14z"/>
<path d="M1437 5503 c-10 -10 -8 -23 4 -23 5 0 8 4 5 9 -4 5 0 12 6 14 7 3 8
6 2 6 -6 1 -14 -2 -17 -6z"/>
<path d="M1639 5508 c-7 -23 -4 -35 7 -35 9 0 11 4 4 12 -5 7 -7 15 -3 18 3 4
3 7 0 7 -4 0 -7 -1 -8 -2z"/>
<path d="M1773 5441 c1 -22 12 -28 21 -12 3 5 -1 14 -9 21 -11 9 -14 8 -12 -9z"/>
<path d="M1490 5440 c0 -5 5 -10 11 -10 5 0 7 5 4 10 -3 6 -8 10 -11 10 -2 0
-4 -4 -4 -10z"/>
<path d="M1655 5411 c-3 -5 -2 -12 3 -15 5 -3 9 1 9 9 0 17 -3 19 -12 6z"/>
<path d="M1697 5404 c6 -15 23 -19 23 -5 0 5 -7 11 -14 14 -10 4 -13 1 -9 -9z"/>
<path d="M3774 5399 c-3 -6 -1 -16 5 -22 9 -9 10 -7 5 7 -6 15 -4 17 6 11 9
-5 11 -4 6 3 -9 15 -13 15 -22 1z"/>
<path d="M1676 5381 c-3 -5 2 -15 12 -22 15 -12 16 -12 5 2 -7 9 -10 19 -6 22
3 4 4 7 0 7 -3 0 -8 -4 -11 -9z"/>
<path d="M1510 5342 c0 -4 10 -9 22 -9 18 -2 20 0 8 7 -18 12 -30 13 -30 2z"/>
<path d="M1714 5317 c-1 -30 -1 -30 9 -9 6 14 7 26 1 32 -5 5 -9 -4 -10 -23z"/>
<path d="M3786 5342 c-3 -5 1 -9 9 -9 8 0 12 4 9 9 -3 4 -7 8 -9 8 -2 0 -6 -4
-9 -8z"/>
<path d="M3955 5340 c-3 -5 -1 -10 4 -10 6 0 11 5 11 10 0 6 -2 10 -4 10 -3 0
-8 -4 -11 -10z"/>
<path d="M1490 5331 c0 -6 4 -13 10 -16 6 -3 7 1 4 9 -7 18 -14 21 -14 7z"/>
<path d="M3755 5329 c-4 -6 -5 -12 -2 -15 2 -3 7 2 10 11 7 17 1 20 -8 4z"/>
<path d="M1555 5280 c3 -5 8 -10 11 -10 2 0 4 5 4 10 0 6 -5 10 -11 10 -5 0
-7 -4 -4 -10z"/>
<path d="M3710 5275 c0 -8 2 -15 4 -15 2 0 6 7 10 15 3 8 1 15 -4 15 -6 0 -10
-7 -10 -15z"/>
<path d="M4027 5263 c-12 -12 -7 -22 16 -34 17 -9 20 -9 10 1 -6 7 -9 19 -6
26 5 14 -8 19 -20 7z"/>
<path d="M1530 5251 c0 -6 4 -13 10 -16 6 -3 7 1 4 9 -7 18 -14 21 -14 7z"/>
<path d="M1705 5240 c-3 -6 1 -7 9 -4 18 7 21 14 7 14 -6 0 -13 -4 -16 -10z"/>
<path d="M3620 5240 c0 -5 -9 -18 -21 -28 -17 -16 -18 -20 -5 -25 9 -4 18 -2
21 4 9 13 16 59 10 59 -3 0 -5 -4 -5 -10z"/>
<path d="M3895 5241 c-3 -5 -2 -12 3 -15 5 -3 9 1 9 9 0 17 -3 19 -12 6z"/>
<path d="M1814 5228 c1 -7 5 -18 9 -25 4 -7 0 -17 -11 -25 -10 -7 -18 -24 -19
-38 0 -14 1 -19 4 -13 3 9 10 10 24 3 10 -6 19 -9 20 -8 6 24 5 37 -2 32 -5
-3 -9 -1 -9 5 0 5 5 13 11 16 7 5 5 12 -5 23 -8 10 -15 21 -14 25 0 5 -3 11
-5 14 -3 3 -5 -1 -3 -9z m16 -53 c-10 -12 -10 -18 1 -32 13 -15 12 -15 -8 -2
-21 12 -21 15 -6 31 19 22 31 24 13 3z"/>
<path d="M1730 5220 c0 -5 5 -10 11 -10 5 0 7 5 4 10 -3 6 -8 10 -11 10 -2 0
-4 -4 -4 -10z"/>
<path d="M3906 5198 c3 -4 9 -8 15 -8 5 0 9 4 9 8 0 5 -7 9 -15 9 -8 0 -12 -4
-9 -9z"/>
<path d="M3999 5193 c-13 -16 -12 -17 4 -4 9 7 17 15 17 17 0 8 -8 3 -21 -13z"/>
<path d="M1555 5190 c6 -10 4 -12 -11 -6 -15 6 -17 5 -6 -5 9 -9 15 -10 23 -2
8 8 7 13 -2 18 -8 6 -10 4 -4 -5z"/>
<path d="M3670 5190 c0 -5 5 -10 11 -10 5 0 7 5 4 10 -3 6 -8 10 -11 10 -2 0
-4 -4 -4 -10z"/>
<path d="M3690 5165 c-7 -9 -11 -17 -9 -20 3 -2 10 5 17 15 14 24 10 26 -8 5z"/>
<path d="M3897 5161 c-3 -12 0 -24 5 -28 6 -3 8 -1 4 5 -3 5 -2 12 4 14 5 2 6
9 1 16 -6 10 -10 9 -14 -7z"/>
<path d="M1450 5166 c0 -2 7 -9 15 -16 13 -11 14 -10 9 4 -5 14 -24 23 -24 12z"/>
<path d="M1762 5138 c-16 -16 -15 -25 1 -25 7 0 13 9 13 19 0 21 1 21 -14 6z"/>
<path d="M3976 5142 c-2 -4 6 -8 19 -8 13 0 21 4 19 8 -3 4 -11 8 -19 8 -8 0
-16 -4 -19 -8z"/>
<path d="M3655 5131 c-6 -11 13 -26 22 -17 4 3 1 6 -6 6 -7 0 -9 5 -6 10 3 6
4 10 1 10 -3 0 -7 -4 -11 -9z"/>
<path d="M1803 5113 c-15 -5 -17 -23 -4 -23 5 0 11 7 15 15 3 8 4 15 3 14 -1
0 -8 -3 -14 -6z"/>
<path d="M1869 5115 c-1 -3 -2 -8 -3 -12 -1 -5 -4 -13 -8 -18 -4 -6 2 -11 13
-12 11 -1 17 2 14 7 -3 5 -1 11 5 15 15 9 12 25 -5 25 -8 0 -16 -2 -16 -5z"/>
<path d="M1483 5093 c-17 -6 -17 -30 0 -30 7 0 13 9 13 19 0 10 0 18 -1 17 0
0 -6 -3 -12 -6z"/>
<path d="M3875 5090 c-3 -6 1 -7 9 -4 18 7 21 14 7 14 -6 0 -13 -4 -16 -10z"/>
<path d="M1610 5086 c0 -2 7 -7 16 -10 8 -3 12 -2 9 4 -6 10 -25 14 -25 6z"/>
<path d="M3631 5073 c0 -12 2 -13 6 -5 4 10 8 10 21 0 15 -12 16 -11 3 5 -7 9
-17 17 -22 17 -5 0 -9 -8 -8 -17z"/>
<path d="M1593 5065 c0 -8 4 -12 9 -9 5 3 6 10 3 15 -9 13 -12 11 -12 -6z"/>
<path d="M1756 5033 c-6 -14 -5 -15 5 -6 7 7 10 15 7 18 -3 3 -9 -2 -12 -12z"/>
<path d="M1786 5038 c3 -4 11 -5 19 -1 21 7 19 12 -4 10 -11 0 -18 -5 -15 -9z"/>
<path d="M3646 5042 c-3 -5 1 -9 9 -9 8 0 12 4 9 9 -3 4 -7 8 -9 8 -2 0 -6 -4
-9 -8z"/>
<path d="M3816 5033 c-6 -14 -5 -15 5 -6 7 7 10 15 7 18 -3 3 -9 -2 -12 -12z"/>
<path d="M3510 5005 c7 -9 15 -13 17 -11 7 7 -7 26 -19 26 -6 0 -6 -6 2 -15z"/>
<path d="M3633 5005 c0 -8 4 -12 9 -9 5 3 6 10 3 15 -9 13 -12 11 -12 -6z"/>
<path d="M3835 5009 c-4 -6 -5 -12 -2 -15 2 -3 7 2 10 11 7 17 1 20 -8 4z"/>
<path d="M3926 5005 c4 -8 11 -15 16 -15 6 0 5 6 -2 15 -7 8 -14 15 -16 15 -2
0 -1 -7 2 -15z"/>
<path d="M1606 4997 c3 -10 9 -15 12 -12 3 3 0 11 -7 18 -10 9 -11 8 -5 -6z"/>
<path d="M1584 4979 c-3 -6 2 -18 12 -27 17 -16 17 -16 5 0 -7 9 -10 22 -6 28
3 5 4 10 1 10 -3 0 -8 -5 -12 -11z"/>
<path d="M3595 4979 c-4 -6 -5 -12 -2 -15 2 -3 7 2 10 11 7 17 1 20 -8 4z"/>
<path d="M1614 4962 c4 -3 14 -7 22 -8 9 -1 13 0 10 4 -4 3 -14 7 -22 8 -9 1
-13 0 -10 -4z"/>
<path d="M1830 4950 c0 -5 5 -10 10 -10 6 0 10 5 10 10 0 6 -4 10 -10 10 -5 0
-10 -4 -10 -10z"/>
<path d="M3815 4951 c-3 -5 0 -13 6 -17 7 -4 9 -3 5 4 -3 5 0 13 6 15 9 4 10
6 1 6 -6 1 -14 -3 -18 -8z"/>
<path d="M3571 4931 c-8 -14 -7 -20 3 -24 10 -4 12 0 8 15 -4 16 -2 19 8 13 9
-5 11 -4 6 3 -10 16 -14 15 -25 -7z"/>
<path d="M3510 4920 c7 -13 7 -21 0 -25 -6 -4 -8 -11 -5 -16 7 -10 -5 -12 -43
-11 -19 1 -22 -1 -12 -12 8 -10 8 -16 0 -21 -6 -3 -8 -11 -5 -16 4 -5 0 -9 -7
-9 -8 0 -6 -5 5 -11 14 -8 16 -14 6 -25 -6 -7 -15 -12 -19 -9 -5 3 -11 1 -14
-4 -4 -5 -2 -12 3 -16 6 -3 8 -12 5 -20 -4 -8 -11 -12 -17 -8 -6 4 -7 1 -2 -7
4 -7 2 -16 -6 -22 -11 -8 -11 -9 2 -5 9 3 16 -1 16 -8 0 -7 -6 -11 -13 -8 -6
2 -15 0 -19 -6 -3 -6 1 -14 10 -17 14 -6 14 -9 3 -16 -10 -7 -9 -8 5 -4 9 3
17 1 17 -4 0 -6 5 -10 12 -10 6 0 3 10 -8 22 -18 20 -18 21 -1 15 10 -4 23 -7
28 -7 6 0 7 -5 3 -12 -4 -7 -3 -8 5 -4 14 9 5 26 -14 26 -7 0 -15 6 -18 13 -6
17 11 47 26 43 6 -1 9 -1 5 1 -16 9 -7 25 9 19 10 -4 14 -4 10 0 -3 4 3 15 15
25 11 11 16 19 11 19 -6 0 -16 -7 -23 -15 -7 -8 -17 -15 -23 -15 -6 0 0 11 13
25 14 15 31 23 40 20 8 -3 4 3 -9 13 -16 13 -20 22 -12 26 6 4 11 3 11 -2 0
-15 32 -24 44 -12 8 8 6 9 -8 4 -14 -5 -17 -4 -12 5 4 7 3 10 -5 9 -6 -2 -14
3 -17 11 -3 8 0 11 7 7 7 -5 9 -1 4 10 -4 11 -2 15 4 11 6 -4 19 1 30 11 10 9
14 14 9 10 -19 -15 -28 -8 -15 9 11 13 11 15 1 9 -9 -6 -12 -3 -10 9 2 11 -4
19 -14 20 -14 3 -16 0 -8 -15z m17 -35 c0 -8 -4 -12 -9 -9 -5 3 -6 10 -3 15 9
13 12 11 12 -6z m-42 -51 c-10 -16 -11 -25 -4 -30 7 -4 2 -15 -12 -30 -13 -14
-24 -32 -25 -41 -2 -8 -8 -21 -15 -27 -9 -8 -9 -6 -1 10 7 13 8 25 1 32 -5 7
-6 10 -2 7 11 -8 43 27 36 39 -13 20 -11 36 4 36 9 0 13 6 10 13 -3 8 1 14 9
14 12 0 12 -4 -1 -23z"/>
<path d="M3794 4932 c3 -5 0 -13 -6 -15 -9 -4 -10 -6 -1 -6 17 -1 25 16 12 25
-7 4 -9 3 -5 -4z"/>
<path d="M1838 4903 c7 -3 16 -2 19 1 4 3 -2 6 -13 5 -11 0 -14 -3 -6 -6z"/>
<path d="M1640 4880 c-12 -7 -10 -9 7 -7 12 0 19 5 17 9 -6 10 -6 10 -24 -2z"/>
<path d="M3551 4852 c-1 -7 -6 -10 -13 -6 -6 4 -8 3 -5 -4 8 -12 32 -10 44 3
4 4 3 5 -4 2 -6 -4 -14 -1 -16 5 -4 10 -6 10 -6 0z"/>
<path d="M3853 4831 c-24 -20 -29 -31 -14 -31 5 0 16 11 25 25 20 30 18 30
-11 6z"/>
<path d="M1813 4825 c0 -8 4 -12 9 -9 5 3 6 10 3 15 -9 13 -12 11 -12 -6z"/>
<path d="M3775 4830 c-3 -5 -1 -10 4 -10 6 0 11 5 11 10 0 6 -2 10 -4 10 -3 0
-8 -4 -11 -10z"/>
<path d="M1854 4801 c0 -11 5 -17 13 -14 10 4 11 9 2 19 -15 18 -15 18 -15 -5z"/>
<path d="M1864 4765 c-18 -15 -18 -15 0 -8 13 4 17 3 12 -5 -3 -6 -3 -13 2
-16 4 -2 8 6 8 20 0 13 0 24 -1 24 -1 0 -10 -7 -21 -15z"/>
<path d="M3553 4765 c0 -8 4 -12 9 -9 5 3 6 10 3 15 -9 13 -12 11 -12 -6z"/>
<path d="M1690 4756 c7 -7 13 -7 20 0 6 6 3 10 -10 10 -13 0 -16 -4 -10 -10z"/>
<path d="M1677 4723 c-10 -9 -9 -23 1 -23 5 0 9 7 9 15 0 17 -1 18 -10 8z"/>
<path d="M3490 4718 c0 -4 4 -8 9 -8 6 0 12 4 15 8 3 5 -1 9 -9 9 -8 0 -15 -4
-15 -9z"/>
<path d="M3713 4712 c0 -12 5 -22 9 -22 11 0 10 12 -2 30 -7 12 -9 10 -7 -8z"/>
<path d="M1875 4711 c-9 -15 15 -25 28 -12 9 9 7 10 -7 5 -13 -5 -17 -4 -12 4
4 7 5 12 2 12 -3 0 -7 -4 -11 -9z"/>
<path d="M1709 4697 c6 -8 7 -18 3 -22 -4 -5 -1 -5 6 -1 10 6 10 11 1 22 -6 8
-14 14 -16 14 -3 0 0 -6 6 -13z"/>
<path d="M1959 4683 c-13 -16 -12 -17 4 -4 9 7 17 15 17 17 0 8 -8 3 -21 -13z"/>
<path d="M3470 4691 c-8 -6 -18 -7 -22 -5 -4 3 -8 0 -8 -5 0 -15 13 -14 36 4
21 16 17 20 -6 6z"/>
<path d="M3793 4675 c0 -21 2 -23 13 -14 11 9 11 15 3 25 -15 19 -16 18 -16
-11z"/>
<path d="M3496 4673 c-6 -14 -5 -15 5 -6 7 7 10 15 7 18 -3 3 -9 -2 -12 -12z"/>
<path d="M1690 4623 c8 -3 8 -9 1 -17 -8 -9 -3 -19 16 -37 14 -13 23 -19 20
-13 -9 15 17 25 32 13 6 -5 5 -1 -3 8 -12 13 -18 14 -30 3 -10 -8 -16 -8 -16
-2 0 6 8 16 18 22 15 9 14 10 -6 5 -15 -4 -22 -2 -20 5 2 7 -3 14 -10 16 -7 1
-8 0 -2 -3z"/>
<path d="M1766 4602 c-3 -5 1 -9 9 -9 8 0 12 4 9 9 -3 4 -7 8 -9 8 -2 0 -6 -4
-9 -8z"/>
<path d="M3760 4601 c0 -5 5 -13 10 -16 6 -3 10 -2 10 4 0 5 -4 13 -10 16 -5
3 -10 2 -10 -4z"/>
<path d="M3725 4570 c-3 -6 -10 -8 -15 -5 -5 3 -13 -3 -19 -12 -5 -10 -12 -17
-16 -15 -3 1 -12 -4 -20 -12 -13 -13 -13 -15 4 -13 12 1 17 6 13 16 -4 10 -1
12 7 7 7 -5 10 -17 8 -28 -5 -16 -3 -17 9 -7 11 9 12 15 3 25 -6 8 -8 15 -3
15 5 1 19 3 32 4 30 3 35 10 18 24 -10 8 -16 9 -21 1z"/>
<path d="M3396 4562 c-2 -4 -1 -14 4 -22 7 -11 9 -9 7 8 -1 24 -3 26 -11 14z"/>
<path d="M3493 4555 c0 -8 4 -12 9 -9 5 3 6 10 3 15 -9 13 -12 11 -12 -6z"/>
<path d="M3640 4560 c-13 -8 -12 -10 3 -10 9 0 17 5 17 10 0 12 -1 12 -20 0z"/>
<path d="M3570 4500 c0 -5 5 -10 11 -10 5 0 7 5 4 10 -3 6 -8 10 -11 10 -2 0
-4 -4 -4 -10z"/>
<path d="M3640 4440 c0 -5 5 -10 10 -10 6 0 10 5 10 10 0 6 -4 10 -10 10 -5 0
-10 -4 -10 -10z"/>
<path d="M5660 4429 c-36 -6 -353 -126 -445 -169 -11 -5 -123 -50 -250 -100
-126 -50 -239 -95 -250 -100 -11 -5 -67 -28 -125 -51 -58 -23 -106 -43 -108
-44 -5 -5 50 -110 59 -113 5 -2 6 -8 3 -14 -5 -7 2 -9 19 -6 16 3 24 1 21 -7
-3 -6 4 -22 16 -35 20 -23 27 -42 13 -37 -5 1 -9 -1 -10 -6 -2 -4 0 -7 3 -6 4
0 10 -5 14 -11 5 -8 9 -7 13 5 5 10 3 14 -5 9 -7 -4 -8 -3 -4 5 13 20 26 2 16
-23 -7 -20 -6 -23 8 -21 9 2 20 4 24 4 5 1 7 6 5 12 -1 6 4 14 12 17 9 3 11 0
6 -8 -5 -9 -4 -11 4 -6 6 4 9 12 6 17 -11 16 -32 10 -43 -13 -6 -13 -11 -17
-11 -10 -1 22 19 52 34 52 8 0 15 5 15 11 0 5 4 8 10 4 5 -3 7 -13 4 -23 -3
-9 2 -4 11 12 13 21 14 31 5 40 -8 8 -9 6 -4 -7 5 -14 2 -18 -12 -15 -11 2
-23 8 -27 13 -5 6 -6 1 -3 -10 l6 -20 -16 20 c-16 20 -16 20 -10 -2 4 -12 2
-24 -4 -28 -5 -3 -10 -1 -10 5 0 6 -4 9 -8 6 -5 -3 -9 1 -9 9 0 8 4 12 9 9 4
-3 8 2 8 11 0 9 -4 14 -8 11 -5 -3 -9 2 -9 10 0 10 4 11 11 4 17 -17 23 -12
21 15 -2 16 1 23 8 18 7 -4 8 0 3 13 -6 15 -5 17 5 7 10 -10 10 -16 1 -25 -24
-24 -11 -28 19 -6 22 16 33 19 36 11 2 -7 11 -9 19 -6 12 4 13 8 4 13 -20 12
-2 32 19 20 12 -6 22 -5 28 1 8 8 17 8 31 0 12 -6 23 -7 26 -2 9 14 -38 30
-57 19 -11 -6 -17 -5 -17 2 0 5 7 10 16 10 9 0 12 5 8 13 -6 10 -4 10 7 0 14
-14 30 -17 26 -5 -1 4 1 8 6 10 16 5 19 1 7 -13 -15 -18 -7 -19 21 -4 20 10
20 11 2 26 -16 14 -15 14 7 0 14 -8 24 -22 24 -31 -2 -20 12 -21 19 -2 3 8 -1
20 -9 26 -16 15 -19 30 -3 30 5 0 7 -5 3 -12 -5 -7 -2 -9 8 -6 11 5 14 0 13
-16 -2 -15 3 -22 16 -22 20 0 34 22 19 31 -6 4 -10 1 -10 -4 0 -6 -5 -11 -11
-11 -6 0 0 13 13 29 13 15 26 26 31 24 12 -7 8 10 -8 27 -13 14 -12 16 4 16
12 0 17 -5 13 -15 -4 -10 -1 -12 7 -6 10 6 11 3 2 -14 -7 -11 -15 -21 -20 -21
-4 0 -8 -7 -8 -15 0 -15 17 -22 17 -7 0 4 9 18 20 32 11 14 20 21 19 15 -3
-21 1 -35 11 -35 6 0 10 6 9 13 -3 26 1 38 12 31 8 -4 7 -9 -2 -15 -12 -7 -12
-9 0 -9 10 0 11 -3 2 -13 -6 -8 -9 -16 -6 -19 3 -2 -5 -4 -18 -3 -12 1 -28 0
-35 -3 -11 -4 -11 -6 0 -14 9 -6 6 -7 -9 -3 -13 3 -23 2 -23 -3 0 -5 6 -9 13
-10 57 -7 62 -6 61 10 -1 11 4 14 14 10 11 -4 14 -1 9 11 -3 9 -2 19 2 22 16
9 20 -24 5 -40 -9 -8 -11 -15 -4 -15 6 0 13 7 16 15 4 8 10 13 14 10 10 -6 22
24 14 36 -3 5 -1 9 5 9 18 0 22 -19 10 -42 -11 -21 -11 -22 4 -9 10 7 17 19
17 25 0 6 9 17 20 24 11 7 20 8 20 3 0 -6 -4 -13 -10 -16 -5 -3 -10 -10 -10
-15 0 -5 13 5 29 21 28 28 69 32 54 5 -3 -6 0 -5 8 2 12 11 12 14 -1 22 -8 6
-21 7 -29 5 -11 -5 -12 -3 -1 10 11 14 16 14 35 1 19 -13 23 -12 34 6 11 18
14 18 36 4 23 -15 25 -15 35 4 7 14 7 20 0 21 -5 1 -14 3 -20 4 -5 1 -13 3
-17 4 -5 1 -1 5 7 11 9 5 19 5 27 -1 7 -6 17 -8 23 -4 7 4 10 0 8 -11 -2 -15
2 -18 20 -17 15 2 21 -1 16 -9 -4 -7 -3 -8 5 -4 18 12 2 27 -22 21 -19 -5 -18
-3 7 18 19 17 24 26 15 29 -9 3 -10 6 -1 11 7 5 17 -4 26 -21 8 -16 22 -29 30
-29 8 0 13 4 10 9 -3 5 -10 6 -15 3 -5 -4 -9 -2 -9 3 0 17 13 22 27 10 11 -9
12 -7 6 8 -6 16 -5 17 9 6 13 -10 18 -10 24 -1 4 7 3 9 -3 6 -12 -8 -36 17
-26 26 11 12 24 7 17 -5 -4 -7 -4 -10 1 -6 4 4 14 3 21 -3 10 -8 19 -6 36 6
14 11 17 15 6 12 -10 -4 -20 -2 -23 2 -7 12 21 22 40 15 8 -4 15 -1 15 6 0 6
-4 8 -10 5 -5 -3 -10 2 -10 11 0 10 3 14 7 11 3 -4 13 -1 21 6 13 10 15 9 10
-5 -4 -9 0 -24 8 -35 14 -17 14 -17 5 4 -12 23 6 37 34 27 8 -4 15 -1 15 6 0
6 4 8 10 5 6 -4 7 1 4 12 -5 16 -4 16 10 -1 9 -11 16 -15 16 -9 0 7 -5 15 -10
18 -6 4 -7 11 -4 17 4 5 15 -3 26 -19 11 -15 18 -21 16 -13 -3 8 10 24 29 37
39 27 51 29 33 8 -10 -13 -11 -18 -1 -28 7 -7 12 -7 11 -2 -5 23 1 34 18 30
43 -8 82 67 41 80 -19 6 -19 8 -3 19 15 11 13 15 -21 36 -21 13 -44 23 -51 23
-8 0 -14 4 -14 8 0 20 -115 38 -180 28z m244 -74 c3 -8 1 -15 -4 -15 -6 0 -10
7 -10 15 0 8 2 15 4 15 2 0 6 -7 10 -15z m-154 -15 c0 -5 -5 -10 -11 -10 -5 0
-7 5 -4 10 3 6 8 10 11 10 2 0 4 -4 4 -10z m97 -39 c11 10 16 10 22 0 5 -7 11
-12 15 -12 18 3 26 0 26 -8 0 -6 -9 -8 -20 -6 -12 2 -18 0 -15 -6 4 -5 11 -7
16 -4 5 4 9 0 10 -7 0 -10 2 -10 6 0 2 6 10 12 16 12 8 0 7 -4 -1 -12 -17 -17
-42 -19 -49 -2 -4 11 -12 9 -35 -11 -16 -14 -34 -23 -39 -19 -5 3 -9 0 -9 -7
0 -7 -6 -5 -13 5 -13 17 -15 16 -40 -15 -15 -19 -27 -28 -27 -20 0 11 -3 11
-15 1 -12 -10 -16 -9 -21 5 -5 13 -8 14 -15 3 -5 -7 -13 -14 -19 -14 -5 -1
-15 -2 -21 -3 -5 0 -8 -5 -4 -10 3 -6 -4 -15 -15 -21 -17 -9 -19 -14 -9 -26
18 -22 -6 -17 -26 6 -10 11 -23 20 -28 20 -6 0 -7 -3 -4 -7 4 -3 2 -12 -4 -20
-6 -7 -8 -13 -3 -13 4 0 -1 -6 -11 -14 -17 -12 -21 -12 -33 6 -11 15 -17 17
-26 8 -6 -6 -11 -16 -11 -22 0 -6 -6 -13 -14 -16 -10 -3 -12 0 -8 12 5 11 3
15 -5 10 -7 -5 -8 -3 -3 6 5 8 4 11 -3 6 -6 -4 -9 -13 -5 -21 5 -16 -8 -20
-21 -7 -11 10 -30 9 -38 -2 -8 -13 11 -38 23 -30 5 3 9 -2 9 -11 0 -15 -2 -15
-22 -1 -19 14 -24 14 -38 1 -10 -9 -25 -13 -34 -9 -21 8 -15 30 7 26 13 -2 15
5 8 36 -2 6 -26 -23 -51 -61 -14 -20 -30 -35 -37 -32 -7 2 -15 0 -18 -6 -4 -5
-11 -7 -16 -4 -5 4 -9 0 -9 -7 0 -7 -12 -1 -25 15 -27 31 -35 33 -35 12 0 -8
6 -15 13 -16 8 0 8 -2 -2 -6 -11 -4 -11 -7 0 -14 7 -4 10 -11 5 -16 -9 -9 -29
23 -31 49 -2 20 18 30 42 21 11 -4 14 -3 9 5 -5 8 -2 10 9 6 11 -5 14 -2 9 12
-5 16 -4 16 5 4 10 -13 12 -13 21 0 14 22 12 30 -7 24 -15 -5 -15 -4 -3 4 17
13 33 5 26 -13 -3 -8 2 -19 10 -26 13 -11 15 -10 14 2 -4 27 0 49 10 49 5 0 7
-7 3 -16 -5 -14 -3 -15 15 -5 12 6 26 19 31 29 6 9 11 12 11 5 0 -7 9 -17 19
-22 14 -8 20 -7 25 5 4 10 0 14 -11 12 -10 -2 -19 7 -24 25 -4 16 -4 25 2 21
5 -3 9 -15 9 -27 1 -21 2 -21 25 5 20 23 24 25 22 9 -1 -11 -5 -17 -10 -14 -5
3 -8 0 -5 -8 5 -14 25 -19 42 -11 4 3 3 8 -4 12 -16 10 -2 33 16 26 16 -6 64
13 64 26 0 4 5 8 11 8 8 0 8 -5 -1 -15 -9 -11 -9 -15 -1 -15 6 0 14 7 17 15 4
8 14 15 23 15 14 0 14 2 1 10 -11 7 -11 10 -2 10 7 0 10 5 6 12 -4 7 -3 8 5 4
6 -4 8 -12 5 -18 -4 -6 1 -8 14 -4 11 4 23 2 27 -4 3 -5 11 -10 17 -10 7 0 7
4 0 13 -13 16 1 42 17 32 7 -4 19 -1 28 7 12 9 15 9 9 1 -4 -7 -3 -13 3 -13
19 0 21 19 4 29 -10 6 -13 11 -6 11 6 0 15 -4 18 -10 3 -5 11 -10 17 -10 6 0
6 6 -2 15 -10 13 -11 18 -1 28 10 9 11 8 5 -8 -7 -17 -6 -18 8 -7 13 10 17 10
21 0 2 -7 8 -10 12 -6 4 4 2 15 -6 25 -9 11 -10 14 -1 9 7 -4 12 -2 12 5 0 7
6 4 14 -7 15 -19 15 -19 29 0 9 12 20 17 31 13 13 -5 15 -2 11 21 l-5 27 11
-28 c9 -23 13 -26 26 -16z m-140 12 c0 -9 -4 -10 -14 -2 -7 6 -13 12 -13 14 0
1 6 2 13 2 8 0 14 -6 14 -14z m79 5 c4 -6 3 -8 -3 -5 -6 4 -14 0 -17 -9 -4 -9
-9 -14 -13 -11 -3 4 0 13 7 22 15 18 17 18 26 3z m-116 -34 c0 -2 -9 -8 -20
-14 -15 -8 -18 -8 -14 3 4 11 34 21 34 11z m-118 -52 c-7 -2 -9 -9 -6 -14 4
-7 2 -8 -4 -4 -6 4 -9 13 -6 21 4 8 11 12 17 8 8 -5 7 -8 -1 -11z m42 6 c-3
-4 -9 -8 -15 -8 -5 0 -9 4 -9 8 0 5 7 9 15 9 8 0 12 -4 9 -9z m36 2 c0 -5 -4
-10 -10 -10 -5 0 -10 5 -10 10 0 6 5 10 10 10 6 0 10 -4 10 -10z m-200 -20 c0
-5 -5 -10 -11 -10 -5 0 -7 5 -4 10 3 6 8 10 11 10 2 0 4 -4 4 -10z m55 1 c-3
-5 -1 -12 5 -16 5 -3 10 -1 10 6 0 7 2 10 5 7 3 -3 3 -13 -1 -22 -6 -15 -7
-15 -19 1 -12 16 -11 33 1 33 3 0 3 -4 -1 -9z m-60 -41 c-3 -5 -12 -10 -18
-10 -7 0 -6 4 3 10 19 12 23 12 15 0z m-35 -15 c7 -9 8 -15 2 -15 -5 0 -12 7
-16 15 -3 8 -4 15 -2 15 2 0 9 -7 16 -15z m-44 -10 c-1 -8 -6 -18 -11 -22 -4
-4 -5 -2 -1 5 4 7 2 12 -6 12 -9 0 -9 3 2 10 19 12 19 13 16 -5z m99 5 c-27
-12 -43 -12 -25 0 8 5 22 9 30 9 10 0 8 -3 -5 -9z m-176 -17 c-3 -20 2 -26 11
-13 7 10 10 11 10 2 0 -7 -7 -15 -15 -18 -8 -4 -12 -11 -8 -17 3 -5 2 -7 -4
-4 -8 5 -10 36 -4 55 2 6 11 1 10 -5z m-94 -43 c3 -6 -1 -7 -9 -4 -18 7 -21
14 -7 14 6 0 13 -4 16 -10z m-23 -28 c-7 -2 -9 -9 -6 -14 4 -7 2 -8 -4 -4 -6
4 -9 13 -6 21 4 8 11 12 17 8 8 -5 7 -8 -1 -11z m-49 -20 c4 9 6 10 6 1 1 -7
-7 -17 -17 -22 -14 -7 -18 -6 -18 9 0 14 4 16 12 9 8 -7 14 -6 17 3z m-48 -40
c-3 -3 -11 0 -18 7 -9 10 -8 11 6 5 10 -3 15 -9 12 -12z m-84 -20 c-7 -2 -18
1 -23 6 -8 8 -4 9 13 5 13 -4 18 -8 10 -11z m-85 -1 c-4 -5 0 -11 6 -14 7 -3
3 -4 -9 -4 -17 1 -19 4 -11 14 12 15 22 18 14 4z m75 -19 c-7 -2 -18 1 -23 6
-8 8 -4 9 13 5 13 -4 18 -8 10 -11z m-127 -13 c3 -3 -5 -5 -19 -5 -13 0 -22 3
-19 7 4 8 30 6 38 -2z m-95 -35 c-6 -8 -17 -14 -23 -14 -6 0 -3 5 7 11 9 6 14
15 11 21 -4 7 -2 8 5 4 9 -6 9 -11 0 -22z m321 -5 c0 -5 -6 -9 -13 -9 -8 0
-14 6 -14 14 0 8 6 12 14 9 7 -3 13 -9 13 -14z m-315 -19 c-3 -5 -12 -10 -18
-10 -7 0 -6 4 3 10 19 12 23 12 15 0z m-37 -25 c-3 -3 -9 2 -12 12 -6 14 -5
15 5 6 7 -7 10 -15 7 -18z m-147 -2 c12 -16 12 -17 -2 -6 -9 7 -20 9 -24 5 -5
-4 -5 -1 -1 6 9 16 11 15 27 -5z m89 5 c0 -4 -4 -8 -9 -8 -6 0 -12 4 -15 8 -3
5 1 9 9 9 8 0 15 -4 15 -9z"/>
<path d="M5846 4291 c-4 -5 -18 -7 -32 -5 -18 3 -31 -1 -39 -13 -10 -14 -16
-15 -28 -5 -12 11 -15 10 -13 -5 1 -13 -5 -17 -22 -16 -13 2 -21 -1 -17 -6 3
-6 -3 -14 -12 -20 -11 -6 -13 -11 -5 -11 8 0 10 -5 6 -12 -5 -9 -2 -9 9 1 9 7
17 10 17 5 0 -4 13 4 28 19 22 21 31 24 40 15 9 -9 12 -9 12 3 0 12 2 12 10
-1 7 -11 10 -11 10 -2 0 7 4 11 9 8 4 -3 18 5 30 18 13 14 18 26 12 30 -5 4
-12 2 -15 -3z m1 -18 c-9 -9 -31 -18 -49 -19 -30 -2 -31 -1 -15 11 11 7 27 12
38 10 10 -2 21 0 24 6 4 5 9 9 13 9 3 0 -1 -8 -11 -17z m-110 -41 c-17 -18
-51 -27 -41 -10 3 5 9 6 14 3 4 -3 13 2 20 10 7 8 15 15 18 15 3 0 -2 -8 -11
-18z"/>
<path d="M5595 4202 c-11 -11 8 -21 24 -12 10 5 21 7 25 5 3 -3 4 -2 1 2 -6 8
-43 12 -50 5z"/>
<path d="M5516 4155 c-21 -14 -41 -23 -46 -20 -14 9 -51 -15 -44 -27 5 -7 12
-5 20 7 13 17 15 17 32 2 17 -15 19 -15 35 3 11 14 13 20 4 20 -6 0 -4 5 6 11
13 8 22 8 29 1 16 -16 41 -3 27 14 -15 19 -20 18 -63 -11z m54 5 c0 -5 -2 -10
-4 -10 -3 0 -8 5 -11 10 -3 6 -1 10 4 10 6 0 11 -4 11 -10z m-67 -35 c-3 -9
-8 -14 -10 -11 -3 3 -2 9 2 15 9 16 15 13 8 -4z"/>
<path d="M5395 4120 c3 -5 8 -10 11 -10 2 0 4 5 4 10 0 6 -5 10 -11 10 -5 0
-7 -4 -4 -10z"/>
<path d="M5313 4055 c0 -8 4 -12 9 -9 4 3 8 9 8 15 0 5 -4 9 -8 9 -5 0 -9 -7
-9 -15z"/>
<path d="M5236 4048 c10 -15 -7 -30 -21 -18 -16 13 -80 -15 -70 -30 5 -8 43
-7 53 1 1 1 5 2 10 3 27 5 61 53 37 53 -8 0 -12 -4 -9 -9z m-21 -28 c4 -6 3
-10 -2 -9 -4 1 -10 1 -13 -1 -3 -1 -16 -3 -30 -6 -18 -3 -21 -2 -10 5 8 5 17
8 21 5 4 -2 10 0 14 6 8 13 12 13 20 0z"/>
<path d="M2390 4320 c-402 -61 -743 -232 -1020 -509 -274 -275 -437 -593 -500
-976 -18 -116 -24 -404 -10 -474 5 -20 11 -58 14 -86 10 -77 52 -232 90 -332
184 -483 583 -870 1081 -1047 73 -26 204 -61 265 -71 19 -3 46 -7 60 -10 186
-33 458 -25 670 21 588 127 1084 550 1296 1107 38 99 73 225 89 322 3 17 8 44
11 60 4 17 8 116 9 220 4 250 -21 402 -99 619 -198 546 -666 968 -1239 1116
-62 16 -131 32 -154 35 -23 3 -57 8 -75 11 -92 15 -377 11 -488 -6z"/>
<path d="M5942 4332 c-9 -6 -6 -12 13 -20 24 -11 25 -11 15 8 -12 23 -11 22
-28 12z"/>
<path d="M5950 4280 c0 -5 5 -10 10 -10 6 0 10 5 10 10 0 6 -4 10 -10 10 -5 0
-10 -4 -10 -10z"/>
<path d="M5997 4270 c10 -11 19 -20 21 -20 1 0 -2 9 -8 20 -6 11 -15 20 -20
20 -6 0 -2 -9 7 -20z"/>
<path d="M5951 4253 c-16 -14 -18 -21 -10 -33 9 -13 10 -12 5 2 -3 10 -1 20 4
23 6 4 10 3 10 -2 0 -4 11 -13 24 -19 20 -9 23 -8 21 5 -1 9 -10 15 -19 15
-19 -2 -22 12 -3 19 8 4 8 6 1 6 -7 1 -21 -7 -33 -16z"/>
<path d="M5893 4203 c0 -8 6 -9 19 -2 10 5 18 11 18 12 0 2 -8 3 -18 3 -10 0
-19 -6 -19 -13z"/>
<path d="M5825 4200 c3 -5 11 -10 16 -10 6 0 7 5 4 10 -3 6 -11 10 -16 10 -6
0 -7 -4 -4 -10z"/>
<path d="M5970 4199 c0 -5 5 -7 10 -4 6 3 10 8 10 11 0 2 -4 4 -10 4 -5 0 -10
-5 -10 -11z"/>
<path d="M5690 4160 c0 -5 5 -10 11 -10 5 0 7 5 4 10 -3 6 -8 10 -11 10 -2 0
-4 -4 -4 -10z"/>
<path d="M5735 4161 c-3 -5 0 -13 6 -17 7 -4 9 -3 5 4 -3 5 0 13 6 15 9 4 10
6 1 6 -6 1 -14 -3 -18 -8z"/>
<path d="M5770 4158 c0 -6 3 -8 7 -5 3 4 13 1 22 -6 14 -11 14 -10 2 6 -15 20
-31 22 -31 5z"/>
<path d="M5700 4136 c0 -2 7 -7 16 -10 8 -3 12 -2 9 4 -6 10 -25 14 -25 6z"/>
<path d="M5773 4125 c0 -8 4 -12 9 -9 5 3 6 10 3 15 -9 13 -12 11 -12 -6z"/>
<path d="M5650 4126 c0 -2 7 -7 16 -10 8 -3 12 -2 9 4 -6 10 -25 14 -25 6z"/>
<path d="M5615 4099 c-4 -5 2 -6 11 -2 12 4 15 3 10 -5 -10 -16 -1 -15 12 1 8
10 6 13 -8 14 -11 1 -22 -2 -25 -8z"/>
<path d="M6058 4088 c8 -10 9 -19 3 -22 -5 -3 -11 -1 -13 6 -3 7 -7 5 -11 -6
-4 -9 -3 -15 2 -12 5 3 14 -1 20 -8 7 -9 8 -17 2 -20 -10 -7 7 -65 24 -79 6
-5 3 -7 -7 -4 -16 6 -34 -18 -20 -26 4 -2 1 -2 -6 -1 -7 2 -15 -3 -19 -11 -4
-12 -9 -13 -19 -4 -8 6 -11 15 -8 20 3 5 0 9 -7 9 -18 0 -4 11 18 15 10 1 17
8 16 14 -4 15 14 14 20 -1 3 -7 4 -3 4 10 -1 13 -9 29 -18 38 -17 15 -49 10
-49 -9 0 -7 4 -7 12 1 17 17 33 15 18 -3 -6 -8 -9 -19 -6 -24 4 -6 -2 -15 -13
-20 -26 -14 -34 -14 -25 1 4 6 3 8 -2 5 -6 -3 -15 3 -22 14 -15 23 -9 24 23 3
14 -9 25 -14 25 -10 0 3 -11 13 -25 22 -28 19 -53 10 -34 -12 10 -12 8 -17 -7
-28 -22 -17 -32 -12 -16 7 8 9 8 17 0 27 -8 12 -9 12 -4 -2 3 -10 1 -20 -4
-23 -6 -4 -10 -1 -10 5 0 6 -7 4 -17 -5 -15 -16 -17 -15 -30 9 -15 29 -26 35
-16 9 5 -12 3 -14 -7 -8 -9 6 -11 4 -6 -4 5 -7 10 -10 13 -7 3 3 14 -5 25 -17
11 -12 17 -17 14 -11 -3 7 1 14 8 17 10 4 14 -1 13 -14 -1 -10 -4 -19 -8 -19
-4 0 -5 -9 -2 -20 3 -12 0 -20 -6 -20 -7 0 -10 -4 -6 -10 12 -20 31 2 30 33
-2 32 -1 33 36 32 28 -1 43 -8 58 -26 18 -23 18 -26 3 -26 -9 0 -22 4 -29 9
-15 12 -87 -34 -75 -48 4 -5 -5 1 -19 14 -31 27 -49 29 -24 2 10 -11 13 -20 7
-20 -7 0 -12 4 -12 8 0 14 -49 9 -55 -6 -3 -10 1 -12 16 -7 15 5 19 4 15 -4
-4 -6 -16 -11 -28 -11 -14 0 -18 5 -14 16 4 9 1 24 -6 32 -11 13 -11 14 1 7 9
-5 12 -4 7 3 -4 7 1 10 14 7 11 -2 20 2 20 8 0 7 4 6 11 -3 9 -13 10 -12 5 3
-3 9 -1 17 4 17 6 0 10 -4 10 -8 0 -5 7 -9 14 -9 11 0 12 5 5 18 -5 10 -15 21
-22 25 -6 4 -9 4 -5 -1 4 -4 0 -14 -10 -21 -26 -20 -37 -16 -17 6 26 29 7 44
-24 19 -13 -10 -20 -19 -15 -19 4 0 16 7 26 17 10 9 18 12 18 6 0 -15 -33 -40
-52 -40 -10 0 -18 4 -18 9 0 4 -5 8 -11 8 -8 0 -8 -4 0 -14 10 -12 8 -17 -11
-28 -28 -16 -50 -17 -61 -3 -5 6 -7 3 -3 -7 6 -19 -28 -45 -39 -29 -3 5 3 12
12 14 10 3 2 4 -17 3 -33 -1 -35 -4 -35 -34 1 -18 -4 -31 -10 -29 -5 3 -9 14
-8 26 2 13 -1 20 -7 16 -6 -3 -10 -11 -10 -17 0 -12 -30 -37 -44 -38 -5 0 -2
8 7 18 10 10 17 22 17 26 0 4 -11 -5 -24 -21 -20 -24 -26 -25 -40 -14 -11 9
-16 10 -16 2 0 -6 -3 -10 -7 -10 -26 4 -34 -2 -27 -23 6 -21 5 -22 -11 -8 -11
9 -16 10 -11 3 4 -7 3 -13 -3 -13 -5 0 -9 -9 -8 -20 1 -10 3 -17 6 -15 2 3 10
0 17 -6 8 -7 14 -7 19 1 3 5 -1 10 -9 10 -8 0 -17 4 -20 8 -7 11 34 9 54 -3 9
-5 7 1 -5 16 -15 18 -16 20 -2 10 9 -7 17 -10 17 -7 0 4 9 2 20 -4 14 -7 20
-7 20 0 0 5 -8 10 -17 10 -13 0 -9 6 12 19 23 14 33 16 44 7 10 -7 13 -7 8 0
-4 6 2 10 15 9 12 -1 24 -7 26 -13 5 -17 22 -15 22 3 0 8 -4 15 -8 15 -13 0
-11 34 2 42 18 12 31 9 18 -4 -13 -13 -16 -39 -4 -37 19 3 32 -2 32 -12 0 -8
-6 -7 -17 2 -15 12 -16 12 -11 -3 8 -19 -14 -31 -39 -21 -11 4 -14 3 -9 -5 5
-8 2 -10 -9 -6 -11 5 -14 2 -9 -12 5 -16 4 -16 -5 -4 -9 13 -13 12 -27 -9 -16
-23 -18 -23 -30 -6 -8 10 -17 16 -20 12 -4 -4 -2 -12 4 -20 8 -9 8 -17 0 -27
-8 -12 -9 -12 -4 2 6 20 -28 45 -39 28 -3 -5 2 -10 12 -10 15 0 16 -2 3 -10
-9 -6 -17 -5 -21 2 -4 7 -9 6 -14 -2 -4 -6 -14 -9 -22 -6 -11 4 -13 2 -9 -9 8
-23 -30 0 -44 25 -12 22 -4 25 20 10 11 -7 11 -10 2 -10 -7 0 -10 -5 -6 -11
12 -20 27 7 15 29 -6 10 -8 21 -6 24 2 2 -5 9 -15 16 -12 7 -20 8 -20 2 0 -5
4 -10 9 -10 5 0 12 -7 15 -16 5 -14 4 -15 -9 -4 -8 7 -15 8 -15 3 0 -5 -9 -9
-19 -10 -11 -1 -19 4 -17 10 1 7 1 9 -1 4 -3 -4 -10 -4 -16 0 -8 4 -8 1 1 -9
10 -12 10 -17 -1 -27 -8 -6 -17 -8 -20 -4 -4 3 -7 1 -7 -5 0 -7 -4 -12 -9 -12
-5 0 -7 9 -4 19 3 13 11 18 21 14 13 -5 14 -3 5 7 -13 14 -33 5 -33 -16 0 -17
-12 -18 -28 -2 -9 9 -12 9 -12 0 0 -7 6 -12 13 -12 8 0 8 -3 -2 -9 -8 -5 -11
-16 -7 -27 6 -17 5 -18 -7 -2 -12 15 -14 15 -24 -1 -6 -9 -21 -17 -33 -18 -17
-2 -20 1 -11 10 6 6 11 15 11 19 0 4 -9 -1 -21 -13 -15 -15 -24 -18 -34 -9 -9
8 -14 7 -18 -5 -4 -9 -13 -12 -24 -9 -15 5 -15 4 -3 -5 9 -6 18 -7 24 -1 15
15 30 12 17 -3 -6 -8 -8 -17 -4 -20 10 -11 -6 -8 -28 4 -15 8 -24 7 -37 -3
-14 -11 -15 -11 -9 5 4 11 3 16 -4 12 -6 -4 -8 -14 -5 -22 4 -10 2 -13 -7 -10
-7 3 -24 -4 -38 -14 -30 -23 -46 -24 -28 -1 11 14 10 14 -8 -2 -19 -15 -25
-16 -38 -6 -10 8 -15 9 -15 1 0 -6 5 -11 11 -11 5 0 7 -5 4 -10 -4 -7 -12 -7
-25 0 -10 5 -22 10 -27 10 -10 -1 48 -33 65 -36 6 -1 10 1 8 5 -3 4 -1 13 3
20 6 10 10 9 14 -3 3 -8 2 -18 -3 -21 -6 -4 -10 -10 -10 -15 0 -12 44 30 57
54 7 12 13 15 17 7 4 -6 2 -11 -3 -11 -6 0 -11 -5 -11 -12 0 -9 3 -9 12 0 7 7
15 12 19 12 9 0 6 -27 -4 -36 -4 -4 -2 -13 5 -21 8 -11 7 -12 -6 -7 -19 7 -20
16 -4 32 7 7 8 12 2 12 -5 0 -15 -5 -22 -12 -7 -7 -12 -9 -12 -5 0 4 -8 -1
-18 -10 -25 -24 -16 -39 9 -17 18 16 19 16 13 1 -3 -9 -10 -17 -16 -17 -5 0
-7 -4 -4 -8 3 -5 -1 -9 -9 -9 -8 0 -13 3 -10 5 3 3 0 11 -6 18 -12 14 -29 10
-29 -7 0 -6 4 -8 8 -5 4 2 9 -4 9 -15 1 -10 -2 -19 -8 -19 -5 0 -8 6 -6 13 1
7 -6 11 -18 9 -22 -3 -70 43 -60 58 3 5 1 11 -4 14 -11 7 -23 -22 -15 -35 3
-5 -2 -9 -10 -9 -9 0 -16 -8 -15 -17 0 -11 3 -13 6 -5 2 6 11 12 20 12 13 0
12 -2 -1 -15 -14 -14 -11 -25 30 -106 27 -53 50 -89 57 -86 7 3 251 100 542
217 577 231 598 240 642 279 59 52 104 174 69 187 -9 3 -16 11 -16 17 0 7 4 7
12 -1 19 -19 24 -14 24 27 1 30 -2 36 -12 27 -7 -7 -9 -15 -3 -20 5 -6 9 -15
9 -20 0 -6 -5 -3 -11 7 -6 9 -13 15 -17 13 -11 -7 -8 78 3 87 6 5 -1 5 -15 1
-23 -6 -24 -6 -10 12 8 10 10 16 6 12 -5 -4 -16 -2 -25 5 -14 10 -14 10 -3 -5z
m32 -48 c0 -5 -5 -12 -10 -15 -8 -5 -7 -12 2 -23 12 -15 11 -16 -5 -3 -12 9
-14 17 -7 26 6 8 5 16 -3 24 -9 10 -8 11 6 6 9 -4 17 -11 17 -15z m-46 -49 c3
-5 -1 -11 -9 -14 -9 -4 -12 -1 -8 9 6 16 10 17 17 5z m-79 -51 c3 -5 1 -10 -4
-10 -6 0 -11 5 -11 10 0 6 2 10 4 10 3 0 8 -4 11 -10z m89 -56 c3 -8 2 -12 -4
-9 -6 3 -10 10 -10 16 0 14 7 11 14 -7z m-287 -9 c-4 -8 -2 -17 3 -20 7 -4 6
-13 0 -25 -8 -15 -6 -21 7 -29 10 -6 13 -11 8 -11 -6 0 -16 5 -23 12 -9 9 -12
9 -12 1 0 -7 5 -15 10 -18 16 -10 12 -25 -7 -25 -14 0 -15 2 -4 9 9 6 10 10 2
16 -7 4 -9 16 -5 27 6 21 6 21 -25 -1 -24 -18 -30 -28 -26 -44 5 -18 4 -19 -4
-7 -6 8 -11 11 -11 5 0 -5 -7 -2 -14 8 -8 10 -17 18 -20 18 -24 -3 -28 0 -16
13 6 8 19 12 27 9 10 -4 14 -2 10 4 -4 6 0 16 7 22 10 9 16 9 21 1 5 -8 11 -5
21 7 7 10 14 14 14 8 0 -5 7 1 16 13 17 25 29 29 21 7z m203 -15 c0 -5 -4 -10
-10 -10 -5 0 -10 5 -10 10 0 6 5 10 10 10 6 0 10 -4 10 -10z m74 1 c3 -5 -2
-15 -12 -22 -15 -12 -16 -12 -5 2 7 9 10 19 6 22 -3 4 -4 7 0 7 3 0 8 -4 11
-9z m-112 -18 c-9 -3 -10 -9 -3 -17 7 -8 5 -12 -9 -12 -15 0 -16 4 -9 18 5 10
15 18 22 17 9 0 8 -2 -1 -6z m-322 -13 c0 -5 -2 -10 -4 -10 -3 0 -8 5 -11 10
-3 6 -1 10 4 10 6 0 11 -4 11 -10z m357 -5 c0 -8 -4 -12 -9 -9 -5 3 -6 10 -3
15 9 13 12 11 12 -6z m-107 -9 c0 -2 -7 -7 -16 -10 -8 -3 -12 -2 -9 4 6 10 25
14 25 6z m-295 -36 c3 -5 1 -10 -4 -10 -6 0 -11 5 -11 10 0 6 2 10 4 10 3 0 8
-4 11 -10z m165 0 c0 -5 -4 -10 -10 -10 -5 0 -10 5 -10 10 0 6 5 10 10 10 6 0
10 -4 10 -10z m83 4 c-7 -3 -9 -13 -6 -22 4 -14 3 -14 -5 -2 -12 16 -7 30 11
29 9 0 9 -2 0 -5z m-335 -35 c-17 -13 -26 -14 -39 -6 -25 16 -16 24 26 23 35
-1 35 -1 13 -17z m252 1 c0 -5 -5 -10 -11 -10 -5 0 -7 5 -4 10 3 6 8 10 11 10
2 0 4 -4 4 -10z m-58 -7 c-6 -2 -9 -10 -6 -15 4 -7 2 -8 -5 -4 -13 9 -5 26 12
25 9 0 8 -2 -1 -6z m-29 -26 c3 -7 -3 -13 -13 -13 -10 0 -16 6 -13 13 3 7 9
13 13 13 4 0 10 -6 13 -13z m-57 -32 c1 -8 -2 -13 -6 -10 -5 3 -11 1 -15 -5
-3 -5 -11 -10 -18 -10 -6 0 -1 7 11 16 12 8 19 21 16 27 -4 7 -3 8 1 4 5 -4
10 -14 11 -22z m-246 -25 c7 -16 17 -27 23 -23 6 3 7 1 3 -5 -4 -6 -13 -9 -21
-6 -8 4 -13 10 -10 14 3 5 -4 8 -15 7 -24 -2 -26 -12 -5 -21 8 -3 15 -11 15
-18 0 -9 -3 -8 -10 2 -9 14 -14 7 -11 -13 1 -5 -3 -6 -8 -2 -6 3 -7 13 -4 23
5 13 3 14 -7 5 -7 -6 -19 -9 -28 -6 -11 5 -13 3 -7 -8 4 -8 5 -11 1 -8 -4 4
-19 -5 -33 -19 -19 -19 -27 -22 -33 -12 -5 7 -5 20 -2 29 5 13 3 14 -10 3 -9
-7 -14 -24 -12 -40 2 -15 1 -19 -2 -9 -3 9 -10 15 -15 12 -5 -4 -6 2 -2 12 6
16 5 17 -11 4 -16 -14 -16 -16 -2 -27 9 -6 16 -15 16 -19 0 -5 -8 -1 -18 8
-16 15 -19 15 -30 -4 -7 -11 -17 -17 -23 -13 -6 3 -20 -2 -31 -13 -12 -10 -18
-13 -15 -7 4 7 0 17 -8 24 -11 9 -14 8 -14 -7 -1 -36 -4 -53 -10 -47 -3 3 -5
16 -6 29 0 13 -9 31 -20 40 -11 9 -14 14 -8 10 7 -3 23 1 35 9 20 14 24 14 45
1 13 -9 24 -11 24 -5 1 5 2 14 3 20 0 5 7 15 15 22 11 11 14 11 18 0 4 -10 8
-10 19 -1 8 6 14 8 14 4 0 -5 9 0 19 9 12 11 21 14 26 7 11 -19 25 -12 22 12
-2 18 3 22 27 22 18 -1 38 8 53 23 27 27 36 24 53 -18z m167 -5 c0 -8 -4 -12
-9 -9 -5 3 -6 10 -3 15 9 13 12 11 12 -6z m-77 -15 c0 -5 -4 -10 -10 -10 -5 0
-10 5 -10 10 0 6 5 10 10 10 6 0 10 -4 10 -10z m-38 -17 c-6 -2 -9 -10 -6 -15
4 -7 2 -8 -5 -4 -13 9 -5 26 12 25 9 0 8 -2 -1 -6z m118 3 c0 -2 -7 -7 -16
-10 -8 -3 -12 -2 -9 4 6 10 25 14 25 6z m-226 -35 c3 -5 -1 -11 -9 -15 -8 -3
-17 0 -21 6 -4 7 -3 8 4 4 7 -4 12 -2 12 3 0 13 7 14 14 2z m86 -7 c0 -8 -19
-13 -24 -6 -3 5 1 9 9 9 8 0 15 -2 15 -3z m65 -4 c3 -6 -1 -7 -9 -4 -18 7 -21
14 -7 14 6 0 13 -4 16 -10z m-135 -15 c-7 -8 -17 -15 -23 -15 -6 0 -2 7 9 15
25 19 30 19 14 0z m-47 -2 c3 -5 -6 -9 -20 -10 -19 -1 -22 1 -12 8 17 11 26
11 32 2z m-319 -38 c-4 -8 -11 -15 -16 -15 -6 0 -5 6 2 15 7 8 14 15 16 15 2
0 1 -7 -2 -15z m196 -2 c0 -5 -5 -15 -10 -23 -7 -12 -9 -10 -7 8 1 19 17 33
17 15z m-58 -20 c-6 -2 -9 -10 -6 -15 4 -7 2 -8 -5 -4 -13 9 -5 26 12 25 9 0
8 -2 -1 -6z m83 -3 c-3 -5 -12 -10 -18 -10 -7 0 -6 4 3 10 19 12 23 12 15 0z
m55 0 c0 -5 -2 -10 -4 -10 -3 0 -8 5 -11 10 -3 6 -1 10 4 10 6 0 11 -4 11 -10z
m-181 -53 c8 -10 7 -14 -2 -14 -8 0 -14 6 -14 14 0 7 1 13 2 13 2 0 8 -6 14
-13z m-243 -26 c-3 -5 1 -12 10 -15 8 -3 12 -11 8 -17 -5 -9 -11 -7 -20 6 -12
16 -11 35 2 35 3 0 3 -4 0 -9z m204 5 c0 -3 -4 -8 -10 -11 -5 -3 -10 -1 -10 4
0 6 5 11 10 11 6 0 10 -2 10 -4z"/>
<path d="M5745 3850 c-4 -6 -11 -7 -17 -4 -6 4 -8 2 -5 -3 4 -6 0 -13 -8 -17
-8 -3 -17 -1 -20 5 -4 5 -11 7 -16 3 -5 -3 -7 -9 -4 -14 3 -5 1 -11 -4 -15 -6
-3 -8 -11 -5 -19 3 -8 16 -2 40 21 20 18 39 31 44 28 5 -3 11 -1 14 4 4 5 2
12 -3 15 -5 4 -12 2 -16 -4z m-51 -29 c3 -5 -2 -15 -12 -22 -15 -12 -16 -12
-5 2 7 9 10 19 6 22 -3 4 -4 7 0 7 3 0 8 -4 11 -9z"/>
<path d="M5310 3683 c0 -7 -6 -12 -12 -10 -7 1 -12 -4 -10 -10 2 -12 -10 -17
-30 -14 -5 0 -8 -4 -8 -10 0 -8 -4 -8 -14 0 -9 8 -16 8 -20 2 -4 -5 -2 -13 4
-16 6 -4 1 -14 -12 -25 -18 -15 -20 -19 -7 -20 9 0 24 12 34 26 9 15 22 23 31
20 7 -3 18 4 24 15 6 11 15 17 20 14 13 -8 20 9 9 25 -6 10 -9 11 -9 3z"/>
<path d="M5159 3603 c-13 -16 -12 -17 4 -4 9 7 17 15 17 17 0 8 -8 3 -21 -13z"/>
<path d="M5086 3591 c-4 -6 -5 -11 -1 -11 3 0 1 -9 -5 -19 -18 -35 4 -29 35 8
16 20 23 30 14 24 -11 -9 -19 -9 -26 -2 -8 8 -13 8 -17 0z m19 -10 c3 -5 2
-12 -3 -15 -5 -3 -9 1 -9 9 0 17 3 19 12 6z"/>
<path d="M5005 3553 c-15 -12 -16 -14 -3 -10 9 3 22 -1 28 -8 12 -15 30 -12
30 5 0 20 -35 28 -55 13z m40 -11 c-3 -3 -11 0 -18 7 -9 10 -8 11 6 5 10 -3
15 -9 12 -12z"/>
<path d="M5470 4063 c0 -6 7 -16 15 -23 8 -7 12 -17 8 -23 -4 -6 -1 -7 6 -3 9
6 8 13 -6 29 -10 12 -19 24 -20 26 -2 2 -3 0 -3 -6z"/>
<path d="M5610 4059 c0 -5 5 -7 10 -4 6 3 10 8 10 11 0 2 -4 4 -10 4 -5 0 -10
-5 -10 -11z"/>
<path d="M5996 4062 c-3 -5 1 -9 9 -9 8 0 12 4 9 9 -3 4 -7 8 -9 8 -2 0 -6 -4
-9 -8z"/>
<path d="M5910 4056 c0 -2 8 -10 18 -17 15 -13 16 -12 3 4 -13 16 -21 21 -21
13z"/>
<path d="M6117 4053 c-10 -9 -9 -23 1 -23 5 0 9 7 9 15 0 17 -1 18 -10 8z"/>
<path d="M5550 4046 c0 -2 7 -7 16 -10 8 -3 12 -2 9 4 -6 10 -25 14 -25 6z"/>
<path d="M5388 4008 c-10 -10 -14 -18 -9 -18 10 0 36 29 30 34 -2 1 -12 -6
-21 -16z"/>
<path d="M5913 4015 c0 -8 4 -12 9 -9 5 3 6 10 3 15 -9 13 -12 11 -12 -6z"/>
<path d="M5323 4004 c-3 -8 0 -21 6 -27 9 -9 11 -8 5 7 -4 11 -2 21 7 27 10 6
11 9 1 9 -7 0 -15 -7 -19 -16z"/>
<path d="M5415 3991 c-3 -5 -2 -12 3 -15 5 -3 9 1 9 9 0 17 -3 19 -12 6z"/>
<path d="M5866 3977 c3 -10 9 -15 12 -12 3 3 0 11 -7 18 -10 9 -11 8 -5 -6z"/>
<path d="M5251 3964 c0 -11 3 -14 6 -6 3 7 2 16 -1 19 -3 4 -6 -2 -5 -13z"/>
<path d="M5026 3962 c-3 -5 1 -9 9 -9 8 0 12 4 9 9 -3 4 -7 8 -9 8 -2 0 -6 -4
-9 -8z"/>
<path d="M5650 3965 c0 -5 5 -17 10 -25 5 -8 10 -10 10 -5 0 6 -5 17 -10 25
-5 8 -10 11 -10 5z"/>
<path d="M5757 3953 c-13 -12 -7 -23 11 -22 10 0 12 3 4 6 -6 2 -10 9 -6 14 6
10 0 12 -9 2z"/>
<path d="M5278 3943 c7 -3 16 -2 19 1 4 3 -2 6 -13 5 -11 0 -14 -3 -6 -6z"/>
<path d="M6035 3941 c-3 -6 -10 -9 -14 -7 -4 3 -8 -1 -8 -9 0 -8 4 -15 7 -15
11 0 34 30 27 36 -3 3 -8 0 -12 -5z"/>
<path d="M5256 3927 c3 -10 9 -15 12 -12 3 3 0 11 -7 18 -10 9 -11 8 -5 -6z"/>
<path d="M4886 3914 c-11 -8 -16 -14 -11 -14 14 0 -14 -25 -28 -25 -7 -1 -15
4 -19 10 -5 6 -11 6 -19 -2 -9 -9 -17 -9 -33 -1 -19 10 -19 9 -8 -5 11 -13 10
-17 -5 -27 -13 -8 -15 -13 -5 -17 10 -4 10 -8 1 -19 -9 -11 -8 -18 1 -29 10
-13 9 -19 -6 -36 -15 -16 -15 -19 -2 -14 23 9 31 35 17 52 -10 11 -9 18 5 31
17 16 18 16 11 -5 -4 -15 -2 -23 5 -23 6 0 8 5 5 11 -4 6 0 9 11 7 11 -2 22
-10 27 -18 4 -8 5 -2 2 14 -5 25 -4 28 9 17 12 -10 16 -9 25 6 6 10 11 14 11
8 0 -5 4 -4 9 4 6 8 14 10 22 5 19 -12 40 -14 34 -4 -3 5 4 12 16 15 11 4 18
9 15 12 -3 3 -17 -2 -30 -11 -27 -17 -42 -9 -20 12 8 7 14 10 14 6 0 -3 6 -2
13 3 18 13 71 17 63 4 -4 -6 -2 -11 4 -11 19 0 6 22 -18 31 -14 5 -22 4 -22
-3 0 -7 -4 -7 -14 1 -11 9 -17 8 -29 -4 -10 -9 -18 -11 -22 -5 -4 6 -11 8 -16
5 -5 -4 -9 -2 -9 4 0 5 6 11 13 14 6 2 10 7 7 10 -3 3 -14 -1 -24 -9z m30 -36
c3 -4 -8 -14 -25 -23 -17 -8 -31 -20 -31 -26 0 -6 -5 -7 -10 -4 -6 4 -8 11 -5
16 4 5 2 9 -4 9 -5 0 -13 -9 -16 -21 -6 -19 -8 -19 -24 -5 -10 9 -21 13 -24 9
-4 -3 -7 -2 -7 3 1 16 48 45 55 34 4 -6 11 -8 16 -5 5 4 9 1 9 -4 0 -6 5 -11
12 -11 6 0 8 3 5 7 -4 3 -2 12 4 19 10 12 33 13 45 2z"/>
<path d="M4799 3853 c-8 -9 -9 -14 -2 -10 6 4 13 2 15 -5 3 -8 7 -6 11 5 9 23
-8 30 -24 10z"/>
<path d="M5165 3920 c-3 -6 1 -7 9 -4 18 7 21 14 7 14 -6 0 -13 -4 -16 -10z"/>
<path d="M5115 3909 c-4 -6 -5 -12 -2 -15 2 -3 7 2 10 11 7 17 1 20 -8 4z"/>
<path d="M5914 3909 c-2 -4 2 -10 8 -12 10 -4 10 -6 1 -6 -7 -1 -13 -6 -13
-11 0 -6 11 -3 25 6 20 13 28 14 40 4 9 -7 18 -10 22 -7 3 4 -2 9 -11 13 -9 3
-14 9 -12 13 2 3 -9 6 -26 6 -16 1 -31 -2 -34 -6z"/>
<path d="M5135 3901 c-3 -5 -2 -12 3 -15 5 -3 9 1 9 9 0 17 -3 19 -12 6z"/>
<path d="M5195 3890 c10 -11 20 -20 23 -20 3 0 -3 9 -13 20 -10 11 -20 20 -23
20 -3 0 3 -9 13 -20z"/>
<path d="M5690 3906 c0 -3 9 -10 20 -16 11 -6 20 -8 20 -6 0 3 -9 10 -20 16
-11 6 -20 8 -20 6z"/>
<path d="M5050 3881 c0 -6 4 -13 10 -16 6 -3 7 1 4 9 -7 18 -14 21 -14 7z"/>
<path d="M5510 3883 c0 -6 8 -17 18 -24 16 -13 16 -13 2 6 -8 11 -16 22 -17
24 -2 2 -3 0 -3 -6z"/>
<path d="M5554 3878 c-4 -7 -4 -10 1 -6 4 4 15 2 24 -5 14 -11 14 -10 2 6 -16
20 -18 21 -27 5z"/>
<path d="M5616 3879 c3 -5 9 -7 14 -4 4 3 11 0 13 -5 3 -6 4 -5 3 1 -1 7 -10
13 -19 15 -9 1 -15 -2 -11 -7z"/>
<path d="M5680 3880 c8 -5 20 -10 25 -10 6 0 3 5 -5 10 -8 5 -19 10 -25 10 -5
0 -3 -5 5 -10z"/>
<path d="M5796 3861 c-3 -4 6 -7 19 -7 14 0 22 2 19 5 -8 8 -34 10 -38 2z"/>
<path d="M4698 3838 c-13 -13 -22 -22 -20 -21 3 1 12 -2 22 -7 12 -6 17 -5 17
5 0 8 -4 12 -9 9 -14 -9 -9 3 8 16 12 11 15 11 12 0 -2 -7 3 -15 10 -17 11 -4
12 -1 3 16 -14 26 -15 26 -43 -1z"/>
<path d="M4993 3845 c0 -8 4 -15 9 -15 4 0 8 7 8 15 0 8 -4 15 -8 15 -5 0 -9
-7 -9 -15z"/>
<path d="M5035 3839 c-3 -4 2 -6 10 -5 21 3 28 13 10 13 -9 0 -18 -4 -20 -8z"/>
<path d="M5450 3841 c0 -6 4 -13 10 -16 6 -3 7 1 4 9 -7 18 -14 21 -14 7z"/>
<path d="M4895 3819 c-4 -6 -4 -13 -1 -16 3 -4 6 -1 6 6 0 7 5 9 12 5 7 -4 8
-3 4 4 -9 15 -13 15 -21 1z"/>
<path d="M4558 3811 c7 -4 15 -17 16 -27 2 -10 6 -18 9 -16 4 1 9 2 12 2 3 0
-2 11 -11 25 -9 14 -21 25 -28 25 -7 0 -6 -3 2 -9z"/>
<path d="M5391 3806 c-9 -10 -8 -15 2 -19 8 -3 13 3 13 14 0 23 0 23 -15 5z"/>
<path d="M4986 3802 c-3 -5 1 -9 9 -9 8 0 15 4 15 9 0 4 -4 8 -9 8 -6 0 -12
-4 -15 -8z"/>
<path d="M5470 3800 c0 -5 5 -10 10 -10 6 0 10 5 10 10 0 6 -4 10 -10 10 -5 0
-10 -4 -10 -10z"/>
<path d="M4935 3791 c-3 -5 -2 -12 3 -15 5 -3 9 1 9 9 0 17 -3 19 -12 6z"/>
<path d="M5325 3780 c-3 -6 1 -7 9 -4 18 7 21 14 7 14 -6 0 -13 -4 -16 -10z"/>
<path d="M4736 3763 c-6 -14 -5 -15 5 -6 7 7 10 15 7 18 -3 3 -9 -2 -12 -12z"/>
<path d="M5372 3760 c0 -14 2 -19 5 -12 2 6 2 18 0 25 -3 6 -5 1 -5 -13z"/>
<path d="M4866 3758 c3 -5 10 -6 15 -3 13 9 11 12 -6 12 -8 0 -12 -4 -9 -9z"/>
<path d="M5274 3752 c3 -5 0 -13 -6 -15 -9 -4 -10 -6 -1 -6 17 -1 25 16 12 25
-7 4 -9 3 -5 -4z"/>
<path d="M5514 3749 c-4 -7 -9 -24 -10 -37 l-3 -24 23 24 c12 13 31 29 42 36
18 12 18 12 -2 3 -14 -7 -24 -7 -31 0 -8 8 -13 7 -19 -2z"/>
<path d="M5196 3742 c-3 -5 1 -9 9 -9 8 0 12 4 9 9 -3 4 -7 8 -9 8 -2 0 -6 -4
-9 -8z"/>
<path d="M5306 3737 c3 -10 9 -15 12 -12 3 3 0 11 -7 18 -10 9 -11 8 -5 -6z"/>
<path d="M5056 3707 c3 -10 9 -15 12 -12 3 3 0 11 -7 18 -10 9 -11 8 -5 -6z"/>
<path d="M4673 3672 c-1 -22 0 -24 9 -8 6 10 6 22 2 26 -5 5 -10 -3 -11 -18z"/>
<path d="M5136 3686 c3 -8 13 -17 21 -20 25 -10 23 -3 -3 17 -18 13 -22 14
-18 3z"/>
<path d="M4635 3680 c3 -5 8 -10 11 -10 2 0 4 5 4 10 0 6 -5 10 -11 10 -5 0
-7 -4 -4 -10z"/>
<path d="M5390 3680 c0 -5 5 -10 11 -10 5 0 7 5 4 10 -3 6 -8 10 -11 10 -2 0
-4 -4 -4 -10z"/>
<path d="M5096 3656 c5 -13 4 -17 -4 -12 -7 4 -12 2 -12 -3 0 -14 17 -14 26 0
3 6 1 16 -5 22 -9 9 -10 7 -5 -7z"/>
<path d="M4955 3649 c-4 -6 -5 -12 -2 -15 2 -3 7 2 10 11 7 17 1 20 -8 4z"/>
<path d="M5050 3645 c-7 -9 -11 -17 -9 -20 3 -2 10 5 17 15 14 24 10 26 -8 5z"/>
<path d="M5140 3640 c0 -5 5 -10 10 -10 6 0 10 5 10 10 0 6 -4 10 -10 10 -5 0
-10 -4 -10 -10z"/>
<path d="M4990 3620 c0 -5 5 -10 10 -10 6 0 10 5 10 10 0 6 -4 10 -10 10 -5 0
-10 -4 -10 -10z"/>
<path d="M4930 3599 c0 -5 5 -7 10 -4 6 3 10 8 10 11 0 2 -4 4 -10 4 -5 0 -10
-5 -10 -11z"/>
<path d="M4953 3591 c-13 -11 -23 -22 -23 -25 0 -10 39 18 44 31 7 17 6 16
-21 -6z"/>
<path d="M4748 3561 c-14 -17 -14 -20 -2 -25 12 -4 12 -10 4 -26 -15 -27 4
-26 32 2 13 13 16 19 6 16 -23 -9 -39 11 -27 34 13 23 8 23 -13 -1z"/>
<path d="M4802 3566 c-31 -18 -34 -22 -13 -22 11 0 24 8 30 18 6 10 10 18 9
17 -2 -1 -13 -7 -26 -13z"/>
<path d="M4875 3560 c-3 -5 -2 -10 4 -10 5 0 13 5 16 10 3 6 2 10 -4 10 -5 0
-13 -4 -16 -10z"/>
<path d="M4804 3494 c1 -8 8 -19 15 -23 7 -5 11 -12 9 -17 -1 -5 5 -10 16 -12
11 -3 16 0 11 7 -3 6 -10 9 -14 7 -4 -3 -8 5 -8 16 -2 19 -1 19 11 3 13 -19
37 -13 35 8 0 9 -2 9 -6 0 -3 -10 -8 -9 -20 2 -8 8 -19 13 -24 10 -5 -4 -9 -1
-9 4 0 6 -4 11 -9 11 -5 0 -8 -7 -7 -16z"/>
<path d="M4809 2452 c0 -4 -2 -16 -5 -27 -8 -42 -17 -111 -18 -135 -1 -14 -5
-28 -11 -32 -5 -4 0 -8 12 -8 12 0 25 -5 29 -12 4 -7 3 -8 -4 -4 -7 4 -20 2
-29 -3 -14 -8 -15 -10 -3 -11 13 0 13 -1 0 -11 -13 -9 -13 -10 0 -6 8 2 14 11
12 18 -3 11 -1 11 9 2 10 -10 9 -17 -9 -33 -25 -23 -30 -39 -7 -20 13 11 18
11 28 0 8 -8 8 -11 1 -7 -7 4 -18 -1 -25 -11 -7 -9 -9 -14 -5 -10 5 4 16 2 24
-5 13 -10 14 -9 7 2 -6 11 -4 13 10 8 16 -7 17 -6 1 17 -17 27 -10 37 28 43
16 3 17 1 5 -14 -7 -10 -9 -15 -5 -11 5 4 14 1 20 -7 9 -13 11 -11 12 9 2 24
-19 41 -36 31 -5 -3 -11 -1 -15 5 -3 5 3 10 14 10 16 0 19 5 15 33 -3 25 -2
28 5 12 5 -11 10 -16 10 -11 1 4 10 -2 22 -15 16 -18 19 -20 15 -6 -3 11 -2
16 4 12 6 -3 10 -1 10 4 0 6 5 11 12 11 9 0 9 -3 0 -12 -17 -17 -15 -33 2 -19
10 8 16 9 21 1 7 -12 25 -4 25 11 0 6 -6 7 -12 3 -7 -4 -9 -3 -5 1 4 5 14 10
22 11 12 2 13 -2 4 -18 -6 -11 -8 -22 -5 -25 3 -3 8 2 12 11 3 9 11 16 17 16
7 0 7 -4 -1 -12 -23 -23 -12 -28 20 -8 l31 19 29 -24 c17 -15 35 -22 45 -18
13 5 15 2 10 -13 -7 -19 -7 -19 8 0 12 16 12 22 2 29 -9 6 -9 8 2 5 17 -5 24
-38 8 -38 -14 0 0 -13 18 -16 17 -3 14 38 -6 63 -9 12 -5 10 15 -5 23 -18 31
-20 38 -10 6 9 7 6 3 -8 -3 -13 1 -26 11 -35 15 -12 16 -11 10 9 -5 14 -3 22
4 22 6 0 8 -5 4 -12 -5 -8 -2 -9 11 -4 18 6 18 6 2 -12 -9 -10 -14 -23 -10
-27 5 -5 0 -3 -9 4 -15 11 -18 11 -18 0 0 -8 -6 -5 -15 7 -13 18 -14 18 -8 -4
4 -17 10 -21 24 -17 13 5 19 2 17 -7 -2 -8 5 -12 20 -11 12 2 22 -2 22 -7 0
-10 -13 -14 -37 -11 -17 2 -25 -16 -12 -25 8 -5 9 -3 4 6 -6 9 -4 12 7 8 8 -4
21 -2 29 2 9 6 20 3 32 -8 17 -15 19 -14 42 13 13 17 24 25 25 18 0 -6 -4 -14
-9 -17 -5 -3 -11 -15 -14 -26 -3 -11 -1 -18 4 -14 5 3 9 12 9 20 0 8 4 13 9
10 5 -4 22 4 38 17 15 13 35 22 43 19 13 -5 13 -3 1 11 -20 25 -8 42 30 44 26
1 29 0 12 -5 -18 -6 -20 -10 -12 -22 8 -11 12 -12 16 -2 2 6 9 12 15 12 6 0 3
-9 -7 -20 -20 -22 -8 -28 14 -7 11 10 13 10 7 0 -4 -7 -2 -13 3 -13 6 0 11 -4
11 -8 0 -5 -7 -9 -15 -9 -8 0 -11 5 -8 10 3 6 1 7 -6 3 -6 -4 -9 -13 -5 -19 3
-7 -2 -3 -10 7 -12 15 -16 16 -16 5 0 -11 -2 -12 -9 0 -6 10 -10 10 -16 1 -4
-7 -10 -8 -14 -4 -3 5 -19 -3 -34 -18 -19 -18 -24 -29 -16 -34 7 -4 9 -3 5 4
-3 6 3 13 14 17 11 3 20 11 20 16 0 6 4 8 10 4 5 -3 7 -13 4 -23 -5 -14 -4
-15 5 -2 10 13 15 8 12 -12 0 -5 3 -8 9 -8 15 0 12 11 -7 32 -9 10 -11 18 -5
18 6 0 19 -11 27 -24 20 -30 37 -37 56 -25 12 8 12 10 -1 8 -28 -3 -40 1 -40
12 0 6 7 9 14 6 9 -4 13 -1 10 6 -2 8 4 13 17 14 18 2 19 0 7 -14 -8 -10 -8
-14 -1 -10 6 4 13 1 16 -5 2 -7 8 -9 13 -5 5 4 2 12 -6 17 -8 6 -10 10 -4 10
17 0 33 -22 27 -39 -4 -9 4 -5 16 9 17 18 21 20 17 7 -3 -10 -2 -16 3 -12 5 3
11 0 13 -7 3 -8 9 -8 24 0 11 7 14 12 5 12 -8 0 -11 6 -7 16 4 10 2 13 -6 8
-6 -4 -8 -3 -5 3 3 5 0 10 -8 10 -8 0 -11 -5 -8 -11 4 -6 0 -5 -9 1 -8 7 -19
9 -23 5 -5 -4 -5 0 0 8 6 12 5 13 -5 3 -15 -14 -55 2 -45 18 4 5 1 9 -4 9 -6
0 -11 8 -11 18 1 16 1 16 11 -1 6 -9 14 -15 19 -12 4 3 11 -2 14 -11 6 -15 9
-15 29 -1 21 14 24 13 35 -4 7 -10 18 -19 24 -19 9 0 9 3 0 12 -7 7 -12 17
-12 22 0 6 7 3 15 -7 7 -11 11 -25 8 -33 -4 -10 0 -13 13 -8 17 5 17 4 -1 -7
-19 -12 -19 -12 0 -20 17 -6 17 -8 3 -8 -11 -1 -15 -6 -12 -15 3 -8 1 -17 -5
-21 -6 -3 -9 0 -8 7 2 7 2 10 0 5 -3 -4 -9 -4 -15 -1 -12 8 3 -22 27 -51 16
-20 16 -20 6 2 -15 30 -14 32 9 28 11 -2 18 0 15 6 -4 5 0 9 8 9 8 0 22 9 32
20 15 16 16 23 6 33 -10 9 -11 9 -6 -4 3 -9 0 -20 -7 -26 -21 -16 -48 -23 -48
-13 0 6 6 10 14 10 7 0 20 8 27 18 12 15 12 16 -2 5 -13 -10 -16 -10 -16 2 0
8 4 12 8 9 4 -2 10 0 14 6 4 7 12 7 24 0 14 -7 23 -4 41 15 12 13 35 29 51 35
16 7 27 15 25 19 -2 3 12 7 32 7 134 5 140 6 145 33 7 33 1 38 -48 45 -22 3
-62 11 -90 16 -27 5 -63 12 -80 14 -16 3 -127 21 -245 41 -118 20 -228 38
-245 41 -16 2 -52 9 -80 14 -60 11 -61 12 -290 50 -99 17 -186 32 -192 35 -7
2 -13 1 -14 -3z m165 -150 c3 -5 -1 -9 -9 -9 -8 0 -15 4 -15 9 0 4 4 8 9 8 6
0 12 -4 15 -8z m-164 -6 c0 -3 -4 -8 -10 -11 -5 -3 -10 -1 -10 4 0 6 5 11 10
11 6 0 10 -2 10 -4z m94 -8 c-5 -8 -1 -9 12 -4 14 5 16 4 8 -4 -6 -6 -19 -8
-28 -4 -14 5 -15 9 -4 15 18 12 20 11 12 -3z m171 -8 c-3 -5 -12 -10 -18 -10
-7 0 -6 4 3 10 19 12 23 12 15 0z m109 -6 c3 -8 2 -12 -4 -9 -6 3 -10 10 -10
16 0 14 7 11 14 -7z m-343 -27 c-10 -9 -11 -8 -5 6 3 10 9 15 12 12 3 -3 0
-11 -7 -18z m209 13 c8 -5 11 -10 5 -10 -5 0 -17 5 -25 10 -8 5 -10 10 -5 10
6 0 17 -5 25 -10z m111 -7 c13 -17 13 -17 -6 -3 -11 8 -22 16 -24 17 -2 2 0 3
6 3 6 0 17 -8 24 -17z m83 8 c3 -5 -1 -14 -8 -20 -10 -9 -16 -9 -21 -1 -4 6
-1 9 7 8 7 -2 12 3 11 10 -3 14 3 16 11 3z m91 -1 c-3 -5 -12 -10 -18 -10 -7
0 -6 4 3 10 19 12 23 12 15 0z m-191 -25 c3 -8 1 -15 -4 -15 -6 0 -10 7 -10
15 0 8 2 15 4 15 2 0 6 -7 10 -15z m156 9 c0 -8 -19 -13 -24 -6 -3 5 1 9 9 9
8 0 15 -2 15 -3z m165 -3 c3 -5 2 -12 -3 -15 -5 -3 -9 1 -9 9 0 17 3 19 12 6z
m65 -5 c0 -2 -8 -10 -17 -17 -16 -13 -17 -12 -4 4 13 16 21 21 21 13z m-208
-40 c3 -19 4 -19 20 -2 18 18 38 14 38 -7 0 -9 -2 -9 -8 0 -5 8 -14 6 -32 -7
l-25 -19 28 5 c27 4 37 -9 15 -22 -7 -5 -8 -3 -3 7 7 11 5 11 -10 -1 -11 -8
-16 -10 -11 -3 5 9 2 11 -7 7 -12 -4 -10 -11 9 -31 13 -14 22 -29 18 -32 -3
-3 -19 10 -35 29 -15 19 -29 29 -29 23 0 -7 -5 -13 -11 -13 -6 0 -1 13 10 29
23 32 29 67 9 55 -7 -5 -8 -3 -3 5 9 15 22 4 27 -23z m108 6 c0 -4 -9 -13 -20
-20 -24 -15 -26 -32 -4 -32 8 0 12 5 9 10 -3 6 1 13 10 17 40 15 36 -45 -4
-67 -16 -8 -18 -7 -14 10 6 24 -9 26 -27 5 -16 -19 -26 -19 -34 1 -3 8 -2 12
4 9 5 -3 17 7 27 22 31 49 53 67 53 45z m40 -4 c0 -4 -4 -8 -9 -8 -6 0 -12 4
-15 8 -3 5 1 9 9 9 8 0 15 -4 15 -9z m143 -25 c-3 -7 -9 -13 -13 -13 -4 0 -10
6 -13 13 -3 7 3 13 13 13 10 0 16 -6 13 -13z m77 -4 c0 -5 -4 -9 -8 -9 -5 0
-9 7 -9 15 0 8 4 12 9 9 4 -3 8 -9 8 -15z m-46 -5 c3 -8 2 -12 -4 -9 -6 3 -10
1 -10 -6 0 -7 -2 -10 -5 -7 -5 5 4 38 10 38 2 0 6 -7 9 -16z m83 -1 c-4 -3 0
-17 8 -30 9 -13 12 -23 7 -23 -11 0 -32 46 -25 54 4 3 9 6 11 6 3 0 2 -3 -1
-7z m43 -3 c0 -5 -2 -10 -4 -10 -3 0 -8 5 -11 10 -3 6 -1 10 4 10 6 0 11 -4
11 -10z m-9 -27 c13 -16 12 -17 -3 -4 -17 13 -22 21 -14 21 2 0 10 -8 17 -17z
m46 -10 c-4 -3 -1 -13 6 -22 11 -14 10 -14 -5 -2 -16 12 -16 31 -1 31 4 0 3
-3 0 -7z m-157 -29 c0 -8 -19 -13 -24 -6 -3 5 1 9 9 9 8 0 15 -2 15 -3z m34
-20 c3 -8 2 -12 -4 -9 -6 3 -10 10 -10 16 0 14 7 11 14 -7z"/>
<path d="M5305 2169 c-4 -6 -5 -12 -2 -15 2 -3 7 2 10 11 7 17 1 20 -8 4z"/>
<path d="M5424 2146 c0 -14 4 -22 8 -20 5 3 6 10 3 15 -4 5 -1 9 5 9 6 0 8 5
5 10 -11 18 -21 11 -21 -14z"/>
<path d="M5369 2133 c-13 -16 -12 -17 4 -4 16 13 21 21 13 21 -2 0 -10 -8 -17
-17z"/>
<path d="M4880 2240 c13 -8 13 -10 1 -10 -11 0 -10 -4 4 -13 10 -8 15 -19 11
-25 -3 -6 -2 -13 4 -17 6 -4 8 -10 5 -15 -3 -4 3 -7 12 -5 21 3 45 -14 37 -26
-3 -5 3 -6 12 -2 11 4 13 8 6 11 -7 2 -9 9 -6 14 4 7 2 8 -4 4 -7 -4 -12 -3
-12 1 0 5 9 14 21 21 19 12 20 12 14 -10 -7 -23 -7 -23 9 -3 17 22 21 13 6
-15 -7 -14 -6 -18 5 -16 8 1 18 6 22 11 4 4 2 5 -4 1 -15 -8 -18 10 -3 19 5 3
15 -3 22 -15 7 -11 17 -20 22 -20 4 0 3 6 -3 13 -6 8 -8 17 -4 20 3 4 12 -1
20 -11 8 -11 12 -12 11 -3 -2 7 3 16 10 18 7 3 12 1 11 -4 -3 -20 2 -34 11
-28 6 3 10 -2 11 -12 0 -13 2 -14 6 -4 3 8 -1 19 -8 25 -13 10 -15 19 -10 44
1 4 9 -8 18 -26 13 -27 18 -30 31 -20 13 11 14 10 8 -9 -4 -12 -2 -24 3 -28 7
-4 8 1 4 12 -6 16 -5 16 10 4 9 -7 18 -10 18 -5 6 40 4 51 -7 51 -8 0 -14 -5
-14 -11 0 -6 -5 -4 -10 4 -5 8 -15 15 -22 15 -7 1 -12 6 -11 12 2 7 -6 10 -16
8 -10 -2 -25 7 -36 21 l-18 24 -32 -19 c-20 -11 -38 -16 -46 -11 -7 5 -16 7
-20 4 -4 -2 -10 3 -13 12 -4 9 -11 12 -18 7 -21 -13 -37 -12 -49 3 -6 8 -17
14 -23 14 -6 0 -4 -5 4 -10z m60 -26 c14 -1 26 -2 28 -3 1 -1 3 0 5 1 1 1 12
-4 23 -10 12 -6 25 -8 28 -4 14 13 66 9 78 -6 10 -13 10 -14 1 -8 -8 4 -13 2
-13 -4 0 -7 -7 -10 -15 -7 -8 4 -17 1 -21 -5 -5 -7 -12 -5 -21 7 -7 11 -13 15
-13 11 0 -4 -7 -3 -17 2 -11 7 -26 4 -48 -9 -30 -18 -33 -18 -46 -2 -12 15
-12 16 3 11 9 -4 24 0 35 8 17 14 17 15 -3 5 -17 -8 -25 -6 -40 11 -12 13 -13
18 -4 12 8 -5 26 -10 40 -10z m230 -56 c0 -4 -4 -8 -9 -8 -6 0 -12 4 -15 8 -3
5 1 9 9 9 8 0 15 -4 15 -9z m40 -18 c0 -5 -4 -10 -10 -10 -5 0 -10 5 -10 10 0
6 5 10 10 10 6 0 10 -4 10 -10z"/>
<path d="M5035 2190 c5 -8 42 -6 50 1 2 3 -8 5 -25 5 -16 0 -27 -3 -25 -6z"/>
<path d="M5210 2202 c0 -4 9 -13 20 -20 19 -12 20 -11 8 8 -13 20 -28 27 -28
12z"/>
<path d="M4825 2190 c-3 -5 -1 -10 4 -10 6 0 11 5 11 10 0 6 -2 10 -4 10 -3 0
-8 -4 -11 -10z"/>
<path d="M5480 2169 c0 -9 7 -22 15 -29 19 -16 19 0 0 26 -12 16 -14 16 -15 3z"/>
<path d="M4845 2160 c3 -5 8 -10 11 -10 2 0 4 5 4 10 0 6 -5 10 -11 10 -5 0
-7 -4 -4 -10z"/>
<path d="M4875 2140 c3 -5 8 -10 11 -10 2 0 4 5 4 10 0 6 -5 10 -11 10 -5 0
-7 -4 -4 -10z"/>
<path d="M4794 2116 c1 -8 5 -18 8 -22 4 -3 5 1 4 10 -1 8 -5 18 -8 22 -4 3
-5 -1 -4 -10z"/>
<path d="M4846 2118 c3 -5 10 -6 15 -3 13 9 11 12 -6 12 -8 0 -12 -4 -9 -9z"/>
<path d="M5076 2122 c-3 -5 1 -9 9 -9 8 0 15 4 15 9 0 4 -4 8 -9 8 -6 0 -12
-4 -15 -8z"/>
<path d="M5233 2123 c4 -3 -1 -11 -10 -18 -13 -9 -13 -14 -3 -20 8 -5 11 -4 7
2 -4 6 0 13 8 17 18 6 20 26 3 26 -6 0 -8 -3 -5 -7z"/>
<path d="M5590 2126 c0 -2 7 -7 16 -10 8 -3 12 -2 9 4 -6 10 -25 14 -25 6z"/>
<path d="M5650 2122 c0 -5 7 -9 15 -9 8 0 12 4 9 9 -3 4 -9 8 -15 8 -5 0 -9
-4 -9 -8z"/>
<path d="M5138 2088 c12 -16 35 -18 48 -6 3 4 -2 5 -13 4 -10 -2 -25 2 -33 8
-13 9 -13 9 -2 -6z"/>
<path d="M5315 2071 c-3 -5 -2 -12 3 -15 5 -3 9 1 9 9 0 17 -3 19 -12 6z"/>
<path d="M5210 2059 c0 -5 5 -7 10 -4 6 3 10 8 10 11 0 2 -4 4 -10 4 -5 0 -10
-5 -10 -11z"/>
<path d="M5435 2050 c-4 -6 -12 -7 -18 -4 -7 4 -8 3 -4 -1 13 -15 34 -14 34 1
0 17 -4 18 -12 4z"/>
<path d="M5590 2049 c0 -5 -4 -8 -9 -5 -5 3 -14 -1 -20 -8 -9 -10 -9 -16 -1
-21 6 -4 9 -1 8 7 -2 8 5 13 18 12 11 -1 21 5 21 12 0 8 -4 14 -9 14 -4 0 -8
-5 -8 -11z"/>
<path d="M5350 2036 c7 -7 13 -7 20 0 6 6 3 10 -10 10 -13 0 -16 -4 -10 -10z"/>
<path d="M5475 2041 c-3 -5 -2 -12 3 -15 5 -3 9 1 9 9 0 17 -3 19 -12 6z"/>
<path d="M5640 2046 c0 -2 7 -9 15 -16 13 -11 14 -10 9 4 -5 14 -24 23 -24 12z"/>
<path d="M4771 2009 c-20 -22 -18 -57 3 -40 6 5 14 10 19 10 4 1 6 4 5 9 -1 4
-9 5 -18 3 -11 -2 -11 2 4 18 11 12 16 21 13 21 -3 0 -15 -9 -26 -21z"/>
<path d="M5631 2013 c7 -12 15 -20 18 -17 3 2 -3 12 -13 22 -17 16 -18 16 -5
-5z"/>
<path d="M4907 1999 c7 -7 15 -10 18 -7 3 3 -2 9 -12 12 -14 6 -15 5 -6 -5z"/>
<path d="M5675 1990 c21 -24 26 -25 19 -6 -3 8 -13 17 -22 21 -13 5 -13 2 3
-15z"/>
<path d="M4870 1996 c0 -2 8 -10 18 -17 15 -13 16 -12 3 4 -13 16 -21 21 -21
13z"/>
<path d="M4857 1969 c7 -7 15 -10 18 -7 3 3 -2 9 -12 12 -14 6 -15 5 -6 -5z"/>
<path d="M4913 1973 c4 -6 2 -13 -5 -15 -8 -3 -6 -6 4 -10 17 -7 19 15 3 29
-4 4 -5 3 -2 -4z"/>
<path d="M4730 1961 c0 -6 5 -13 10 -16 13 -8 13 -45 -1 -45 -5 0 -8 -4 -4 -9
3 -5 0 -13 -6 -17 -8 -4 -9 -3 -5 4 4 7 3 12 -2 12 -5 0 -13 -21 -17 -47 -9
-52 -10 -56 -20 -102 -4 -17 -5 -31 -3 -31 3 0 29 -4 59 -10 67 -12 103 -18
154 -25 22 -4 47 -8 55 -10 14 -4 34 -8 108 -19 15 -3 119 -21 232 -40 113
-20 221 -38 240 -41 19 -3 125 -21 235 -40 149 -25 202 -31 207 -22 10 16 10
57 1 58 -44 4 -103 32 -136 63 -15 14 -32 26 -37 26 -5 0 -12 9 -15 21 -5 13
-12 18 -22 14 -14 -5 -14 -3 -2 11 12 15 11 16 -11 9 -25 -7 -25 -7 -5 10 11
9 15 14 10 12 -18 -9 -54 27 -58 58 -3 23 -9 29 -23 27 -18 -2 -18 -2 -1 11 9
8 17 18 17 22 0 4 -6 2 -14 -4 -10 -8 -16 -9 -21 -1 -3 5 -12 10 -18 10 -7 0
-4 -5 6 -11 18 -10 18 -11 0 -25 -17 -13 -17 -14 1 -7 13 4 17 3 12 -5 -10
-17 -57 -10 -70 10 -6 10 -15 18 -20 18 -6 0 -5 -5 2 -12 17 -17 15 -33 -3
-18 -9 7 -17 11 -18 9 -1 -2 -8 -12 -15 -21 -11 -13 -11 -16 0 -14 7 1 19 6
27 10 10 7 12 6 6 -4 -6 -9 -4 -11 6 -5 11 7 11 5 -1 -11 -14 -18 -14 -18 4
-4 16 12 18 12 11 1 -5 -10 -4 -12 4 -7 9 6 9 11 1 21 -9 11 -7 14 9 12 20 -1
35 -22 26 -36 -2 -4 2 -8 10 -8 10 0 11 5 4 18 -7 14 -4 19 12 24 12 4 26 2
31 -3 7 -7 4 -10 -7 -9 -10 1 -20 -5 -22 -13 -4 -12 -2 -12 5 -2 7 10 11 10
22 -3 11 -13 10 -14 -6 -8 -16 6 -15 3 4 -25 l23 -31 -22 4 c-16 3 -19 1 -14
-13 5 -14 4 -15 -6 -4 -10 9 -10 15 -1 24 7 7 12 17 12 22 -1 6 -10 0 -20 -13
-11 -13 -20 -18 -20 -13 0 6 5 14 10 17 6 4 8 11 4 16 -3 6 -11 3 -19 -7 -10
-15 -17 -16 -36 -7 -13 7 -18 12 -11 12 7 1 10 6 7 11 -4 6 -11 8 -16 4 -6 -3
-16 2 -23 11 -11 16 -13 16 -27 -1 -12 -16 -12 -17 4 -11 9 3 17 2 17 -3 0
-12 -37 -13 -44 -1 -3 5 1 11 9 15 8 3 12 12 9 20 -3 8 -1 17 5 21 15 9 -40
54 -57 47 -11 -4 -11 -6 -1 -13 7 -4 17 -5 23 -2 5 4 7 -1 3 -9 -3 -9 -3 -19
1 -22 3 -4 7 -14 8 -22 1 -9 0 -13 -3 -10 -4 3 -12 -3 -20 -14 -8 -11 -20 -20
-26 -19 -9 0 -9 2 0 5 13 6 6 34 -9 34 -5 0 -6 -4 -3 -10 3 -5 2 -10 -4 -10
-5 0 -13 5 -16 10 -3 6 -11 10 -18 10 -8 0 -8 -3 1 -12 7 -7 12 -16 12 -22 0
-5 -6 -1 -14 9 -18 25 -10 38 17 29 19 -6 20 -5 8 9 -7 9 -17 14 -22 11 -5 -3
-9 0 -9 7 0 13 -14 3 -16 -12 -1 -5 -2 -14 -3 -19 -1 -7 -9 -6 -23 2 -13 7
-26 11 -31 10 -4 -1 -6 3 -5 9 2 6 -2 13 -8 16 -6 2 -11 -3 -12 -12 -1 -8 -3
-21 -4 -28 -1 -8 -7 -14 -14 -14 -10 0 -10 5 1 21 13 17 13 22 0 36 -14 16
-13 17 19 15 28 -1 33 1 25 12 -8 9 -8 13 -1 13 6 0 12 -6 15 -12 2 -7 8 -10
12 -5 5 4 0 14 -11 21 -17 13 -20 12 -29 -2 -11 -19 -35 -27 -35 -12 0 5 4 10
10 10 15 0 32 38 20 45 -6 4 -10 3 -9 -2 3 -19 -2 -33 -12 -33 -6 0 -8 7 -5
16 3 8 2 12 -4 9 -6 -3 -10 -1 -10 6 0 7 -3 10 -6 7 -3 -4 -1 -15 4 -25 7 -12
7 -25 1 -34 -9 -15 -9 -15 -13 18 -3 28 -16 42 -17 20 -1 -10 -2 -24 -3 -32 0
-8 2 -14 6 -12 4 1 15 -9 24 -21 13 -19 14 -26 4 -35 -10 -9 -12 -8 -7 5 3 10
2 20 -3 23 -5 3 -11 -3 -13 -12 -3 -13 -5 -11 -6 6 0 13 -4 21 -7 18 -4 -3
-15 -2 -24 3 -13 7 -20 5 -24 -6 -4 -12 -2 -15 9 -11 20 8 28 -9 15 -30 -10
-16 -10 -15 -5 3 4 17 1 22 -12 20 -11 0 -17 5 -15 15 1 9 -4 16 -10 16 -7 0
-22 4 -33 8 -20 7 -20 7 0 -12 37 -33 47 -50 34 -59 -7 -4 -9 -3 -6 3 10 16
-43 64 -64 58 -9 -3 -21 -1 -25 6 -4 8 -11 4 -21 -12 -8 -13 -12 -16 -9 -7 9
31 -36 46 -54 18 -6 -9 -10 -10 -10 -3 0 6 5 15 10 18 6 3 10 11 10 17 0 6 -7
5 -17 -3 -11 -10 -14 -10 -9 -1 4 6 2 12 -3 12 -6 0 -11 4 -11 8 0 5 7 9 15 9
8 0 12 -4 9 -8 -2 -4 4 -6 15 -4 15 3 18 -1 14 -13 -4 -15 -3 -15 6 -2 8 12
11 12 11 1 0 -10 3 -11 13 -3 10 8 16 6 25 -9 16 -25 32 -24 32 2 0 11 5 17
10 14 6 -4 8 -10 5 -14 -2 -5 7 -7 20 -5 14 1 25 -2 25 -8 0 -7 5 -7 13 1 8 6
16 10 18 8 3 -1 -4 6 -16 17 -11 10 -18 26 -17 35 3 13 1 13 -9 4 -9 -9 -9
-16 -1 -26 7 -8 9 -17 5 -20 -3 -4 -13 2 -21 14 -12 18 -12 23 5 41 l18 22
-27 -20 c-14 -10 -25 -23 -25 -28 1 -5 -3 -10 -8 -12 -6 -2 -11 5 -12 16 -1
12 5 20 15 21 12 0 10 3 -6 10 -13 5 -29 6 -35 2 -6 -4 -8 0 -5 9 4 8 0 15 -7
15 -10 0 -11 -5 -4 -18 6 -12 15 -16 27 -12 15 6 15 5 4 -10 -11 -13 -17 -14
-32 -5 -10 7 -16 17 -13 23 4 5 3 7 -2 3 -4 -4 -13 0 -20 9 -9 13 -14 13 -20
3 -5 -9 -4 -11 3 -6 7 4 12 1 12 -8 0 -21 -9 -20 -33 2 -11 9 -17 12 -14 5 4
-6 3 -14 -3 -18 -5 -3 -10 -2 -10 4 0 6 -16 1 -35 -10 -19 -12 -35 -25 -35
-31 0 -5 7 -2 16 6 8 9 19 14 24 11 5 -3 10 1 13 7 6 17 14 9 19 -17 1 -11 7
-23 12 -26 5 -4 5 -12 2 -18 -9 -14 -36 -15 -36 -1 0 5 8 6 18 3 15 -6 15 -5
3 10 -13 16 -15 16 -32 1 -15 -14 -21 -14 -34 -4 -8 7 -15 19 -15 26 0 8 -5
14 -11 14 -5 0 -8 -4 -5 -8 2 -4 -4 -9 -16 -9 -14 -1 -18 3 -14 13 4 10 0 14
-11 12 -9 -2 -17 5 -18 15 -2 10 1 14 8 10 6 -4 8 0 4 10 -6 15 15 31 27 20
11 -11 6 -24 -6 -17 -6 4 -8 3 -4 -4 3 -5 3 -12 -1 -15 -5 -2 -2 -2 5 0 8 1
10 -2 6 -9 -5 -7 -3 -8 7 -3 11 7 11 5 -1 -10 -15 -18 -14 -18 12 -1 15 10 26
22 23 26 -3 4 2 11 10 14 13 5 14 2 4 -15 -9 -19 -9 -20 10 -10 11 6 23 16 27
23 4 7 3 8 -4 4 -7 -4 -12 -2 -12 4 0 7 -6 10 -14 7 -7 -3 -19 0 -25 6 -9 9
-11 8 -6 -5 4 -10 3 -18 -3 -18 -6 0 -13 9 -17 20 -6 19 -35 23 -51 7 -11 -11
-36 -8 -29 3 3 6 1 10 -4 10 -6 0 -11 -4 -11 -9z m115 -49 c-3 -3 -11 0 -18 7
-9 10 -8 11 6 5 10 -3 15 -9 12 -12z m125 -11 c0 -4 -7 -8 -15 -8 -16 0 -20 9
-9 20 8 8 24 -1 24 -12z m56 -5 c10 -8 16 -18 12 -22 -4 -4 -14 -1 -23 6 -8 7
-15 9 -15 6 0 -4 -5 -4 -10 -1 -11 7 -4 25 9 25 4 0 16 -6 27 -14z m41 -13
c-4 -3 -1 -13 6 -22 11 -14 10 -14 -5 -2 -21 15 -23 31 -6 31 6 0 8 -3 5 -7z
m-217 -48 c0 -8 -4 -15 -10 -15 -5 0 -7 7 -4 15 4 8 8 15 10 15 2 0 4 -7 4
-15z m54 -16 c3 -3 -5 -5 -19 -5 -13 0 -22 3 -19 7 4 8 30 6 38 -2z m116 7 c0
-2 -7 -6 -15 -10 -8 -3 -15 -1 -15 4 0 6 7 10 15 10 8 0 15 -2 15 -4z m-50
-26 c0 -5 -2 -10 -4 -10 -3 0 -8 5 -11 10 -3 6 -1 10 4 10 6 0 11 -4 11 -10z
m150 0 c8 -5 11 -10 5 -10 -5 0 -17 5 -25 10 -8 5 -10 10 -5 10 6 0 17 -5 25
-10z m390 0 c0 -5 -2 -10 -4 -10 -3 0 -8 5 -11 10 -3 6 -1 10 4 10 6 0 11 -4
11 -10z m-450 -16 c0 -8 -19 -13 -24 -6 -3 5 1 9 9 9 8 0 15 -2 15 -3z m37 0
c-3 -3 -12 -4 -19 -1 -8 3 -5 6 6 6 11 1 17 -2 13 -5z m149 -26 c3 -4 -1 -5
-10 -4 -8 1 -18 5 -22 8 -3 4 1 5 10 4 8 -1 18 -5 22 -8z m84 2 c0 -5 -7 -7
-15 -4 -8 4 -15 8 -15 10 0 2 7 4 15 4 8 0 15 -4 15 -10z m56 -36 c1 -9 0 -13
-4 -10 -3 4 -7 14 -8 22 -1 9 0 13 4 10 3 -4 7 -14 8 -22z m104 2 c0 -3 -4 -8
-10 -11 -5 -3 -10 -1 -10 4 0 6 5 11 10 11 6 0 10 -2 10 -4z m97 -30 c5 -4 1
-6 -7 -4 -8 2 -14 -2 -13 -9 3 -12 -22 -12 -34 1 -4 4 -3 7 2 6 21 -5 29 1 15
10 -12 8 -10 9 7 7 12 -2 26 -7 30 -11z m-119 -21 c-3 -3 -9 2 -12 12 -6 14
-5 15 5 6 7 -7 10 -15 7 -18z m147 5 c-3 -5 -12 -10 -18 -10 -7 0 -6 4 3 10
19 12 23 12 15 0z"/>
<path d="M5110 1939 c0 -5 5 -7 10 -4 6 3 10 8 10 11 0 2 -4 4 -10 4 -5 0 -10
-5 -10 -11z"/>
<path d="M5150 1942 c0 -5 7 -9 15 -9 8 0 12 4 9 9 -3 4 -9 8 -15 8 -5 0 -9
-4 -9 -8z"/>
<path d="M4724 1933 c4 -7 2 -13 -4 -13 -6 0 -8 -5 -4 -11 4 -8 9 -8 17 0 8 8
7 14 -2 24 -11 10 -13 10 -7 0z"/>
<path d="M5275 1920 c-3 -5 -1 -10 4 -10 6 0 11 5 11 10 0 6 -2 10 -4 10 -3 0
-8 -4 -11 -10z"/>
<path d="M5208 1913 c6 -2 9 -10 6 -15 -4 -7 -2 -8 5 -4 13 9 5 26 -12 25 -9
0 -8 -2 1 -6z"/>
<path d="M5354 1882 c1 -15 5 -25 10 -24 5 2 13 -2 17 -10 7 -10 9 -10 9 0 0
7 5 10 10 7 6 -3 10 -1 10 5 0 6 -11 8 -26 6 -22 -4 -25 -2 -21 14 3 11 2 22
-2 25 -5 2 -8 -8 -7 -23z"/>
<path d="M5189 1888 c-1 -7 0 -17 1 -23 1 -5 3 -15 3 -22 0 -7 6 -14 14 -17
10 -4 11 -1 4 13 -7 12 -6 22 2 30 9 10 8 11 -6 5 -13 -5 -16 -2 -11 10 3 9 3
16 0 16 -3 0 -7 -6 -7 -12z"/>
<path d="M5436 1887 c3 -10 9 -15 12 -12 3 3 0 11 -7 18 -10 9 -11 8 -5 -6z"/>
<path d="M4879 1874 c-17 -21 -3 -29 16 -10 9 9 22 13 28 9 7 -3 8 -2 4 2 -13
15 -35 14 -48 -1z"/>
<path d="M5630 1880 c0 -5 5 -10 11 -10 5 0 7 5 4 10 -3 6 -8 10 -11 10 -2 0
-4 -4 -4 -10z"/>
<path d="M5440 1855 c-14 -8 -20 -14 -14 -15 5 0 19 7 30 15 24 18 16 19 -16
0z"/>
<path d="M5530 1866 c0 -2 7 -7 16 -10 8 -3 12 -2 9 4 -6 10 -25 14 -25 6z"/>
<path d="M5665 1860 c-3 -6 1 -7 9 -4 18 7 21 14 7 14 -6 0 -13 -4 -16 -10z"/>
<path d="M5510 1839 c0 -5 5 -7 10 -4 6 3 10 1 10 -4 0 -6 5 -11 11 -11 8 0 8
5 -1 15 -14 17 -30 20 -30 4z"/>
<path d="M5346 1824 c-10 -7 -24 -11 -30 -8 -6 3 0 -4 13 -15 13 -12 28 -21
35 -21 8 0 7 3 -1 8 -9 6 -7 11 7 19 15 10 23 8 44 -8 14 -11 26 -17 26 -12 1
4 6 -2 13 -14 l12 -23 14 22 c11 18 11 20 -3 15 -8 -3 -18 -1 -22 5 -4 7 -3 8
4 4 7 -4 12 -3 12 2 0 4 -16 16 -36 25 -19 10 -32 12 -29 7 7 -12 -26 -10 -35
2 -3 3 -14 0 -24 -8z m14 -14 c-8 -5 -19 -10 -25 -10 -5 0 -3 5 5 10 8 5 20
10 25 10 6 0 3 -5 -5 -10z m79 1 c7 -5 9 -11 5 -14 -5 -3 -15 1 -22 9 -14 16
-5 18 17 5z"/>
<path d="M5600 1816 c7 -7 14 -6 21 1 9 9 7 12 -9 10 -14 -1 -18 -5 -12 -11z"/>
<path d="M5710 1799 c5 -15 5 -30 2 -34 -7 -7 17 -25 33 -25 6 0 3 5 -5 10 -8
5 -11 10 -6 10 5 0 3 7 -4 15 -7 8 -10 23 -8 33 3 11 0 19 -7 19 -9 0 -10 -8
-5 -28z"/>
<path d="M5603 1758 c-12 -21 -12 -38 0 -38 7 0 13 11 13 25 2 28 -1 31 -13
13z"/>
</g>
</svg>
